<?xml version="1.0" encoding="UTF-8" standalone="no"?>
<svg width="60px" height="60px" viewBox="0 0 60 60" version="1.1" xmlns="http://www.w3.org/2000/svg" xmlns:xlink="http://www.w3.org/1999/xlink">
    <!-- Generator: Sketch 39.1 (31720) - http://www.bohemiancoding.com/sketch -->
    <title>iPhone 6</title>
    <desc>Created with Sketch.</desc>
    <defs></defs>
    <g id="Page-1" stroke="none" stroke-width="1" fill="none" fill-rule="evenodd">
        <g id="iPhone-6" transform="translate(-39.000000, -585.000000)" fill="#FFFFFF">
            <path d="M67.5329676,607.435603 C66.4406289,605.916596 64.6737823,605 62.8150577,605 C59.6110073,605 57,607.614152 57,610.824923 C57,614.709256 58.9996255,617.898812 63.1970766,621.580534 C63.9419211,622.23385 65.0509735,623.264407 66.437014,624.582643 C66.5196318,624.661239 66.5196318,624.661239 66.6021916,624.739856 C67.4823477,625.578173 68.4146505,626.475458 69.3403159,627.372619 C69.6642015,627.686531 69.9641747,627.978056 70.2328446,628.239767 C70.3942875,628.397028 70.5092428,628.509232 70.5713935,628.570003 L67.7489063,628.59588 C67.8114307,628.53246 67.9279504,628.414556 68.0910897,628.249931 C68.3624501,627.976099 68.6656469,627.671107 68.9933167,627.342706 C69.9298715,626.404062 70.8755283,625.465251 71.7718295,624.587875 C71.8874643,624.474731 71.8874643,624.474731 72.0032482,624.361647 C73.3135015,623.082549 74.3867515,622.064892 75.1536458,621.384205 C79.2132967,617.781429 81.3122209,614.472161 81.3122209,610.824923 C81.3122209,607.61396 78.7015198,605 75.4971632,605 C73.6388247,605 71.872246,605.916687 70.7807217,607.435253 L69.1570883,609.694108 L67.5329676,607.435603 Z M75.4971632,603 C79.8065929,603 83.3122209,606.509893 83.3122209,610.824923 C83.3122209,615.81642 79.9947143,619.761964 76.4811787,622.880085 C74.1707467,624.930798 69.173142,630 69.173142,630 C69.173142,630 64.033921,624.97487 61.8782661,623.08411 C58.1873367,619.846674 55,616.050453 55,610.824923 C55,606.509893 58.5061257,603 62.8150577,603 C64.6476543,603 66.3928725,603.655617 67.767996,604.786703 C67.6876538,604.889563 67.6092042,604.994218 67.5327157,605.100632 L68.1269064,605.100567 C68.5056795,605.452563 68.8512447,605.84315 69.1567187,606.267942 C69.4621035,605.84308 69.8076397,605.452414 70.1864315,605.100345 L70.7804698,605.100281 C70.7039908,604.993929 70.6255543,604.889334 70.5452288,604.786532 C71.9198637,603.65569 73.6647893,603 75.4971632,603 Z" id="Shape"></path>
        </g>
    </g>
</svg>