<?xml version="1.0" encoding="UTF-8" standalone="no"?>
<svg width="72px" height="72px" viewBox="0 0 72 72" version="1.1" xmlns="http://www.w3.org/2000/svg" xmlns:xlink="http://www.w3.org/1999/xlink" xmlns:sketch="http://www.bohemiancoding.com/sketch/ns">
    <!-- Generator: Sketch 3.3.2 (12043) - http://www.bohemiancoding.com/sketch -->
    <title>back_ICON</title>
    <desc>Created with Sketch.</desc>
    <defs></defs>
    <g id="Page-1" stroke="none" stroke-width="1" fill="none" fill-rule="evenodd" sketch:type="MSPage">
        <g id="History" sketch:type="MSArtboardGroup" transform="translate(-649.000000, -63.000000)" fill="#000000">
            <path d="M663.4375,99 C663.4375,110.706692 673.110391,120.230769 685,120.230769 C692.778789,120.230769 699.983828,116.080038 703.803789,109.398346 L704.033711,108.996346 L706.484688,110.354538 L706.254648,110.756654 C701.937227,118.308692 693.79293,123 685,123 C671.559648,123 660.625,112.233577 660.625,99 L655,99 L662.5,91.6153846 L670,99 L663.4375,99 L663.4375,99 Z M706.5625,99 C706.5625,87.2933077 696.889609,77.7692308 685,77.7692308 C677.221211,77.7692308 670.016172,81.9199615 666.196211,88.6013077 L665.966289,89.0034231 L663.515313,87.6452308 L663.745352,87.2431154 C668.062773,79.6913077 676.20707,75 685,75 C698.440352,75 709.375,85.7664231 709.375,99 L715,99 L707.5,106.384615 L700,99 L706.5625,99 L706.5625,99 Z" id="Shape" sketch:type="MSShapeGroup"></path>
        </g>
    </g>
</svg>