<?xml version="1.0" encoding="UTF-8" standalone="no"?>
<svg width="151px" height="151px" viewBox="0 0 151 151" version="1.1" xmlns="http://www.w3.org/2000/svg" xmlns:xlink="http://www.w3.org/1999/xlink" xmlns:sketch="http://www.bohemiancoding.com/sketch/ns">
    <!-- Generator: Sketch 3.4 (15575) - http://www.bohemiancoding.com/sketch -->
    <title>Rectangle-1</title>
    <desc>Created with Sketch.</desc>
    <defs></defs>
    <g id="Page-1" stroke="none" stroke-width="1" fill="none" fill-rule="evenodd" sketch:type="MSPage">
        <rect id="Rectangle-1" fill="#E49954" sketch:type="MSShapeGroup" x="0" y="0" width="151" height="151" rx="10"></rect>
        <path d="M30.184,60.456 L33.952,60.456 L33.952,66.408 C32.2879917,68.2640093 29.9840147,69.192 27.04,69.192 C24.5759877,69.192 22.5080084,68.3760082 20.836,66.744 C19.1639916,65.1119918 18.328,63.0520124 18.328,60.564 C18.328,58.0759876 19.1799915,56.0000083 20.884,54.336 C22.5880085,52.6719917 24.643988,51.84 27.052,51.84 C29.460012,51.84 31.5519911,52.6319921 33.328,54.216 L31.384,57.024 C30.6319962,56.3679967 29.9400032,55.9160012 29.308,55.668 C28.6759968,55.4199988 27.9920037,55.296 27.256,55.296 C25.8319929,55.296 24.6320049,55.7799952 23.656,56.748 C22.6799951,57.7160048 22.192,58.9919921 22.192,60.576 C22.192,62.1600079 22.6599953,63.4279952 23.596,64.38 C24.5320047,65.3320048 25.6479935,65.808 26.944,65.808 C28.2400065,65.808 29.3199957,65.5600025 30.184,65.064 L30.184,60.456 Z M37.288,52.224 L41.032,52.224 L41.032,69 L37.288,69 L37.288,52.224 Z M56.68,52.224 L56.68,55.512 L48.904,55.512 L48.904,59.136 L56.296,59.136 L56.296,62.424 L48.904,62.424 L48.904,69 L45.16,69 L45.16,52.224 L56.68,52.224 Z M66.952,55.464 L66.952,69 L63.208,69 L63.208,55.464 L58.456,55.464 L58.456,52.224 L71.704,52.224 L71.704,55.464 L66.952,55.464 Z M87.88,55.464 L87.88,69 L84.136,69 L84.136,55.464 L79.384,55.464 L79.384,52.224 L92.632,52.224 L92.632,55.464 L87.88,55.464 Z M105.784,52.224 L109.528,52.224 L109.528,69 L105.784,69 L105.784,62.4 L99.112,62.4 L99.112,69 L95.368,69 L95.368,52.224 L99.112,52.224 L99.112,59.232 L105.784,59.232 L105.784,52.224 Z M113.656,52.224 L117.4,52.224 L117.4,69 L113.656,69 L113.656,52.224 Z M125.452,55.572 C125.091998,55.8680015 124.912,56.2599976 124.912,56.748 C124.912,57.2360024 125.131998,57.6239986 125.572,57.912 C126.012002,58.2000014 127.027992,58.539998 128.62,58.932 C130.212008,59.324002 131.447996,59.9119961 132.328,60.696 C133.208004,61.4800039 133.648,62.6239925 133.648,64.128 C133.648,65.6320075 133.084006,66.8519953 131.956,67.788 C130.827994,68.7240047 129.344009,69.192 127.504,69.192 C124.847987,69.192 122.456011,68.2080098 120.328,66.24 L122.56,63.504 C124.368009,65.0880079 126.039992,65.88 127.576,65.88 C128.264003,65.88 128.803998,65.7320015 129.196,65.436 C129.588002,65.1399985 129.784,64.7400025 129.784,64.236 C129.784,63.7319975 129.576002,63.3320015 129.16,63.036 C128.743998,62.7399985 127.920006,62.4400015 126.688,62.136 C124.73599,61.6719977 123.308005,61.0680037 122.404,60.324 C121.499995,59.5799963 121.048,58.412008 121.048,56.82 C121.048,55.227992 121.619994,54.0000043 122.764,53.136 C123.908006,52.2719957 125.335991,51.84 127.048,51.84 C128.168006,51.84 129.287994,52.0319981 130.408,52.416 C131.528006,52.8000019 132.503996,53.3439965 133.336,54.048 L131.44,56.784 C129.983993,55.6799945 128.480008,55.128 126.928,55.128 C126.303997,55.128 125.812002,55.2759985 125.452,55.572 L125.452,55.572 Z M32.86,87.08 L32.86,104 L28.18,104 L28.18,87.08 L22.24,87.08 L22.24,83.03 L38.8,83.03 L38.8,87.08 L32.86,87.08 Z M42.22,83.03 L46.9,83.03 L46.9,104 L42.22,104 L42.22,83.03 Z M61.69,99.86 C63.9900115,99.86 65.8699927,98.9500091 67.33,97.13 L70.33,100.22 C67.9499881,102.900013 65.1450161,104.24 61.915,104.24 C58.6849838,104.24 56.0250105,103.22001 53.935,101.18 C51.8449896,99.1399898 50.8,96.5650155 50.8,93.455 C50.8,90.3449844 51.8649894,87.7500104 53.995,85.67 C56.1250106,83.5899896 58.7299846,82.55 61.81,82.55 C65.2500172,82.55 68.1299884,83.8599869 70.45,86.48 L67.54,89.78 C66.0599926,87.9399908 64.220011,87.02 62.02,87.02 C60.2599912,87.02 58.7550062,87.5949943 57.505,88.745 C56.2549938,89.8950057 55.63,91.4449902 55.63,93.395 C55.63,95.3450098 56.2199941,96.9099941 57.4,98.09 C58.5800059,99.2700059 60.0099916,99.86 61.69,99.86 L61.69,99.86 Z M74.02,83.03 L78.7,83.03 L78.7,91.64 L86.62,83.03 L92.41,83.03 L84.07,92.3 C84.7900036,93.300005 86.1199903,95.1649863 88.06,97.895 C90.0000097,100.625014 91.4499952,102.659993 92.41,104 L86.95,104 L80.8,95.72 L78.7,98.06 L78.7,104 L74.02,104 L74.02,83.03 Z M110.44,83.03 L110.44,87.2 L100,87.2 L100,91.52 L109.39,91.52 L109.39,95.51 L100,95.51 L100,99.86 L110.77,99.86 L110.77,104 L95.32,104 L95.32,83.03 L110.44,83.03 Z M123.82,87.08 L123.82,104 L119.14,104 L119.14,87.08 L113.2,87.08 L113.2,83.03 L129.76,83.03 L129.76,87.08 L123.82,87.08 Z" id="GIFT-THIS" fill="#FFFFFF" sketch:type="MSShapeGroup"></path>
    </g>
</svg>