<?xml version="1.0" encoding="UTF-8" standalone="no"?>
<svg width="72px" height="72px" viewBox="0 0 72 72" version="1.1" xmlns="http://www.w3.org/2000/svg" xmlns:xlink="http://www.w3.org/1999/xlink" xmlns:sketch="http://www.bohemiancoding.com/sketch/ns">
    <!-- Generator: Sketch 3.3.3 (12072) - http://www.bohemiancoding.com/sketch -->
    <title>Primary Account</title>
    <desc>Created with Sketch.</desc>
    <defs></defs>
    <g id="Page-1" stroke="none" stroke-width="1" fill="none" fill-rule="evenodd" sketch:type="MSPage">
        <path d="M10,20 C10,18.3431458 11.3408574,17 13.0069809,17 L50.9930191,17 C52.6537288,17 54,18.3465171 54,20 C54,21.6568542 52.6591426,23 50.9930191,23 L13.0069809,23 C11.3462712,23 10,21.6534829 10,20 Z M10,36 C10,34.3431458 11.3348389,33 12.9995609,33 L61.0004391,33 C62.6570508,33 64,34.3465171 64,36 C64,37.6568542 62.6651611,39 61.0004391,39 L12.9995609,39 C11.3429492,39 10,37.6534829 10,36 Z M10,52 C10,50.3431458 11.3408574,49 13.0069809,49 L50.9930191,49 C52.6537288,49 54,50.3465171 54,52 C54,53.6568542 52.6591426,55 50.9930191,55 L13.0069809,55 C11.3462712,55 10,53.6534829 10,52 Z" id="Rectangle-10" fill="#333333" sketch:type="MSShapeGroup"></path>
    </g>
</svg>