<?xml version="1.0" encoding="UTF-8" standalone="no"?>
<svg width="62px" height="62px" viewBox="0 0 62 62" version="1.1" xmlns="http://www.w3.org/2000/svg" xmlns:xlink="http://www.w3.org/1999/xlink">
    <!-- Generator: Sketch 39.1 (31720) - http://www.bohemiancoding.com/sketch -->
    <title>Group</title>
    <desc>Created with Sketch.</desc>
    <defs></defs>
    <g id="Page-1" stroke="none" stroke-width="1" fill="none" fill-rule="evenodd">
        <g id="iPhone-6" transform="translate(-157.000000, -583.000000)" fill="#FFFFFF">
            <g id="Group" transform="translate(157.000000, 583.000000)">
                <path d="M61.5,31 C61.5,14.1553151 47.8446849,0.5 31,0.5 C14.1553151,0.5 0.5,14.1553151 0.5,31 C0.5,47.8446849 14.1553151,61.5 31,61.5 C47.8446849,61.5 61.5,47.8446849 61.5,31 Z M3.5,31 C3.5,15.8121694 15.8121694,3.5 31,3.5 C46.1878306,3.5 58.5,15.8121694 58.5,31 C58.5,46.1878306 46.1878306,58.5 31,58.5 C15.8121694,58.5 3.5,46.1878306 3.5,31 Z" id="Oval"></path>
                <g id="Play" transform="translate(33.000000, 31.000000) rotate(90.000000) translate(-33.000000, -31.000000) translate(21.000000, 20.000000)">
                    <rect id="Rectangle-4" transform="translate(6.802058, 9.500000) rotate(30.000000) translate(-6.802058, -9.500000) " x="4.80205813" y="0" width="4" height="19" rx="2"></rect>
                    <rect id="Rectangle-4-Copy-2" transform="translate(12.000000, 19.100006) rotate(90.000000) translate(-12.000000, -19.100006) " x="10" y="9.6000061" width="4" height="19" rx="2"></rect>
                    <rect id="Rectangle-4-Copy" transform="translate(17.302058, 9.500000) rotate(-30.000000) translate(-17.302058, -9.500000) " x="15.3020581" y="2.57571742e-14" width="4" height="19" rx="2"></rect>
                </g>
            </g>
        </g>
    </g>
</svg>