<?xml version="1.0" encoding="UTF-8"?>
<svg width="330px" height="330px" viewBox="0 0 330 330" version="1.1" xmlns="http://www.w3.org/2000/svg" xmlns:xlink="http://www.w3.org/1999/xlink">
    <!-- Generator: Sketch 41 (35326) - http://www.bohemiancoding.com/sketch -->
    <title>Rectangle</title>
    <desc>Created with Sketch.</desc>
    <defs></defs>
    <g id="Page-1" stroke="none" stroke-width="1" fill="none" fill-rule="evenodd">
        <rect id="Rectangle" fill="#67AA62" x="-210" y="0" width="750" height="330"></rect>
        <path d="M50,198.5 C50,193.253295 54.2532232,189 59.4913843,189 L160.508616,189 C165.750562,189 170,193.252141 170,198.5 C170,203.746705 165.746777,208 160.508616,208 L59.4913843,208 C54.2494375,208 50,203.747859 50,198.5 Z M110,158 C76.9695371,158 62.4936912,168.845809 57.817211,181 L162.182789,181 C157.506309,168.845809 143.030463,158 110,158 Z M162.182789,216 C157.506309,228.154191 143.030463,239 110,239 C76.9695371,239 62.4936912,228.154191 57.817211,216 L162.182789,216 L162.182789,216 Z" id="Combined-Shape" fill="#FFFFFF" opacity="0.699999988"></path>
        <path d="M279.680395,97.4852107 C281.052939,96.5571542 281.413267,94.6921489 280.485211,93.3196049 C279.557154,91.9470609 277.692149,91.5867327 276.319605,92.5147893 L243.819605,114.489923 C243.33547,114.817275 242.95749,115.278906 242.732095,115.818111 L194.232095,231.842977 C193.593089,233.371649 194.314306,235.128899 195.842977,235.767905 C197.371649,236.406911 199.128899,235.685694 199.767905,234.157023 L247.922437,118.958607 L279.680395,97.4852107 Z" id="Line" fill="#FFFFFF" opacity="0.826822917"></path>
        <polygon id="Rectangle-3" fill="#FFFFFF" opacity="0.600000024" points="171 129 246 129 236 239 181 239"></polygon>
        <polygon id="Combined-Shape" fill="#FFFFFF" opacity="0.826822917" points="233.723186 236 184.185904 236 179.276814 182 238.632277 182"></polygon>
        <path d="M170,153.994999 C169.833734,153.998328 169.667062,154 169.5,154 C163.142262,154 157.350135,151.57833 152.995717,147.607087 L170,130.602804 L170,153.994999 Z M171.3,153.934883 C177.522181,153.483059 183.099846,150.707519 187.169228,146.472032 L171.3,130.602804 L171.3,153.934883 Z M188.045784,145.51011 C191.718825,141.259121 193.954943,135.732002 193.999327,129.683565 L172.219239,129.683565 L188.045784,145.51011 Z M193.975015,128.383554 C193.709592,122.465482 191.344613,117.093867 187.607087,112.995717 L172.219239,128.383565 L193.975015,128.383565 Z M186.705881,112.058445 C182.681308,108.087916 177.289234,105.500026 171.3,105.065117 L171.3,127.464326 L186.705881,112.058445 Z M170,105.005001 C169.833734,105.001672 169.667062,105 169.5,105 C163.37986,105 157.783846,107.244049 153.48989,110.954216 L170,127.464326 L170,105.005001 Z M152.527968,111.830772 C148.137956,116.048619 145.316361,121.886813 145.024985,128.383554 L169.080761,128.383565 L152.527968,111.830772 Z M145.000673,129.683565 C145.049345,136.316402 147.733743,142.322314 152.058445,146.705881 L169.080761,129.683565 L145.000673,129.683565 Z" id="Combined-Shape" fill="#FFFFFF" opacity="0.5" transform="translate(169.500000, 129.500000) rotate(-5.000000) translate(-169.500000, -129.500000) "></path>
        <path d="M171.768023,155.423622 C186.085244,154.171027 196.676216,141.549198 195.423622,127.231977 C194.171027,112.914756 181.549198,102.323784 167.231977,103.576378 C152.914756,104.828973 142.323784,117.450802 143.576378,131.768023 C144.828973,146.085244 157.450802,156.676216 171.768023,155.423622 Z M172.02949,158.412206 C156.06172,159.809205 141.984793,147.997261 140.587794,132.02949 C139.190795,116.06172 151.002739,101.984793 166.97051,100.587794 C182.93828,99.1907953 197.015207,111.002739 198.412206,126.97051 C199.809205,142.93828 187.997261,157.015207 172.02949,158.412206 Z" id="Combined-Shape-Copy-2" fill="#FFFFFF" opacity="0.300000012"></path>
    </g>
</svg>