<?xml version="1.0" encoding="UTF-8"?>
<svg width="231px" height="92px" viewBox="0 0 231 92" version="1.1" xmlns="http://www.w3.org/2000/svg" xmlns:xlink="http://www.w3.org/1999/xlink">
    <!-- Generator: Sketch 41.1 (35376) - http://www.bohemiancoding.com/sketch -->
    <title>Slice</title>
    <desc>Created with Sketch.</desc>
    <defs></defs>
    <g id="Page-1" stroke="none" stroke-width="1" fill="none" fill-rule="evenodd">
        <path d="M104,72.1340258 C104,68.6542494 105.654584,67 109.134026,67 L119.865974,67 C123.345751,67 125,68.6545836 125,72.1340258 L125,82.8659742 C125,86.3457506 123.345416,88 119.865974,88 L109.134026,88 C105.654249,88 104,86.3454164 104,82.8659742 L104,72.1340258 Z M109.157895,82.4736841 L111.848256,82.4736841 L111.848256,77.9386661 C111.848256,76.9994387 112.101414,76.284258 112.607736,75.7931024 C113.105477,75.29333 113.740516,75.0434476 114.512872,75.0434476 C115.285229,75.0434476 115.915977,75.29333 116.405136,75.7931024 C116.902877,76.284258 117.151744,76.9994387 117.151744,77.9386661 L117.151744,82.4736841 L119.842105,82.4736841 L119.842105,77.00806 C119.799197,75.4742759 119.322917,74.31103 118.413253,73.5182879 C117.495007,72.7341621 116.482377,72.3421052 115.375333,72.3421052 C113.942183,72.3421052 112.783665,72.7569389 111.899746,73.8168011 L111.848256,73.9318905 L111.848256,73.0855784 L109.157895,72.5101315 L109.157895,82.4736841 L109.157895,82.4736841 Z" id="logo" fill="#8AC186"></path>
        <path d="M135.639739,76.9877299 L135.639739,83.8104792 L133,83.8104792 L133,71.2073451 L135.639739,71.2073451 L135.639739,73.505285 C136.063985,72.7314045 136.649278,72.1233646 137.395636,71.6811472 C138.141995,71.2389297 138.947264,71.0178243 139.811469,71.0178243 C141.225621,71.0178243 142.368711,71.4521385 143.240772,72.3207799 C144.112833,73.1894213 144.548857,74.4449841 144.548857,76.0875061 L144.548857,83.8104792 L141.909118,83.8104792 L141.909118,76.8929695 C141.909118,74.571328 140.950651,73.4105246 139.033688,73.4105246 C138.122346,73.4105246 137.328861,73.7145445 136.65321,74.3225935 C135.977559,74.9306425 135.639739,75.8190124 135.639739,76.9877299 L135.639739,76.9877299 Z M157.156359,83.8104792 L154.752311,83.8104792 L154.752311,82.128482 C153.715266,83.3761669 152.324703,84 150.580581,84 C149.276418,84 148.196179,83.6288588 147.33983,82.8865652 C146.483482,82.1442717 146.055315,81.1532457 146.055315,79.9134575 C146.055315,78.6736693 146.510979,77.7458163 147.422322,77.1298705 C148.333665,76.5139248 149.567102,76.2059566 151.12267,76.2059566 L154.540189,76.2059566 L154.540189,75.7321545 C154.540189,74.0580457 153.613147,73.2210038 151.759036,73.2210038 C150.596288,73.2210038 149.38642,73.6474213 148.129395,74.5002693 L146.95094,72.8419621 C148.475083,71.6258642 150.203466,71.0178243 152.136141,71.0178243 C153.613145,71.0178243 154.819085,71.3929138 155.753998,72.1431041 C156.68891,72.8932945 157.156359,74.0738394 157.156359,75.6847743 L157.156359,83.8104792 Z M154.51662,79.1198391 L154.51662,78.0537845 L151.546914,78.0537845 C149.645664,78.0537845 148.695053,78.6539277 148.695053,79.8542322 C148.695053,80.4701779 148.930742,80.9400269 149.402126,81.2637933 C149.873511,81.5875596 150.529511,81.7494403 151.370146,81.7494403 C152.210781,81.7494403 152.945344,81.5125417 153.573856,81.0387373 C154.202369,80.5649329 154.51662,79.9253066 154.51662,79.1198391 L154.51662,79.1198391 Z M162.245319,83.8104792 L159.605581,83.8104792 L159.605581,71.2073451 L162.245319,71.2073451 L162.245319,83.8104792 Z M159.546727,68.4043695 C159.546727,68.0219571 159.684477,67.6922962 159.959982,67.4153769 C160.235487,67.1384576 160.563464,67 160.943923,67 C161.324382,67 161.652359,67.1384576 161.927864,67.4153769 C162.203369,67.6922962 162.341119,68.0219571 162.341119,68.4043695 C162.341119,68.7867819 162.203369,69.1164428 161.927864,69.3933621 C161.652359,69.6702814 161.324382,69.808739 160.943923,69.808739 C160.563464,69.808739 160.235487,69.6702814 159.959982,69.3933621 C159.684477,69.1164428 159.546727,68.7867819 159.546727,68.4043695 L159.546727,68.4043695 Z M171.411733,73.6948058 C170.10757,73.6948058 169.125534,74.1212234 168.465596,74.9740713 C167.805658,75.8269192 167.475694,76.9719293 167.475694,78.409136 L167.475694,83.8104792 L164.835956,83.8104792 L164.835956,71.2073451 L167.475694,71.2073451 L167.475694,73.742186 C167.89994,72.952512 168.477377,72.304989 169.208023,71.7995977 C169.938668,71.2942063 170.712513,71.0336178 171.529579,71.0178243 L171.553148,73.6948058 L171.411733,73.6948058 L171.411733,73.6948058 Z M183.005764,83.8104792 L180.601716,83.8104792 L180.601716,82.128482 C179.564671,83.3761669 178.174108,84 176.429987,84 C175.125823,84 174.045584,83.6288588 173.189236,82.8865652 C172.332888,82.1442717 171.90472,81.1532457 171.90472,79.9134575 C171.90472,78.6736693 172.360385,77.7458163 173.271728,77.1298705 C174.183071,76.5139248 175.416508,76.2059566 176.972076,76.2059566 L180.389595,76.2059566 L180.389595,75.7321545 C180.389595,74.0580457 179.462553,73.2210038 177.608441,73.2210038 C176.445693,73.2210038 175.235825,73.6474213 173.978801,74.5002693 L172.800346,72.8419621 C174.324488,71.6258642 176.052871,71.0178243 177.985547,71.0178243 C179.462551,71.0178243 180.668491,71.3929138 181.603403,72.1431041 C182.538315,72.8932945 183.005764,74.0738394 183.005764,75.6847743 L183.005764,83.8104792 Z M180.366025,79.1198391 L180.366025,78.0537845 L177.396319,78.0537845 C175.49507,78.0537845 174.544459,78.6539277 174.544459,79.8542322 C174.544459,80.4701779 174.780148,80.9400269 175.251532,81.2637933 C175.722916,81.5875596 176.378916,81.7494403 177.219551,81.7494403 C178.060187,81.7494403 178.794749,81.5125417 179.423262,81.0387373 C180.051774,80.5649329 180.366025,79.9253066 180.366025,79.1198391 L180.366025,79.1198391 Z M198.276574,77.4378419 C198.276574,79.3804399 197.683424,80.9597642 196.497107,82.1758622 C195.31079,83.3919601 193.928084,84 192.348946,84 C190.769809,84 189.351749,83.3050973 188.094725,81.9152711 L188.094725,83.8104792 L185.454986,83.8104792 L185.454986,67 L188.094725,67 L188.094725,73.4105246 C189.13177,71.8153831 190.490908,71.0178243 192.172178,71.0178243 C193.853449,71.0178243 195.291149,71.6021743 196.485323,72.7708918 C197.679496,73.9396094 198.276574,75.4952438 198.276574,77.4378419 Z M189.131765,80.4820199 C189.854554,81.2480037 190.734458,81.6309898 191.771504,81.6309898 C192.808549,81.6309898 193.712022,81.251952 194.48195,80.493865 C195.251877,79.7357779 195.636835,78.7526485 195.636835,77.5444473 C195.636835,76.3362461 195.259733,75.3333752 194.505519,74.5358044 C193.751304,73.7382337 192.847831,73.3394543 191.795073,73.3394543 C190.742314,73.3394543 189.854554,73.7382337 189.131765,74.5358044 C188.408976,75.3333752 188.047587,76.3322978 188.047587,77.5326023 C188.047587,78.7329067 188.408976,79.7160361 189.131765,80.4820199 L189.131765,80.4820199 Z M205.840289,81.6309898 C206.987325,81.6309898 207.934007,81.2480037 208.680365,80.4820199 C209.426724,79.7160361 209.799898,78.7250101 209.799898,77.5089122 C209.799898,76.2928142 209.426724,75.3017882 208.680365,74.5358044 C207.934007,73.7698206 206.987325,73.3868345 205.840289,73.3868345 C204.693254,73.3868345 203.746572,73.7698206 203.000213,74.5358044 C202.253855,75.3017882 201.880681,76.2928142 201.880681,77.5089122 C201.880681,78.7250101 202.253855,79.7160361 203.000213,80.4820199 C203.746572,81.2480037 204.693254,81.6309898 205.840289,81.6309898 L205.840289,81.6309898 Z M205.840289,84 C203.954752,84 202.383495,83.3722186 201.12647,82.1166369 C199.869446,80.8610553 199.240943,79.3251624 199.240943,77.5089122 C199.240943,75.692662 199.869446,74.1567691 201.12647,72.9011874 C202.383495,71.6456057 203.954752,71.0178243 205.840289,71.0178243 C207.725827,71.0178243 209.297084,71.6456057 210.554109,72.9011874 C211.811133,74.1567691 212.439636,75.692662 212.439636,77.5089122 C212.439636,79.3251624 211.811133,80.8610553 210.554109,82.1166369 C209.297084,83.3722186 207.725827,84 205.840289,84 L205.840289,84 Z M216.208727,71.2073451 L218.895604,75.3531129 L221.676758,71.2073451 L224.811447,71.2073451 L220.427595,77.3667716 L225,83.8104792 L221.747465,83.8104792 L218.75419,79.6173312 L215.831622,83.8104792 L212.74407,83.8104792 L217.198629,77.3904617 L212.979761,71.2073451 L216.208727,71.2073451 Z" id="nairabox" fill="#FFFFFF"></path>
        <path d="M98.5439453,53 L89.7460938,53 L89.7460938,27.2509766 L85.4599609,27.2509766 L85.4599609,18.4853516 L89.7460938,18.4853516 L89.7460938,16.8417969 C89.7460938,14.7148331 90.1489218,12.7168062 90.9545898,10.8476562 C91.7602579,8.97850628 92.8666922,7.35108115 94.2739258,5.96533203 C95.6811594,4.57958292 97.3193266,3.48389075 99.1884766,2.67822266 C101.057627,1.87255457 103.055653,1.46972656 105.182617,1.46972656 L111.789062,1.46972656 L111.789062,10.2353516 L105.182617,10.2353516 C104.2373,10.2353516 103.36182,10.4018538 102.556152,10.7348633 C101.750484,11.0678728 101.052249,11.5297822 100.461426,12.1206055 C99.8706025,12.7114287 99.403322,13.4096639 99.0595703,14.215332 C98.7158186,15.0210001 98.5439453,15.8964796 98.5439453,16.8417969 L98.5439453,18.4853516 L109.339844,18.4853516 L109.339844,27.2509766 L98.5439453,27.2509766 L98.5439453,53 Z M146.207031,35.4365234 C146.207031,38.0146613 145.745122,40.4155162 144.821289,42.6391602 C143.897456,44.8628041 142.640633,46.7856364 141.050781,48.4077148 C139.46093,50.0297933 137.597179,51.3081008 135.459473,52.2426758 C133.321767,53.1772508 131.028333,53.6445312 128.579102,53.6445312 C126.151355,53.6445312 123.868663,53.1772508 121.730957,52.2426758 C119.593251,51.3081008 117.724129,50.0297933 116.123535,48.4077148 C114.522941,46.7856364 113.260747,44.8628041 112.336914,42.6391602 C111.413081,40.4155162 110.951172,38.0146613 110.951172,35.4365234 C110.951172,32.8154166 111.413081,30.3877065 112.336914,28.1533203 C113.260747,25.9189341 114.522941,23.9907308 116.123535,22.3686523 C117.724129,20.7465739 119.593251,19.4736374 121.730957,18.5498047 C123.868663,17.6259719 126.151355,17.1640625 128.579102,17.1640625 C131.028333,17.1640625 133.321767,17.5991167 135.459473,18.4692383 C137.597179,19.3393598 139.46093,20.574699 141.050781,22.175293 C142.640633,23.7758869 143.897456,25.6987192 144.821289,27.9438477 C145.745122,30.1889761 146.207031,32.6865097 146.207031,35.4365234 Z M137.344727,35.4365234 C137.344727,34.0185476 137.113772,32.734869 136.651855,31.5854492 C136.189939,30.4360294 135.561527,29.447758 134.766602,28.6206055 C133.971676,27.7934529 133.042486,27.1596702 131.979004,26.7192383 C130.915522,26.2788064 129.782233,26.0585938 128.579102,26.0585938 C127.375971,26.0585938 126.242681,26.2788064 125.179199,26.7192383 C124.115717,27.1596702 123.191898,27.7934529 122.407715,28.6206055 C121.623531,29.447758 121.005862,30.4360294 120.554688,31.5854492 C120.103513,32.734869 119.87793,34.0185476 119.87793,35.4365234 C119.87793,36.7685613 120.103513,38.0039006 120.554688,39.1425781 C121.005862,40.2812557 121.623531,41.2695271 122.407715,42.1074219 C123.191898,42.9453167 124.115717,43.6059546 125.179199,44.0893555 C126.242681,44.5727563 127.375971,44.8144531 128.579102,44.8144531 C129.782233,44.8144531 130.915522,44.5888694 131.979004,44.1376953 C133.042486,43.6865212 133.971676,43.0527385 134.766602,42.2363281 C135.561527,41.4199178 136.189939,40.4316464 136.651855,39.2714844 C137.113772,38.1113223 137.344727,36.8330148 137.344727,35.4365234 Z M184.427734,35.4365234 C184.427734,38.0146613 183.965825,40.4155162 183.041992,42.6391602 C182.118159,44.8628041 180.861336,46.7856364 179.271484,48.4077148 C177.681633,50.0297933 175.817882,51.3081008 173.680176,52.2426758 C171.54247,53.1772508 169.249036,53.6445312 166.799805,53.6445312 C164.372058,53.6445312 162.089366,53.1772508 159.95166,52.2426758 C157.813954,51.3081008 155.944832,50.0297933 154.344238,48.4077148 C152.743644,46.7856364 151.48145,44.8628041 150.557617,42.6391602 C149.633784,40.4155162 149.171875,38.0146613 149.171875,35.4365234 C149.171875,32.8154166 149.633784,30.3877065 150.557617,28.1533203 C151.48145,25.9189341 152.743644,23.9907308 154.344238,22.3686523 C155.944832,20.7465739 157.813954,19.4736374 159.95166,18.5498047 C162.089366,17.6259719 164.372058,17.1640625 166.799805,17.1640625 C169.249036,17.1640625 171.54247,17.5991167 173.680176,18.4692383 C175.817882,19.3393598 177.681633,20.574699 179.271484,22.175293 C180.861336,23.7758869 182.118159,25.6987192 183.041992,27.9438477 C183.965825,30.1889761 184.427734,32.6865097 184.427734,35.4365234 Z M175.56543,35.4365234 C175.56543,34.0185476 175.334475,32.734869 174.872559,31.5854492 C174.410642,30.4360294 173.782231,29.447758 172.987305,28.6206055 C172.192379,27.7934529 171.263189,27.1596702 170.199707,26.7192383 C169.136225,26.2788064 168.002936,26.0585938 166.799805,26.0585938 C165.596674,26.0585938 164.463384,26.2788064 163.399902,26.7192383 C162.33642,27.1596702 161.412602,27.7934529 160.628418,28.6206055 C159.844234,29.447758 159.226565,30.4360294 158.775391,31.5854492 C158.324216,32.734869 158.098633,34.0185476 158.098633,35.4365234 C158.098633,36.7685613 158.324216,38.0039006 158.775391,39.1425781 C159.226565,40.2812557 159.844234,41.2695271 160.628418,42.1074219 C161.412602,42.9453167 162.33642,43.6059546 163.399902,44.0893555 C164.463384,44.5727563 165.596674,44.8144531 166.799805,44.8144531 C168.002936,44.8144531 169.136225,44.5888694 170.199707,44.1376953 C171.263189,43.6865212 172.192379,43.0527385 172.987305,42.2363281 C173.782231,41.4199178 174.410642,40.4316464 174.872559,39.2714844 C175.334475,38.1113223 175.56543,36.8330148 175.56543,35.4365234 Z M222.648438,53 L220.521484,53 L217.105469,48.2626953 C216.267574,49.0146522 215.381352,49.7182584 214.446777,50.3735352 C213.512202,51.0288119 212.529302,51.5981421 211.498047,52.081543 C210.466792,52.5649438 209.408697,52.9462877 208.32373,53.2255859 C207.238764,53.5048842 206.137701,53.6445312 205.020508,53.6445312 C202.592761,53.6445312 200.310069,53.1879928 198.172363,52.2749023 C196.034657,51.3618118 194.165535,50.0942464 192.564941,48.472168 C190.964347,46.8500895 189.702153,44.9272572 188.77832,42.7036133 C187.854488,40.4799694 187.392578,38.0576303 187.392578,35.4365234 C187.392578,32.8369011 187.854488,30.419933 188.77832,28.1855469 C189.702153,25.9511607 190.964347,24.0175863 192.564941,22.3847656 C194.165535,20.751945 196.034657,19.4736374 198.172363,18.5498047 C200.310069,17.6259719 202.592761,17.1640625 205.020508,17.1640625 C205.793949,17.1640625 206.594234,17.228515 207.421387,17.3574219 C208.248539,17.4863288 209.054195,17.6957993 209.838379,17.9858398 C210.622563,18.2758804 211.358395,18.6572242 212.045898,19.1298828 C212.733402,19.6025414 213.313474,20.1826137 213.786133,20.8701172 L213.786133,4.75683594 L222.648438,4.75683594 L222.648438,53 Z M213.786133,35.4365234 C213.786133,34.2333924 213.555178,33.0678767 213.093262,31.9399414 C212.631345,30.8120061 212.002934,29.8129926 211.208008,28.9428711 C210.413082,28.0727496 209.483892,27.3745144 208.42041,26.8481445 C207.356928,26.3217747 206.223639,26.0585938 205.020508,26.0585938 C203.817377,26.0585938 202.684087,26.2734354 201.620605,26.703125 C200.557124,27.1328146 199.633305,27.7504843 198.849121,28.5561523 C198.064937,29.3618204 197.447268,30.3447208 196.996094,31.5048828 C196.54492,32.6650449 196.319336,33.9755786 196.319336,35.4365234 C196.319336,36.7041079 196.54492,37.9072209 196.996094,39.0458984 C197.447268,40.184576 198.064937,41.1835895 198.849121,42.0429688 C199.633305,42.902348 200.557124,43.5790991 201.620605,44.0732422 C202.684087,44.5673853 203.817377,44.8144531 205.020508,44.8144531 C206.223639,44.8144531 207.356928,44.5512722 208.42041,44.0249023 C209.483892,43.4985325 210.413082,42.8002973 211.208008,41.9301758 C212.002934,41.0600542 212.631345,40.0610408 213.093262,38.9331055 C213.555178,37.8051701 213.786133,36.6396545 213.786133,35.4365234 Z" id="food" fill="#FFFFFF"></path>
        <path d="M24.6359298,37.0298693 C24.3957484,37.05015 24.156144,37.06058 23.9159626,37.06058 C23.2588972,37.06058 22.6198369,36.9648554 21.9940493,36.8194142 L7.51402813,51.3592433 C6.80329418,52.0718471 6.80329418,53.2293502 7.51402813,53.9420699 L11.2615974,57.7059252 C11.9723313,58.4186448 13.1238403,58.4186448 13.8326122,57.7059252 L31.2356682,40.2347901 L28.0104734,36.7407253 L24.6359298,37.0298693 Z M62.7420264,13.7364519 C62.0624549,13.0544429 60.9626524,13.0544429 60.2831962,13.7364519 L50.8994999,23.1583742 C50.0116018,24.0489841 48.5733985,24.0489841 47.6855004,23.1583742 C46.8015265,22.2684597 46.8015265,20.825521 47.6855004,19.9358383 L57.0227995,10.5622418 C57.7282243,9.85323055 57.7282243,8.70383969 57.0227995,7.99320602 C56.3140276,7.28512192 55.1697898,7.28512192 54.464365,7.99320602 L45.1308747,17.3658754 C44.2429767,18.2574124 42.8063892,18.2574124 41.9184911,17.3658754 C41.0324397,16.4763085 41.0324397,15.0323269 41.9184911,14.1434554 L51.3002255,4.72246009 C51.9816437,4.03940809 51.9816437,2.93301219 51.3002255,2.24903307 C50.6206539,1.56586519 49.5188893,1.56586519 48.8374711,2.24903307 L38.2817216,12.8486233 C35.7438313,15.3985373 34.9421492,18.9777808 35.7637983,22.23462 L42.8399754,29.3402614 C46.0832905,30.1622647 49.6496561,29.3569494 52.184661,26.8091214 L62.741911,16.2101106 C63.4234446,15.5270586 63.4234446,14.4195039 62.7420264,13.7364519 Z M11.4680772,3.20697468 C11.1063624,2.84366148 10.6172278,2.64444763 10.1149358,2.64444763 C10.0080603,2.64444763 9.90060764,2.6536029 9.79569417,2.67121808 C9.18456453,2.77505496 8.66022801,3.16896296 8.39084622,3.72963578 C5.29884191,10.1467783 6.59104349,17.8253768 11.6102702,22.8654059 L20.5897785,31.8805566 C21.4757145,32.7711664 22.6736209,33.2641598 23.9159626,33.2641598 C24.0488068,33.2641598 24.1819973,33.2585972 24.3148415,33.2475877 L29.528314,32.8008341 L52.26199,57.4260523 C52.6149332,57.8088349 53.1093769,58.0311108 53.6302509,58.0414249 L53.6634909,58.0414249 C54.1727078,58.0414249 54.6602266,57.8394297 55.0220568,57.478782 L58.9155124,53.5685585 C59.2752652,53.2081425 59.4763205,52.7189734 59.4763205,52.209176 C59.4763205,51.6994945 59.2752652,51.2099778 58.9170128,50.8495618 L11.4680772,3.20697468 Z" id="Combined-Shape" fill="#FFFFFF"></path>
        <path d="M83.4765308,78.3336872 C83.4765308,79.2559667 83.3135972,80.1105995 82.9877251,80.8976114 C82.661853,81.6846232 82.2099429,82.370174 81.631981,82.9542844 C81.0540192,83.5383947 80.3653942,83.9964533 79.5660853,84.3284739 C78.7667764,84.6604946 77.8936983,84.8265024 76.9468246,84.8265024 C76.3688628,84.8265024 75.8431714,84.7742406 75.3697346,84.6697156 C74.8962978,84.5651906 74.4997236,84.4329992 74.18,84.2731374 L76.5225782,70.9554882 L78.182673,70.9554882 L77.1312796,76.9502749 C77.4878944,76.2862336 77.945953,75.7605422 78.5054692,75.3731848 C79.0649854,74.9858274 79.6952003,74.7921517 80.3961327,74.7921517 C80.8388269,74.7921517 81.247698,74.8782298 81.6227583,75.0503886 C81.9978186,75.2225475 82.3236858,75.4654108 82.6003697,75.7789858 C82.8770535,76.0925608 83.0922488,76.4645413 83.2459621,76.8949384 C83.3996753,77.3253355 83.4765308,77.8049136 83.4765308,78.3336872 Z M79.9718863,76.2309005 C79.6398656,76.2309005 79.2955531,76.3139044 78.9389384,76.4799147 C78.5823237,76.645925 78.2441596,76.9226047 77.924436,77.3099621 C77.6047125,77.6973195 77.3095875,78.2045656 77.0390521,78.8317156 C76.7685168,79.4588657 76.5533215,80.2335688 76.3934597,81.1558483 L76.0245498,83.2032986 C76.2213027,83.2524868 76.4272754,83.2893774 76.6424739,83.3139716 C76.8576725,83.3385657 77.0882389,83.3508626 77.3341801,83.3508626 C77.9613301,83.3508626 78.548506,83.2278938 79.0957251,82.9819526 C79.6429443,82.7360114 80.1132998,82.3978473 80.5068057,81.9674502 C80.9003116,81.5370531 81.2108077,81.029807 81.4383033,80.4456967 C81.6657989,79.8615863 81.779545,79.2313715 81.779545,78.5550332 C81.779545,77.8418037 81.6135372,77.2761474 81.2815166,76.8580474 C80.949496,76.4399474 80.5129569,76.2309005 79.9718863,76.2309005 Z M87.9403412,83.1295166 C88.2846589,83.1295166 88.6289714,83.0465127 88.9732891,82.8805024 C89.3176068,82.7144921 89.6403998,82.4716288 89.9416777,82.1519052 C90.2429557,81.8321817 90.5042643,81.4386816 90.7256114,80.9713934 C90.9469585,80.5041051 91.1129663,79.969191 91.2236398,79.3666351 L91.9799052,75.0134976 L93.64,75.0134976 L91.9614597,84.7158294 C91.813895,85.5643265 91.5864028,86.2560258 91.2789763,86.7909479 C90.9715498,87.32587 90.6210889,87.7501122 90.2275829,88.0636872 C89.834077,88.3772622 89.4159833,88.5924576 88.9732891,88.7092796 C88.5305949,88.8261017 88.0940559,88.8845118 87.6636588,88.8845118 C86.8274587,88.8845118 86.1173141,88.7154298 85.5332038,88.3772607 C84.9490934,88.0390915 84.4725895,87.6363688 84.1036777,87.1690806 L85.3948626,86.2099147 C85.9974185,87.0338177 86.790567,87.445763 87.7743318,87.445763 C88.3891847,87.445763 88.9302473,87.2182708 89.3975355,86.7632796 C89.8648238,86.3082884 90.1968395,85.5335853 90.3935924,84.4391469 L90.7440569,82.4839242 C90.3751451,83.074183 89.9078638,83.5752807 89.3421991,83.9872322 C88.7765343,84.3991837 88.1247999,84.6051564 87.3869763,84.6051564 C87.0180645,84.6051564 86.673752,84.543672 86.3540284,84.4207014 C86.0343049,84.2977308 85.7514767,84.1194261 85.5055355,83.885782 C85.2595943,83.6521379 85.0659186,83.3693097 84.9245024,83.0372891 C84.7830862,82.7052685 84.7123791,82.3302138 84.7123791,81.9121137 C84.7123791,81.7768461 84.7185276,81.6231351 84.7308246,81.4509763 C84.7431217,81.2788175 84.761567,81.0943643 84.7861611,80.8976114 L85.782218,75.0134976 L87.4423128,75.0134976 L86.4278104,80.8607204 C86.3909192,81.0820675 86.3724739,81.2911143 86.3724739,81.4878673 C86.3724739,82.041235 86.5261849,82.4531803 86.8336114,82.7237156 C87.1410379,82.994251 87.5099441,83.1295166 87.9403412,83.1295166 Z" id="by" fill="#FFFFFF" opacity="0.699999988"></path>
    </g>
</svg>