<?xml version="1.0" encoding="UTF-8"?>
<svg width="750px" height="450px" viewBox="0 0 750 450" version="1.1" xmlns="http://www.w3.org/2000/svg" xmlns:xlink="http://www.w3.org/1999/xlink">
    <!-- Generator: Sketch 41 (35326) - http://www.bohemiancoding.com/sketch -->
    <title>Rectangle</title>
    <desc>Created with Sketch.</desc>
    <defs></defs>
    <g id="Page-1" stroke="none" stroke-width="1" fill="none" fill-rule="evenodd">
        <rect id="Rectangle" fill="#A1A1A1" x="0" y="0" width="750" height="450"></rect>
        <g id="Group" transform="translate(227.000000, 131.000000)" fill="#FFFFFF">
            <path d="M0,137 C0,130.26349 5.45830304,124.802469 12.1967228,124.802469 L141.803277,124.802469 C148.539341,124.802469 154,130.262009 154,137 C154,143.73651 148.541697,149.197531 141.803277,149.197531 L12.1967228,149.197531 C5.4606588,149.197531 0,143.737991 0,137 Z M77,85 C34.610906,85 16.0335704,98.9254829 10.0320875,114.530864 L143.967913,114.530864 C137.96643,98.9254829 119.389094,85 77,85 Z M143.967913,159.469136 C137.96643,175.074517 119.389094,189 77,189 C34.610906,189 16.0335704,175.074517 10.0320875,159.469136 L143.967913,159.469136 L143.967913,159.469136 Z" id="Combined-Shape" opacity="0.699999988"></path>
            <path d="M295.300832,7.04730571 C297.067763,5.85501978 297.531628,3.4590241 296.336904,1.69569958 C295.142179,-0.0676249378 292.741283,-0.530543177 290.974351,0.661742757 L249.135791,28.8934738 C248.512545,29.3140266 248.025956,29.9070896 247.735796,30.5998137 L185.299791,179.658417 C184.477173,181.622321 185.405624,183.879882 187.373545,184.700821 C189.341466,185.52176 191.603644,184.595204 192.426262,182.6313 L254.417533,34.6344477 L295.300832,7.04730571 Z" id="Line" opacity="0.826822917"></path>
            <polygon id="Rectangle-3" opacity="0.600000024" points="156 48 252 48 239.2 189 168.8 189"></polygon>
            <polygon id="Combined-Shape" opacity="0.826822917" points="235.714295 185 172.285705 185 166 116 242 116"></polygon>
            <path d="M154.142875,79.9935707 C153.929099,79.9978501 153.714801,80 153.5,80 C145.32554,80 137.878315,76.8864239 132.279624,71.7805406 L154.142875,49.917891 L154.142875,79.9935707 Z M155.814349,79.9162784 C163.814516,79.335361 170.985997,75.7668099 176.218204,70.3211846 L155.814349,49.917891 L155.814349,79.9162784 Z M177.345235,69.0844276 C182.067846,63.6188699 184.942934,56.5125744 185,48.7360125 L156.99626,48.7360125 L177.345235,69.0844276 Z M184.968741,47.0645693 C184.627473,39.45562 181.586703,32.5492582 176.78118,27.2802075 L156.99626,47.0645839 L184.968742,47.0645839 Z M175.622455,26.075144 C170.447862,20.9701777 163.515004,17.6428905 155.814349,17.0837216 L155.814349,45.8827054 L175.622455,26.075144 Z M154.142875,17.0064293 C153.929099,17.0021499 153.714801,17 153.5,17 C145.631033,17 138.43596,19.8852061 132.915007,24.6554207 L154.142875,45.8827054 L154.142875,17.0064293 Z M131.678216,25.7824207 C126.033759,31.2053675 122.405896,38.7116169 122.031259,47.0645693 L152.960964,47.0645839 L131.678216,25.7824207 Z M122,48.7360125 C122.06258,57.2639455 125.514043,64.9858327 131.074528,70.6218471 L152.960964,48.7360125 L122,48.7360125 Z" id="Combined-Shape" opacity="0.5" transform="translate(153.500000, 48.500000) rotate(-5.000000) translate(-153.500000, -48.500000) "></path>
            <path d="M156.430323,81.9937507 C174.928411,80.3753777 188.612124,64.0677642 186.993751,45.5696765 C185.375378,27.0715888 169.067764,13.3878763 150.569677,15.0062493 C132.071589,16.6246223 118.387876,32.9322358 120.006249,51.4303235 C121.624622,69.9284112 137.932236,83.6121237 156.430323,81.9937507 Z M156.768143,85.8550511 C136.137518,87.6599969 117.949895,72.3987685 116.144949,51.7681435 C114.340003,31.1375185 129.601231,12.9498947 150.231857,11.1449489 C170.862482,9.3400031 189.050105,24.6012315 190.855051,45.2318565 C192.659997,65.8624815 177.398769,84.0501053 156.768143,85.8550511 Z" id="Combined-Shape-Copy-2" opacity="0.300000012"></path>
        </g>
    </g>
</svg>