<?xml version="1.0" encoding="UTF-8"?>
<svg width="750px" height="330px" viewBox="0 0 750 330" version="1.1" xmlns="http://www.w3.org/2000/svg" xmlns:xlink="http://www.w3.org/1999/xlink">
    <!-- Generator: Sketch 41 (35326) - http://www.bohemiancoding.com/sketch -->
    <title>Rectangle</title>
    <desc>Created with Sketch.</desc>
    <defs></defs>
    <g id="Page-1" stroke="none" stroke-width="1" fill="none" fill-rule="evenodd">
        <rect id="Rectangle" fill="#67AA62" x="0" y="0" width="750" height="330"></rect>
        <path d="M260,198.5 C260,193.253295 264.253223,189 269.491384,189 L370.508616,189 C375.750562,189 380,193.252141 380,198.5 C380,203.746705 375.746777,208 370.508616,208 L269.491384,208 C264.249438,208 260,203.747859 260,198.5 Z M320,158 C286.969537,158 272.493691,168.845809 267.817211,181 L372.182789,181 C367.506309,168.845809 353.030463,158 320,158 Z M372.182789,216 C367.506309,228.154191 353.030463,239 320,239 C286.969537,239 272.493691,228.154191 267.817211,216 L372.182789,216 L372.182789,216 Z" id="Combined-Shape" fill="#FFFFFF" opacity="0.699999988"></path>
        <path d="M489.680395,97.4852107 C491.052939,96.5571542 491.413267,94.6921489 490.485211,93.3196049 C489.557154,91.9470609 487.692149,91.5867327 486.319605,92.5147893 L453.819605,114.489923 C453.33547,114.817275 452.95749,115.278906 452.732095,115.818111 L404.232095,231.842977 C403.593089,233.371649 404.314306,235.128899 405.842977,235.767905 C407.371649,236.406911 409.128899,235.685694 409.767905,234.157023 L457.922437,118.958607 L489.680395,97.4852107 Z" id="Line" fill="#FFFFFF" opacity="0.826822917"></path>
        <polygon id="Rectangle-3" fill="#FFFFFF" opacity="0.600000024" points="381 129 456 129 446 239 391 239"></polygon>
        <polygon id="Combined-Shape" fill="#FFFFFF" opacity="0.826822917" points="443.723186 236 394.185904 236 389.276814 182 448.632277 182"></polygon>
        <path d="M380,153.994999 C379.833734,153.998328 379.667062,154 379.5,154 C373.142262,154 367.350135,151.57833 362.995717,147.607087 L380,130.602804 L380,153.994999 Z M381.3,153.934883 C387.522181,153.483059 393.099846,150.707519 397.169228,146.472032 L381.3,130.602804 L381.3,153.934883 Z M398.045784,145.51011 C401.718825,141.259121 403.954943,135.732002 403.999327,129.683565 L382.219239,129.683565 L398.045784,145.51011 Z M403.975015,128.383554 C403.709592,122.465482 401.344613,117.093867 397.607087,112.995717 L382.219239,128.383565 L403.975015,128.383565 Z M396.705881,112.058445 C392.681308,108.087916 387.289234,105.500026 381.3,105.065117 L381.3,127.464326 L396.705881,112.058445 Z M380,105.005001 C379.833734,105.001672 379.667062,105 379.5,105 C373.37986,105 367.783846,107.244049 363.48989,110.954216 L380,127.464326 L380,105.005001 Z M362.527968,111.830772 C358.137956,116.048619 355.316361,121.886813 355.024985,128.383554 L379.080761,128.383565 L362.527968,111.830772 Z M355.000673,129.683565 C355.049345,136.316402 357.733743,142.322314 362.058445,146.705881 L379.080761,129.683565 L355.000673,129.683565 Z" id="Combined-Shape" fill="#FFFFFF" opacity="0.5" transform="translate(379.500000, 129.500000) rotate(-5.000000) translate(-379.500000, -129.500000) "></path>
        <path d="M381.768023,155.423622 C396.085244,154.171027 406.676216,141.549198 405.423622,127.231977 C404.171027,112.914756 391.549198,102.323784 377.231977,103.576378 C362.914756,104.828973 352.323784,117.450802 353.576378,131.768023 C354.828973,146.085244 367.450802,156.676216 381.768023,155.423622 Z M382.02949,158.412206 C366.06172,159.809205 351.984793,147.997261 350.587794,132.02949 C349.190795,116.06172 361.002739,101.984793 376.97051,100.587794 C392.93828,99.1907953 407.015207,111.002739 408.412206,126.97051 C409.809205,142.93828 397.997261,157.015207 382.02949,158.412206 Z" id="Combined-Shape-Copy-2" fill="#FFFFFF" opacity="0.300000012"></path>
    </g>
</svg>