<?xml version="1.0" encoding="UTF-8"?>
<svg width="165px" height="43px" viewBox="0 0 165 43" version="1.1" xmlns="http://www.w3.org/2000/svg" xmlns:xlink="http://www.w3.org/1999/xlink">
    <!-- Generator: Sketch 41.1 (35376) - http://www.bohemiancoding.com/sketch -->
    <title>Group 3</title>
    <desc>Created with Sketch.</desc>
    <defs></defs>
    <g id="Page-1" stroke="none" stroke-width="1" fill="none" fill-rule="evenodd">
        <g id="Food-Start" transform="translate(-291.000000, -79.000000)" fill="#FFFFFF">
            <g id="Group-3" transform="translate(291.000000, 78.000000)">
                <path d="M74.4375,39 L68.0390625,39 L68.0390625,20.2734375 L64.921875,20.2734375 L64.921875,13.8984375 L68.0390625,13.8984375 L68.0390625,12.703125 C68.0390625,11.1562423 68.3320283,9.7031318 68.9179688,8.34375 C69.5039092,6.9843682 70.3085886,5.80078629 71.3320312,4.79296875 C72.3554739,3.78515121 73.5468682,2.98828418 74.90625,2.40234375 C76.2656318,1.81640332 77.7187423,1.5234375 79.265625,1.5234375 L84.0703125,1.5234375 L84.0703125,7.8984375 L79.265625,7.8984375 C78.5781216,7.8984375 77.9414092,8.01953004 77.3554688,8.26171875 C76.7695283,8.50390746 76.2617209,8.8398416 75.8320312,9.26953125 C75.4023416,9.6992209 75.0625012,10.2070283 74.8125,10.7929688 C74.5624988,11.3789092 74.4375,12.0156216 74.4375,12.703125 L74.4375,13.8984375 L82.2890625,13.8984375 L82.2890625,20.2734375 L74.4375,20.2734375 L74.4375,39 Z M109.101562,26.2265625 C109.101562,28.1015719 108.765628,29.8476482 108.09375,31.4648438 C107.421872,33.0820393 106.507818,34.4804629 105.351562,35.6601562 C104.195307,36.8398496 102.839852,37.7695279 101.285156,38.4492188 C99.730461,39.1289096 98.0625089,39.46875 96.28125,39.46875 C94.5156162,39.46875 92.8554765,39.1289096 91.3007812,38.4492188 C89.746086,37.7695279 88.3867246,36.8398496 87.2226562,35.6601562 C86.0585879,34.4804629 85.1406284,33.0820393 84.46875,31.4648438 C83.7968716,29.8476482 83.4609375,28.1015719 83.4609375,26.2265625 C83.4609375,24.320303 83.7968716,22.5546956 84.46875,20.9296875 C85.1406284,19.3046794 86.0585879,17.9023496 87.2226562,16.7226562 C88.3867246,15.5429629 89.746086,14.6171909 91.3007812,13.9453125 C92.8554765,13.2734341 94.5156162,12.9375 96.28125,12.9375 C98.0625089,12.9375 99.730461,13.2539031 101.285156,13.8867188 C102.839852,14.5195344 104.195307,15.4179629 105.351562,16.5820312 C106.507818,17.7460996 107.421872,19.1445231 108.09375,20.7773438 C108.765628,22.4101644 109.101562,24.2265525 109.101562,26.2265625 Z M102.65625,26.2265625 C102.65625,25.1953073 102.488283,24.2617229 102.152344,23.4257812 C101.816405,22.5898396 101.359378,21.8710968 100.78125,21.2695312 C100.203122,20.6679657 99.5273476,20.2070329 98.7539062,19.8867188 C97.9804649,19.5664046 97.1562544,19.40625 96.28125,19.40625 C95.4062456,19.40625 94.5820351,19.5664046 93.8085938,19.8867188 C93.0351524,20.2070329 92.3632841,20.6679657 91.7929688,21.2695312 C91.2226534,21.8710968 90.7734391,22.5898396 90.4453125,23.4257812 C90.1171859,24.2617229 89.953125,25.1953073 89.953125,26.2265625 C89.953125,27.1953173 90.1171859,28.0937459 90.4453125,28.921875 C90.7734391,29.7500041 91.2226534,30.468747 91.7929688,31.078125 C92.3632841,31.687503 93.0351524,32.167967 93.8085938,32.5195312 C94.5820351,32.8710955 95.4062456,33.046875 96.28125,33.046875 C97.1562544,33.046875 97.9804649,32.8828141 98.7539062,32.5546875 C99.5273476,32.2265609 100.203122,31.765628 100.78125,31.171875 C101.359378,30.578122 101.816405,29.8593792 102.152344,29.015625 C102.488283,28.1718708 102.65625,27.2421926 102.65625,26.2265625 Z M136.898438,26.2265625 C136.898438,28.1015719 136.562503,29.8476482 135.890625,31.4648438 C135.218747,33.0820393 134.304693,34.4804629 133.148438,35.6601562 C131.992182,36.8398496 130.636727,37.7695279 129.082031,38.4492188 C127.527336,39.1289096 125.859384,39.46875 124.078125,39.46875 C122.312491,39.46875 120.652352,39.1289096 119.097656,38.4492188 C117.542961,37.7695279 116.1836,36.8398496 115.019531,35.6601562 C113.855463,34.4804629 112.937503,33.0820393 112.265625,31.4648438 C111.593747,29.8476482 111.257812,28.1015719 111.257812,26.2265625 C111.257812,24.320303 111.593747,22.5546956 112.265625,20.9296875 C112.937503,19.3046794 113.855463,17.9023496 115.019531,16.7226562 C116.1836,15.5429629 117.542961,14.6171909 119.097656,13.9453125 C120.652352,13.2734341 122.312491,12.9375 124.078125,12.9375 C125.859384,12.9375 127.527336,13.2539031 129.082031,13.8867188 C130.636727,14.5195344 131.992182,15.4179629 133.148438,16.5820312 C134.304693,17.7460996 135.218747,19.1445231 135.890625,20.7773438 C136.562503,22.4101644 136.898438,24.2265525 136.898438,26.2265625 Z M130.453125,26.2265625 C130.453125,25.1953073 130.285158,24.2617229 129.949219,23.4257812 C129.61328,22.5898396 129.156253,21.8710968 128.578125,21.2695312 C127.999997,20.6679657 127.324223,20.2070329 126.550781,19.8867188 C125.77734,19.5664046 124.953129,19.40625 124.078125,19.40625 C123.203121,19.40625 122.37891,19.5664046 121.605469,19.8867188 C120.832027,20.2070329 120.160159,20.6679657 119.589844,21.2695312 C119.019528,21.8710968 118.570314,22.5898396 118.242188,23.4257812 C117.914061,24.2617229 117.75,25.1953073 117.75,26.2265625 C117.75,27.1953173 117.914061,28.0937459 118.242188,28.921875 C118.570314,29.7500041 119.019528,30.468747 119.589844,31.078125 C120.160159,31.687503 120.832027,32.167967 121.605469,32.5195312 C122.37891,32.8710955 123.203121,33.046875 124.078125,33.046875 C124.953129,33.046875 125.77734,32.8828141 126.550781,32.5546875 C127.324223,32.2265609 127.999997,31.765628 128.578125,31.171875 C129.156253,30.578122 129.61328,29.8593792 129.949219,29.015625 C130.285158,28.1718708 130.453125,27.2421926 130.453125,26.2265625 Z M164.695312,39 L163.148438,39 L160.664062,35.5546875 C160.054684,36.1015652 159.41016,36.6132789 158.730469,37.0898438 C158.050778,37.5664086 157.335941,37.980467 156.585938,38.3320312 C155.835934,38.6835955 155.06641,38.9609365 154.277344,39.1640625 C153.488277,39.3671885 152.687504,39.46875 151.875,39.46875 C150.109366,39.46875 148.449227,39.1367221 146.894531,38.4726562 C145.339836,37.8085904 143.980475,36.8867246 142.816406,35.7070312 C141.652338,34.5273379 140.734378,33.1289143 140.0625,31.5117188 C139.390622,29.8945232 139.054688,28.132822 139.054688,26.2265625 C139.054688,24.335928 139.390622,22.5781331 140.0625,20.953125 C140.734378,19.3281169 141.652338,17.9218809 142.816406,16.734375 C143.980475,15.5468691 145.339836,14.6171909 146.894531,13.9453125 C148.449227,13.2734341 150.109366,12.9375 151.875,12.9375 C152.437503,12.9375 153.019528,12.9843745 153.621094,13.078125 C154.222659,13.1718755 154.808591,13.3242177 155.378906,13.5351562 C155.949222,13.7460948 156.484373,14.0234358 156.984375,14.3671875 C157.484377,14.7109392 157.906248,15.13281 158.25,15.6328125 L158.25,3.9140625 L164.695312,3.9140625 L164.695312,39 Z M158.25,26.2265625 C158.25,25.3515581 158.082033,24.5039104 157.746094,23.6835938 C157.410155,22.8632771 156.953128,22.1367219 156.375,21.5039062 C155.796872,20.8710906 155.121098,20.3632832 154.347656,19.9804688 C153.574215,19.5976543 152.750004,19.40625 151.875,19.40625 C150.999996,19.40625 150.175785,19.5624984 149.402344,19.875 C148.628902,20.1875016 147.957034,20.6367158 147.386719,21.2226562 C146.816403,21.8085967 146.367189,22.5234333 146.039062,23.3671875 C145.710936,24.2109417 145.546875,25.1640572 145.546875,26.2265625 C145.546875,27.1484421 145.710936,28.0234334 146.039062,28.8515625 C146.367189,29.6796916 146.816403,30.4062469 147.386719,31.03125 C147.957034,31.6562531 148.628902,32.1484357 149.402344,32.5078125 C150.175785,32.8671893 150.999996,33.046875 151.875,33.046875 C152.750004,33.046875 153.574215,32.8554707 154.347656,32.4726562 C155.121098,32.0898418 155.796872,31.5820344 156.375,30.9492188 C156.953128,30.3164031 157.410155,29.5898479 157.746094,28.7695312 C158.082033,27.9492146 158.25,27.1015669 158.25,26.2265625 Z" id="food"></path>
                <path d="M14.6038165,27.8356451 C14.4211136,27.8510724 14.2388497,27.8590064 14.0561468,27.8590064 C13.5563258,27.8590064 13.070201,27.7861899 12.5941726,27.6755547 L1.57941017,38.7358122 C1.03876416,39.2778806 1.03876416,40.1583781 1.57941017,40.7005346 L4.43013699,43.5636499 C4.97078299,44.1058065 5.84672083,44.1058065 6.3858743,43.5636499 L19.624151,30.2735864 L17.1707876,27.6156971 L14.6038165,27.8356451 Z M43.5906249,10.1166477 C43.0736837,9.59785235 42.2370784,9.59785235 41.720225,10.1166477 L34.5821701,17.2837806 C33.9067577,17.9612558 32.8127353,17.9612558 32.1373229,17.2837806 C31.4648955,16.6068342 31.4648955,15.5092097 32.1373229,14.8324397 L39.2400839,7.70206763 C39.7766913,7.16273208 39.7766913,6.28840552 39.2400839,5.74783579 C38.7009304,5.20920549 37.8305237,5.20920549 37.2939163,5.74783579 L30.1940525,12.8775026 C29.5186401,13.5556831 28.4258469,13.5556831 27.7504344,12.8775026 C27.0764268,12.2008207 27.0764268,11.1024028 27.7504344,10.4262499 L34.8869968,3.25982221 C35.4053427,2.7402335 35.4053427,1.89861264 34.8869968,1.37831869 C34.3700557,0.858641825 33.5319578,0.858641825 33.0136119,1.37831869 L24.9839915,9.44128812 C23.0534516,11.3809743 22.4436225,14.1036579 23.0686402,16.5810928 L28.4513954,21.9862611 C30.9185428,22.6115483 33.6314303,21.9989555 35.5597754,20.0608561 L43.5905371,11.9983275 C44.1089708,11.4787388 44.1089708,10.6362364 43.5906249,10.1166477 Z M4.58720352,2.10701232 C4.31205175,1.83064472 3.93997352,1.67910536 3.55788657,1.67910536 C3.47658774,1.67910536 3.39484993,1.68606965 3.31504363,1.69946929 C2.85016532,1.77845665 2.4513094,2.0780973 2.2463942,2.50459377 C-0.105652967,7.38603005 0.877307843,13.2270393 4.69536784,17.0609234 L11.5259622,23.9186304 C12.1998821,24.5961057 13.1111138,24.9711193 14.0561468,24.9711193 C14.1571997,24.9711193 14.2585159,24.9668878 14.3595688,24.958513 L18.325389,24.6186735 L35.6185985,43.3507543 C35.8870778,43.6419321 36.2631946,43.8110144 36.6594167,43.8188602 L36.6847019,43.8188602 C37.0720565,43.8188602 37.4429056,43.6652051 37.7181452,43.3908651 L40.6798458,40.4164093 C40.953505,40.1422456 41.1064452,39.7701411 41.1064452,39.3823449 C41.1064452,38.9946369 40.953505,38.6222679 40.6809872,38.3481042 L4.58720352,2.10701232 Z" id="Combined-Shape"></path>
            </g>
        </g>
    </g>
</svg>