<?xml version="1.0" encoding="UTF-8" standalone="no"?>
<svg width="48px" height="48px" viewBox="0 0 48 48" version="1.1" xmlns="http://www.w3.org/2000/svg" xmlns:xlink="http://www.w3.org/1999/xlink">
    <!-- Generator: Sketch 3.8.3 (29802) - http://www.bohemiancoding.com/sketch -->
    <title>44594</title>
    <desc>Created with Sketch.</desc>
    <defs></defs>
    <g id="Page-1" stroke="none" stroke-width="1" fill="none" fill-rule="evenodd">
        <path d="M23.5080143,9.6081475 C18.8359829,9.6081475 15.0348623,13.3804434 15.0348623,18.0173742 L15.0348623,22.8200992 C15.0348623,22.8746762 14.967001,22.9666367 14.9136921,22.9842231 C14.4554925,23.1358695 14.0833694,23.2672767 13.7427267,23.3976032 C13.3364997,23.5530322 13.0301094,23.9998167 13.0301094,24.4369238 L13.0301094,35.4722316 C13.0301094,35.9063421 13.3345198,36.3535196 13.7381729,36.512289 C16.8613246,37.7405412 20.148363,38.3631904 23.5079648,38.3631904 C26.8675667,38.3631904 30.154605,37.7403939 33.2779052,36.5121417 C33.6814099,36.3534214 33.9856718,35.9063421 33.9856718,35.4722316 L33.9856718,24.4369238 C33.9856718,23.9998167 33.679331,23.5530322 33.272906,23.3974559 C32.9321148,23.2671294 32.5600411,23.1357222 32.1021881,22.9840758 C32.0490277,22.9664893 31.9811664,22.8744797 31.9811664,22.8199027 L31.9811664,18.0172269 C31.9809189,13.3804434 28.1800457,9.6081475 23.5080143,9.6081475 L23.5080143,9.6081475 Z M21.200138,27.7979028 C21.200138,26.5320215 22.233401,25.5076347 23.5078658,25.5076347 C24.7822317,25.5076347 25.8154947,26.5319232 25.8154947,27.7979028 C25.8154947,28.6366984 25.338882,29.3389779 24.6616555,29.7370803 L24.6616555,33.5236223 C24.6616555,34.1566366 24.1455933,34.6687563 23.5078163,34.6687563 C22.8699899,34.6687563 22.3539772,34.1566366 22.3539772,33.5236223 L22.3539772,29.7370803 C21.6768002,29.3389779 21.200138,28.6366984 21.200138,27.7979028 L21.200138,27.7979028 Z M29.0676372,18.0172269 L29.0676372,22.1610982 C27.2444416,21.7717398 25.3739758,21.5745553 23.5087568,21.5744079 C21.6443792,21.5744079 19.7743094,21.7716416 17.9482925,22.160656 L17.9482925,18.0172269 C17.9482925,14.97472 20.4422799,12.4995975 23.5078658,12.4995975 C26.5734023,12.4995484 29.0676372,14.97472 29.0676372,18.0172269 L29.0676372,18.0172269 Z" id="Shape" fill="#FFFFFF"></path>
    </g>
</svg>