<?xml version="1.0" encoding="UTF-8" standalone="no"?>
<svg width="52px" height="52px" viewBox="0 0 52 52" version="1.1" xmlns="http://www.w3.org/2000/svg" xmlns:xlink="http://www.w3.org/1999/xlink" xmlns:sketch="http://www.bohemiancoding.com/sketch/ns">
    <!-- Generator: Sketch 3.3.3 (12072) - http://www.bohemiancoding.com/sketch -->
    <title>icon</title>
    <desc>Created with Sketch.</desc>
    <defs></defs>
    <g id="Page-1" stroke="none" stroke-width="1" fill="none" fill-rule="evenodd" sketch:type="MSPage">
        <g id="Menu" sketch:type="MSArtboardGroup" transform="translate(-30.000000, -133.000000)">
            <path d="M71.06675,166.859375 C70.925,166.007812 69.735875,164.882812 64.680125,163.039062 C59.703125,161.226562 60.01025,162.109375 60.01025,158.773438 C60.01025,156.609375 61.120625,157.867188 61.829375,153.757812 C62.105,152.140625 62.3255,153.21875 62.924,150.625 C63.239,149.265625 62.711375,149.164062 62.774375,148.515625 C62.837375,147.867188 62.900375,147.289062 63.0185,145.960938 C63.16025,144.320312 61.624625,140 56.12,140 C50.615375,140 49.07975,144.320312 49.229375,145.96875 C49.3475,147.289062 49.4105,147.875 49.4735,148.523438 C49.5365,149.171875 49.008875,149.273438 49.323875,150.632812 C49.922375,153.21875 50.142875,152.140625 50.4185,153.765625 C51.12725,157.875 52.237625,156.617188 52.237625,158.78125 C52.237625,162.125 52.54475,161.242188 47.56775,163.046875 C42.512,164.882812 41.315,166.015625 41.181125,166.867188 C41,167.9375 41,170 41,170 C41,170 47.5598758,176.237891 56.12,176.237891 C64.6801242,176.237891 71.24,170 71.24,170 C71.24,170 71.24,167.9375 71.06675,166.859375 Z" id="icon_account" stroke="#FFFFFF" stroke-width="2" sketch:type="MSShapeGroup"></path>
        </g>
    </g>
</svg>