<?xml version="1.0" encoding="UTF-8" standalone="no"?>
<svg width="158px" height="158px" viewBox="0 0 158 158" version="1.1" xmlns="http://www.w3.org/2000/svg" xmlns:xlink="http://www.w3.org/1999/xlink" xmlns:sketch="http://www.bohemiancoding.com/sketch/ns">
    <!-- Generator: Sketch 3.4.2 (15855) - http://www.bohemiancoding.com/sketch -->
    <title>Shape</title>
    <desc>Created with Sketch.</desc>
    <defs></defs>
    <g id="Page-1" stroke="none" stroke-width="1" fill="none" fill-rule="evenodd" sketch:type="MSPage">
        <path d="M11,18 L11,18 L18,11 L18,146 L11,139 L146,139 L139,146 L139,11 L146,18 L11,18 Z M11,11 L146,11 L146,146 L11,146 L11,11 L11,11 Z" id="Shape" fill="#999999" sketch:type="MSShapeGroup"></path>
        <rect id="Rectangle-1-Copy" fill="#999999" sketch:type="MSShapeGroup" x="11" y="11" width="135" height="40"></rect>
        <path d="M88.46875,72.40625 L88.46875,119 L75.59375,119 L75.59375,88.46875 C73.5104063,90.0520912 71.4948014,91.3333284 69.546875,92.3125 C67.5989486,93.2916716 65.1562647,94.2291622 62.21875,95.125 L62.21875,84.6875 C66.552105,83.2916597 69.9166547,81.6145931 72.3125,79.65625 C74.7083453,77.6979069 76.5833266,75.2812644 77.9375,72.40625 L88.46875,72.40625 Z" id="1" fill="#999999" sketch:type="MSShapeGroup"></path>
    </g>
</svg>