<?xml version="1.0" encoding="UTF-8" standalone="no"?>
<svg width="158px" height="158px" viewBox="0 0 158 158" version="1.1" xmlns="http://www.w3.org/2000/svg" xmlns:xlink="http://www.w3.org/1999/xlink" xmlns:sketch="http://www.bohemiancoding.com/sketch/ns">
    <!-- Generator: Sketch 3.5.1 (25234) - http://www.bohemiancoding.com/sketch -->
    <title>Oval 1</title>
    <desc>Created with Sketch.</desc>
    <defs></defs>
    <g id="Page-1" stroke="none" stroke-width="1" fill="none" fill-rule="evenodd" sketch:type="MSPage">
        <path d="M12.9140228,74.5839719 C15.1864494,40.0593237 43.9099154,12.7595785 79.0095785,12.7595785 C115.593153,12.7595785 145.25,42.4164254 145.25,79 C145.25,115.583575 115.593153,145.240422 79.0095785,145.240422 C43.9099154,145.240422 15.1864494,117.940676 12.9140228,83.4160281 L60.4622604,83.4160281 L60.4622604,95.5529493 C60.4622604,96.648747 61.3551697,97.547318 62.4566292,97.547318 L95.5625278,97.547318 C96.6583254,97.547318 97.5568965,96.6544087 97.5568965,95.5529493 L97.5568965,62.4470507 C97.5568965,61.351253 96.6639872,60.452682 95.5625278,60.452682 L62.4566292,60.452682 C61.3608315,60.452682 60.4622604,61.3455913 60.4622604,62.4470507 L60.4622604,74.5839719 L12.9140228,74.5839719 Z" id="Oval-1" fill="#FFFFFF" sketch:type="MSShapeGroup"></path>
    </g>
</svg>