<?xml version="1.0" encoding="UTF-8"?>
<svg width="190px" height="97px" viewBox="0 0 190 97" version="1.1" xmlns="http://www.w3.org/2000/svg" xmlns:xlink="http://www.w3.org/1999/xlink">
    <!-- Generator: Sketch 41 (35326) - http://www.bohemiancoding.com/sketch -->
    <title>xo element dark</title>
    <desc>Created with Sketch.</desc>
    <defs></defs>
    <g id="Page-1" stroke="none" stroke-width="1" fill="none" fill-rule="evenodd">
        <g id="xo-element-dark">
            <path d="M73,37.5 C73,16.7893219 89.7893219,0 110.5,0 C131.210678,0 148,16.7893219 148,37.5 C148,58.2106781 131.210678,75 110.5,75 C89.7893219,75 73,58.2106781 73,37.5 Z M134.381579,37.5 C134.381579,24.3105681 123.689432,13.6184211 110.5,13.6184211 C97.3105681,13.6184211 86.6184211,24.3105681 86.6184211,37.5 C86.6184211,50.6894319 97.3105681,61.3815789 110.5,61.3815789 C123.689432,61.3815789 134.381579,50.6894319 134.381579,37.5 Z" id="Combined-Shape" fill="#000000"></path>
            <g id="x-element" transform="translate(0.000000, 1.000000)">
                <polygon id="Rectangle-2-2-Copy" fill="#4A90E2" transform="translate(37.000000, 37.000000) rotate(45.000000) translate(-37.000000, -37.000000) " points="81.9585287 30.8937311 -8 30 -7.9585294 43.1062687 82 44"></polygon>
                <polygon id="Rectangle-2-2" fill="#FF504D" transform="translate(37.000000, 37.000000) rotate(-45.000000) translate(-37.000000, -37.000000) " points="81.9585287 30.8937311 -8 30 -7.9585294 43.1062687 82 44"></polygon>
                <path d="M46.2663256,37.0920602 L37.0920602,27.7336743 L27.7336744,36.9079397 L36.9079397,46.2663255 L46.2663256,37.0920602 Z" id="Combined-Shape" fill="#8A2E0B"></path>
            </g>
            <path d="M138,5.02212389 C138,4.32890509 138.131578,3.67625675 138.394737,3.06415929 C138.657896,2.45206184 139.01608,1.92109369 139.469298,1.47123894 C139.922517,1.02138418 140.452482,0.663718142 141.059211,0.398230088 C141.665939,0.132742035 142.312862,0 143,0 C143.687138,0 144.334061,0.132742035 144.940789,0.398230088 C145.547518,0.663718142 146.077483,1.02138418 146.530702,1.47123894 C146.98392,1.92109369 147.342104,2.45206184 147.605263,3.06415929 C147.868422,3.67625675 148,4.32890509 148,5.02212389 C148,5.7153427 147.868422,6.36430376 147.605263,6.96902655 C147.342104,7.57374934 146.98392,8.1010302 146.530702,8.55088496 C146.077483,9.00073971 145.547518,9.35471847 144.940789,9.61283186 C144.334061,9.87094524 143.687138,10 143,10 C142.312862,10 141.665939,9.87094524 141.059211,9.61283186 C140.452482,9.35471847 139.922517,9.00073971 139.469298,8.55088496 C139.01608,8.1010302 138.657896,7.57374934 138.394737,6.96902655 C138.131578,6.36430376 138,5.7153427 138,5.02212389 L138,5.02212389 Z M138.789474,5.02212389 C138.789474,5.59734801 138.899122,6.14306527 139.118421,6.65929204 C139.33772,7.17551881 139.637425,7.62905409 140.017544,8.0199115 C140.397663,8.41076892 140.843565,8.71681305 141.355263,8.9380531 C141.866962,9.15929314 142.415202,9.2699115 143,9.2699115 C143.584798,9.2699115 144.133038,9.15929314 144.644737,8.9380531 C145.156435,8.71681305 145.602337,8.41076892 145.982456,8.0199115 C146.362575,7.62905409 146.66228,7.17551881 146.881579,6.65929204 C147.100878,6.14306527 147.210526,5.59734801 147.210526,5.02212389 C147.210526,4.43215044 147.100878,3.87905863 146.881579,3.36283186 C146.66228,2.84660509 146.362575,2.39675708 145.982456,2.01327434 C145.602337,1.62979159 145.156435,1.32743473 144.644737,1.10619469 C144.133038,0.884954646 143.584798,0.774336283 143,0.774336283 C142.415202,0.774336283 141.866962,0.884954646 141.355263,1.10619469 C140.843565,1.32743473 140.397663,1.62979159 140.017544,2.01327434 C139.637425,2.39675708 139.33772,2.84660509 139.118421,3.36283186 C138.899122,3.87905863 138.789474,4.43215044 138.789474,5.02212389 L138.789474,5.02212389 Z M141.173528,2.3340708 L143.031567,2.3340708 C143.279307,2.3340708 143.520161,2.36184061 143.754138,2.41738108 C143.988114,2.47292155 144.198001,2.56317346 144.383806,2.68813952 C144.569611,2.81310558 144.717564,2.97278203 144.827671,3.16717367 C144.937778,3.36156532 144.99283,3.60455122 144.99283,3.89613869 C144.99283,4.28492198 144.882725,4.60080366 144.662512,4.84379321 C144.442299,5.08678276 144.146392,5.24993045 143.774782,5.33324115 L145.199279,7.6659292 L144.043166,7.6659292 L142.804473,5.43737901 L142.123193,5.43737901 L142.123193,7.6659292 L141.173528,7.6659292 L141.173528,2.3340708 Z M142.868421,4.6460177 C143.16082,4.6460177 143.438595,4.59070852 143.701754,4.4800885 C143.964914,4.36946847 144.096491,4.14454447 144.096491,3.80530973 C144.096491,3.49557367 143.975878,3.28908606 143.734649,3.18584071 C143.49342,3.08259535 143.241229,3.03097345 142.97807,3.03097345 L142.057018,3.03097345 L142.057018,4.6460177 L142.868421,4.6460177 Z" id="®" fill="#000000"></path>
        </g>
    </g>
</svg>