<?xml version="1.0" encoding="UTF-8" standalone="no"?>
<svg width="63px" height="63px" viewBox="0 0 63 63" version="1.1" xmlns="http://www.w3.org/2000/svg" xmlns:xlink="http://www.w3.org/1999/xlink">
    <!-- Generator: Sketch 3.8.3 (29802) - http://www.bohemiancoding.com/sketch -->
    <title>Slice 1</title>
    <desc>Created with Sketch.</desc>
    <defs></defs>
    <g id="Page-1" stroke="none" stroke-width="1" fill="none" fill-rule="evenodd">
        <rect id="Rectangle-7" fill="#03335B" x="10" y="10" width="20" height="5"></rect>
        <rect id="Rectangle-7-Copy-2" fill="#03335B" transform="translate(12.500000, 20.000000) rotate(90.000000) translate(-12.500000, -20.000000) " x="2.5" y="17.5" width="20" height="5"></rect>
        <rect id="Rectangle-7-Copy-3" fill="#03335B" transform="translate(27.500000, 20.000000) rotate(90.000000) translate(-27.500000, -20.000000) " x="17.5" y="17.5" width="20" height="5"></rect>
        <rect id="Rectangle-7-Copy" fill="#03335B" x="10" y="25" width="20" height="5"></rect>
        <rect id="Rectangle-7-Copy-7" fill="#03335B" x="33" y="10" width="20" height="5"></rect>
        <rect id="Rectangle-7-Copy-6" fill="#03335B" transform="translate(35.500000, 20.000000) rotate(90.000000) translate(-35.500000, -20.000000) " x="25.5" y="17.5" width="20" height="5"></rect>
        <rect id="Rectangle-7-Copy-5" fill="#03335B" transform="translate(50.500000, 20.000000) rotate(90.000000) translate(-50.500000, -20.000000) " x="40.5" y="17.5" width="20" height="5"></rect>
        <rect id="Rectangle-7-Copy-4" fill="#03335B" x="33" y="25" width="20" height="5"></rect>
        <rect id="Rectangle-7-Copy-11" fill="#03335B" x="10" y="33" width="20" height="5"></rect>
        <rect id="Rectangle-7-Copy-10" fill="#03335B" transform="translate(12.500000, 43.000000) rotate(90.000000) translate(-12.500000, -43.000000) " x="2.5" y="40.5" width="20" height="5"></rect>
        <rect id="Rectangle-7-Copy-9" fill="#03335B" transform="translate(27.500000, 43.000000) rotate(90.000000) translate(-27.500000, -43.000000) " x="17.5" y="40.5" width="20" height="5"></rect>
        <rect id="Rectangle-7-Copy-8" fill="#03335B" x="10" y="48" width="20" height="5"></rect>
        <rect id="Rectangle-2" fill="#03335B" x="33" y="33" width="6" height="6"></rect>
        <rect id="Rectangle-2-Copy-3" fill="#03335B" x="40" y="40" width="6" height="6"></rect>
        <rect id="Rectangle-2-Copy-5" fill="#03335B" x="47" y="33" width="6" height="6"></rect>
        <rect id="Rectangle-2-Copy-6" fill="#03335B" x="33" y="47" width="6" height="6"></rect>
        <rect id="Rectangle-2-Copy-4" fill="#03335B" x="47" y="47" width="6" height="6"></rect>
    </g>
</svg>