<?xml version="1.0" encoding="UTF-8"?>
<svg width="128px" height="128px" viewBox="0 0 128 128" version="1.1" xmlns="http://www.w3.org/2000/svg" xmlns:xlink="http://www.w3.org/1999/xlink">
    <!-- Generator: Sketch 41.1 (35376) - http://www.bohemiancoding.com/sketch -->
    <title>Rectangle</title>
    <desc>Created with Sketch.</desc>
    <defs></defs>
    <g id="Page-1" stroke="none" stroke-width="1" fill="none" fill-rule="evenodd">
        <path d="M16.7641107,58.2353148 C12.7893679,41.0188123 23.5356496,23.8372092 40.7404376,19.865171 L67.167033,13.7641107 C84.3835355,9.78936789 101.565139,20.5356496 105.537177,37.7404376 L111.638237,64.167033 C115.61298,81.3835355 104.866698,98.5651385 87.6619102,102.537177 L61.2353148,108.638237 C44.0188123,112.61298 26.8372092,101.866698 22.865171,84.6619102 L16.7641107,58.2353148 Z M39.3894991,74.9445665 C39.7241845,75.4386259 40.3085246,76.2094244 41.1365687,77.1659631 C42.4847897,78.723399 44.0613932,80.274769 45.8649312,81.7267028 C53.0411603,87.5039084 61.6262264,90.1087789 71.2247441,87.5679948 C78.744944,85.5773537 84.2093095,81.2227346 87.8008975,75.296892 C89.5595123,72.3953135 90.7502775,69.3145044 91.48953,66.2358876 C91.9383005,64.3669834 92.1406701,62.8741827 92.1946592,61.9293731 C92.3206901,59.723832 90.6349141,57.8337195 88.4293731,57.7076886 C86.223832,57.5816576 84.3337195,59.2674337 84.2076886,61.4729747 C84.207843,61.4702725 84.2049336,61.5091408 84.1976672,61.5866582 C84.1829467,61.7436949 84.1612878,61.9338017 84.131431,62.1540437 C84.0421648,62.8125248 83.9050632,63.5583605 83.7106522,64.3679853 C83.1529556,66.6905123 82.2561217,69.0108471 80.9594009,71.1503362 C78.3996987,75.3736471 74.6049985,78.3976896 69.1776037,79.834353 C62.3190692,81.6498474 56.233002,79.8032202 50.8816474,75.4951253 C49.4735598,74.3615478 48.2349146,73.1427271 47.1850726,71.9299722 C46.8235209,71.5123156 46.5141265,71.1292806 46.2588566,70.792556 C46.1190665,70.60816 46.0364779,70.4926626 46.0128487,70.4577813 C44.7738571,68.6287938 42.2867688,68.1505076 40.4577813,69.3894991 C38.6287938,70.6284906 38.1505076,73.115579 39.3894991,74.9445665 Z M45.2011739,57.2011739 C49.6194519,57.2011739 53.2011739,53.6194519 53.2011739,49.2011739 C53.2011739,44.7828959 49.6194519,41.2011739 45.2011739,41.2011739 C40.7828959,41.2011739 37.2011739,44.7828959 37.2011739,49.2011739 C37.2011739,53.6194519 40.7828959,57.2011739 45.2011739,57.2011739 Z M74.2011739,51.2011739 C78.6194519,51.2011739 82.2011739,47.6194519 82.2011739,43.2011739 C82.2011739,38.7828959 78.6194519,35.2011739 74.2011739,35.2011739 C69.7828959,35.2011739 66.2011739,38.7828959 66.2011739,43.2011739 C66.2011739,47.6194519 69.7828959,51.2011739 74.2011739,51.2011739 Z" id="Combined-Shape" fill="#FFFFFF"></path>
    </g>
</svg>