<?xml version="1.0" encoding="UTF-8" standalone="no"?>
<svg width="384px" height="384px" viewBox="0 0 384 384" version="1.1" xmlns="http://www.w3.org/2000/svg" xmlns:xlink="http://www.w3.org/1999/xlink" xmlns:sketch="http://www.bohemiancoding.com/sketch/ns">
    <!-- Generator: Sketch 3.4.2 (15855) - http://www.bohemiancoding.com/sketch -->
    <title>Shape</title>
    <desc>Created with Sketch.</desc>
    <defs></defs>
    <g id="Page-1" stroke="none" stroke-width="1" fill="none" fill-rule="evenodd" sketch:type="MSPage">
        <path d="M294.671604,180.592615 L249.030718,226.217873 C223.839022,251.425197 182.9719,251.425197 157.780204,226.217873 C153.81005,222.263347 150.706524,217.804676 147.980604,213.204339 L169.186518,191.998426 C170.194811,190.982066 171.439549,190.399273 172.62883,189.714138 C174.09388,194.724346 176.653936,199.466347 180.592832,203.40474 C193.1728,215.992773 213.646189,215.977145 226.218089,203.40474 L271.843347,157.779483 C284.43138,145.191449 284.43138,124.726127 271.843347,112.146159 C259.270941,99.566192 238.806123,99.566192 226.218089,112.146159 L209.990622,128.389255 C196.827862,123.261077 182.640675,121.88274 168.831599,123.906889 L203.404957,89.3335308 C228.612281,64.1342728 269.463775,64.1342728 294.6711,89.3335308 C319.863299,114.533797 319.863299,155.393357 294.671604,180.592615 L294.671604,180.592615 Z M174.015233,255.616167 L157.780204,271.859262 C145.200237,284.431667 124.726848,284.431667 112.14688,271.859262 C99.5669131,259.271229 99.5669131,238.805906 112.14688,226.218377 L157.780204,180.59312 C170.368237,168.005086 190.825494,168.005086 203.405461,180.59312 C207.336291,184.52395 209.896347,189.265952 211.377529,194.268093 C212.574877,193.574892 213.803986,193.007727 214.812279,191.999434 L236.018193,170.801587 C233.308406,166.185621 230.188747,161.742578 226.218594,157.780491 C201.026898,132.581233 160.159775,132.581233 134.960013,157.780491 L89.334756,203.405748 C64.135498,228.613073 64.135498,269.464567 89.334756,294.671891 C114.534014,319.863587 155.393574,319.863587 180.593337,294.671891 L215.174761,260.090467 C201.357618,262.122681 187.170432,260.736278 174.015233,255.616167 L174.015233,255.616167 Z" id="Shape" fill="#FFFFFF" sketch:type="MSShapeGroup"></path>
    </g>
</svg>