<?xml version="1.0" encoding="UTF-8" standalone="no"?>
<svg width="566px" height="566px" viewBox="0 0 566 566" version="1.1" xmlns="http://www.w3.org/2000/svg" xmlns:xlink="http://www.w3.org/1999/xlink" xmlns:sketch="http://www.bohemiancoding.com/sketch/ns">
    <!-- Generator: Sketch 3.3.3 (12072) - http://www.bohemiancoding.com/sketch -->
    <title>Rectangle 1</title>
    <desc>Created with Sketch.</desc>
    <defs></defs>
    <g id="Page-1" stroke="none" stroke-width="1" fill="none" fill-rule="evenodd" sketch:type="MSPage">
        <circle id="Oval-1" stroke="#FFA8A8" stroke-width="30" sketch:type="MSShapeGroup" cx="284" cy="284" r="228"></circle>
        <circle id="Oval-1-Copy" stroke="#FFA8A8" stroke-width="5" sketch:type="MSShapeGroup" cx="284" cy="284" r="262"></circle>
        <path d="M196.798009,244.205013 C194.107793,196.319156 230.80952,157.5 278.773401,157.5 L288.226549,157.5 C336.190524,157.5 372.892447,196.313992 370.201941,244.205013 L368.708122,270.794987 C366.017905,318.680844 324.955132,357.5 277.004394,357.5 L289.995556,357.5 C242.039202,357.5 200.982335,318.686008 198.291828,270.794987 L196.798009,244.205013 Z M247.47938,308.433211 C248.006715,308.956121 248.916508,309.755019 250.202957,310.735091 C252.268659,312.30883 254.696019,313.868906 257.479244,315.317825 C265.366795,319.424005 274.57692,321.882812 284.999986,321.882812 C295.423052,321.882812 304.633177,319.424005 312.520729,315.317825 C315.303954,313.868906 317.731313,312.30883 319.797015,310.735091 C321.083464,309.755019 321.993258,308.956121 322.520592,308.433211 C324.481424,306.488834 324.494762,303.323037 322.550385,301.362206 C320.606008,299.401375 317.440211,299.388037 315.47938,301.332414 C315.45537,301.356222 315.341108,301.46308 315.138093,301.641349 C314.756663,301.976286 314.289082,302.359856 313.736897,302.780534 C312.110891,304.019295 310.162215,305.271719 307.903083,306.4478 C301.383901,309.84162 293.738066,311.882812 284.999986,311.882812 C276.261906,311.882812 268.616071,309.84162 262.096889,306.4478 C259.837757,305.271719 257.889082,304.019295 256.263075,302.780534 C255.71089,302.359856 255.243309,301.976286 254.861879,301.641349 C254.658864,301.46308 254.544602,301.356222 254.520592,301.332414 C252.559761,299.388037 249.393965,299.401375 247.449587,301.362206 C245.50521,303.323037 245.518549,306.488834 247.47938,308.433211 Z" id="Rectangle-2" fill="#D8D8D8" sketch:type="MSShapeGroup"></path>
        <path d="M250.739726,352.841074 C250.739726,343.89405 238,326 238,326 L331,326 C331,326 318.260274,343.093964 318.260274,351.640946 C318.260274,364.093964 381,389 381,389 L188,389 C188,389 250.739726,364.89405 250.739726,352.841074 Z" id="Rectangle-3" fill="#D8D8D8" sketch:type="MSShapeGroup"></path>
        <circle id="Mask" sketch:type="MSShapeGroup" cx="284.5" cy="284.5" r="201.5"></circle>
        <path d="M144.390573,437.924234 C145.83172,415.874688 164.217625,393.070563 185.519318,387.223273 C185.519318,387.223273 252.581953,366.835938 284.999987,366.835938 C317.912813,366.835938 384.489159,387.187784 384.489159,387.187784 C405.758109,393.159206 424.167926,415.869264 425.609427,437.924234 L430.390573,511.075766 C431.83172,533.125312 415.095324,551 393.003195,551 L176.996805,551 C154.907179,551 138.167926,533.130736 139.609427,511.075766 L144.390573,437.924234 Z" id="Rectangle-3-Copy" fill="#D8D8D8" sketch:type="MSShapeGroup"></path>
    </g>
</svg>