<?xml version="1.0" encoding="UTF-8" standalone="no"?>
<svg width="98px" height="97px" viewBox="0 0 98 97" version="1.1" xmlns="http://www.w3.org/2000/svg" xmlns:xlink="http://www.w3.org/1999/xlink" xmlns:sketch="http://www.bohemiancoding.com/sketch/ns">
    <!-- Generator: Sketch 3.3.2 (12043) - http://www.bohemiancoding.com/sketch -->
    <desc>Created with Sketch.</desc>
    <defs></defs>
    <g id="Page-1" stroke="none" stroke-width="1" fill="none" fill-rule="evenodd" sketch:type="MSPage">
        <g id="Unlock-Account" sketch:type="MSArtboardGroup" transform="translate(-604.000000, -1189.000000)" stroke="#FFFFFF" stroke-width="3">
            <g id="Request-Money" sketch:type="MSLayerGroup" transform="translate(606.333333, 1190.853333)">
                <path d="M46.6666667,93.3333333 C72.4399563,93.3333333 93.3333333,72.4399563 93.3333333,46.6666667 C93.3333333,20.8933771 72.4399563,0 46.6666667,0 C20.8933771,0 0,20.8933771 0,46.6666667 C0,72.4399563 20.8933771,93.3333333 46.6666667,93.3333333 Z" id="Oval-20-copy" sketch:type="MSShapeGroup"></path>
                <path d="M37.528476,36.3548546 C37.528476,36.3548546 41.3971779,40.6395056 41.3971779,47.3876707 C41.3971779,54.1358359 37.528476,58.4204868 37.528476,58.4204868" id="Line-3" stroke-linecap="square" sketch:type="MSShapeGroup"></path>
                <path d="M47.7861957,23.806631 C47.7861957,23.806631 56.0547008,32.9641364 56.0547008,47.3868651 C56.0547008,61.8095938 47.7861957,70.9670992 47.7861957,70.9670992" id="Line-4" stroke-linecap="square" sketch:type="MSShapeGroup"></path>
                <path d="M21,52.5 C24.2216612,52.5 26.8333333,49.8883279 26.8333333,46.6666667 C26.8333333,43.4450055 24.2216612,40.8333333 21,40.8333333 C17.7783388,40.8333333 15.1666667,43.4450055 15.1666667,46.6666667 C15.1666667,49.8883279 17.7783388,52.5 21,52.5 Z M72.3333333,52.5 C75.5549945,52.5 78.1666667,49.8883279 78.1666667,46.6666667 C78.1666667,43.4450055 75.5549945,40.8333333 72.3333333,40.8333333 C69.1116721,40.8333333 66.5,43.4450055 66.5,46.6666667 C66.5,49.8883279 69.1116721,52.5 72.3333333,52.5 Z" id="Oval-25" sketch:type="MSShapeGroup"></path>
            </g>
        </g>
    </g>
</svg>