<?xml version="1.0" encoding="UTF-8" standalone="no"?>
<svg width="125px" height="125px" viewBox="0 0 125 125" version="1.1" xmlns="http://www.w3.org/2000/svg" xmlns:xlink="http://www.w3.org/1999/xlink">
    <!-- Generator: Sketch 39 (31667) - http://www.bohemiancoding.com/sketch -->
    <title>Oval</title>
    <desc>Created with Sketch.</desc>
    <defs></defs>
    <g id="Page-1" stroke="none" stroke-width="1" fill="none" fill-rule="evenodd">
        <g id="Group" transform="translate(1.000000, 1.000000)" fill="#565656">
            <path d="M123,61.5 C123,27.5344879 95.4655121,0 61.5,0 C27.5344879,0 0,27.5344879 0,61.5 C0,95.4655121 27.5344879,123 61.5,123 C95.4655121,123 123,95.4655121 123,61.5 Z M6.4173913,61.5 C6.4173913,31.0787152 31.0787152,6.4173913 61.5,6.4173913 C91.9212848,6.4173913 116.582609,31.0787152 116.582609,61.5 C116.582609,91.9212848 91.9212848,116.582609 61.5,116.582609 C31.0787152,116.582609 6.4173913,91.9212848 6.4173913,61.5 Z" id="Oval"></path>
            <path d="M56.267687,76.3156174 L56.267687,70.8351652 C56.267687,69.2179745 56.3874771,67.8703358 56.6270609,66.7922087 C56.8666447,65.7140816 57.226015,64.740787 57.7051826,63.8722957 C58.1843502,63.0038044 58.828222,62.1652736 59.6368174,61.3566783 C60.4454127,60.5480829 61.4486549,59.5747883 62.6465739,58.4367652 C63.6049091,57.5383259 64.56323,56.6249264 65.5215652,55.6965391 C66.4799004,54.7681519 67.3483787,53.809831 68.1270261,52.8215478 C68.9056735,51.8332646 69.5495453,50.7851012 70.0586609,49.6770261 C70.5677765,48.568951 70.8223304,47.3261286 70.8223304,45.9485217 C70.8223304,44.5709149 70.5677765,43.298145 70.0586609,42.1301739 C69.5495453,40.9622029 68.8757259,39.9589607 68.0371826,39.1204174 C67.1986393,38.2818741 66.1953971,37.6230285 65.0274261,37.1438609 C63.859455,36.6646933 62.6166327,36.425113 61.2989217,36.425113 C58.3640201,36.425113 55.9831917,37.3534864 54.1563652,39.2102609 C52.3295387,41.0670354 51.236454,43.492785 50.8770783,46.4875826 L41.7130435,45.5891478 C42.4916908,40.3782 44.6628865,36.2903627 48.2266957,33.325513 C51.7905048,30.3606634 56.207765,28.8782609 61.4786087,28.8782609 C63.9942387,28.8782609 66.3451195,29.252605 68.5313217,30.0013043 C70.717524,30.7500037 72.6191919,31.8281147 74.2363826,33.2356696 C75.8535733,34.6432244 77.1263432,36.380181 78.0547304,38.4465913 C78.9831177,40.5130016 79.4473043,42.8638825 79.4473043,45.4993043 C79.4473043,47.7753505 79.1178816,49.766861 78.4590261,51.4738957 C77.8001706,53.1809303 76.8717973,54.7831229 75.6738783,56.2805217 L70.2832696,61.8508174 L69.3848348,62.6594087 C68.4264996,63.557848 67.6628376,64.3215099 67.0938261,64.9504174 C66.5248145,65.5793249 66.0756016,66.2381705 65.7461739,66.9269739 C65.4167462,67.6157774 65.1921397,68.3794393 65.0723478,69.2179826 C64.9525559,70.0565259 64.8926609,71.1046894 64.8926609,72.3625043 L64.8926609,76.3156174 L56.267687,76.3156174 Z M54.5606609,88.7140174 C54.5606609,87.0968267 55.1446376,85.7042667 56.3126087,84.5362957 C57.4805798,83.3683246 58.8731397,82.7843478 60.4903304,82.7843478 C62.1075211,82.7843478 63.5000811,83.3683246 64.6680522,84.5362957 C65.8360232,85.7042667 66.42,87.0968267 66.42,88.7140174 C66.42,90.3312081 65.8360232,91.7237681 64.6680522,92.8917391 C63.5000811,94.0597102 62.1075211,94.643687 60.4903304,94.643687 C58.8731397,94.643687 57.4805798,94.0597102 56.3126087,92.8917391 C55.1446376,91.7237681 54.5606609,90.3312081 54.5606609,88.7140174 L54.5606609,88.7140174 Z" id="?"></path>
        </g>
    </g>
</svg>