<?xml version="1.0" encoding="UTF-8" standalone="no"?>
<svg width="256px" height="256px" viewBox="0 0 256 256" version="1.1" xmlns="http://www.w3.org/2000/svg" xmlns:xlink="http://www.w3.org/1999/xlink" xmlns:sketch="http://www.bohemiancoding.com/sketch/ns">
    <!-- Generator: Sketch 3.4.2 (15855) - http://www.bohemiancoding.com/sketch -->
    <title>Shape</title>
    <desc>Created with Sketch.</desc>
    <defs></defs>
    <g id="Page-1" stroke="none" stroke-width="1" fill="none" fill-rule="evenodd" sketch:type="MSPage">
        <g id="Touch-ID-Icon" sketch:type="MSArtboardGroup" transform="translate(-96.000000, -96.000000)" fill="#FC3E3E">
            <path d="M146.788334,241.780387 C145.341997,232.445349 144.911431,227.057077 145.062384,224.426179 C145.075018,224.205997 145.091589,224.026873 145.110892,223.882102 L149.39941,224.453904 L145.072939,224.453904 C145.072939,180.607614 180.617381,145.063172 224.463671,145.063172 C231.549525,145.063172 238.51639,145.992619 245.233877,147.808852 C247.540499,148.432501 248.904817,150.807956 248.281167,153.114577 C247.657517,155.421198 245.282063,156.785516 242.975441,156.161866 C236.992589,154.54426 230.785042,153.716113 224.463671,153.716113 C185.396268,153.716113 153.72588,185.386501 153.72588,224.453904 L153.72588,224.741065 L153.687928,225.025707 C153.698401,224.947157 153.701728,224.911198 153.701117,224.921844 C153.689944,225.116581 153.685654,225.446864 153.69707,225.927973 C153.714073,226.644513 153.763423,227.548317 153.853055,228.655919 C154.094064,231.634096 154.586891,235.632733 155.391023,240.788563 C156.868882,248.105209 157.619704,255.593438 157.619704,263.175814 C157.619704,277.956551 154.765425,292.347362 149.286015,305.741581 C148.3813,307.953126 145.855072,309.01252 143.643527,308.107804 C141.431982,307.203089 140.372588,304.676861 141.277303,302.465316 C146.333111,290.106576 148.966763,276.828131 148.966763,263.175814 C148.966763,256.08252 148.256145,249.083384 146.858196,242.249991 C146.826086,242.093033 146.802915,241.936322 146.788334,241.780387 Z M165.95442,242.114963 C165.443878,240.283201 165.022889,238.102859 164.670893,235.626743 C164.334141,233.25787 164.077567,230.741471 163.888656,228.22813 C163.822711,227.350776 163.769823,226.535312 163.728711,225.801474 C163.703739,225.355713 163.688083,225.032022 163.680513,224.850341 L163.676762,224.760323 L163.676762,224.670228 C163.676762,190.979073 190.98884,163.666995 224.679995,163.666995 C243.326933,163.666995 260.601014,172.091321 272.11101,186.304575 C273.614762,188.1615 273.328458,190.885867 271.471533,192.389619 C269.614608,193.89337 266.890241,193.607066 265.386489,191.750141 C255.502331,179.544574 240.688211,172.319936 224.679995,172.319936 C195.767727,172.319936 172.329703,195.75796 172.329703,224.670228 L172.325952,224.490114 C172.331856,224.631796 172.345524,224.914409 172.368105,225.317475 C172.406249,225.998348 172.455601,226.759277 172.517257,227.579575 C172.692921,229.916672 172.930902,232.25071 173.237705,234.408912 C173.468407,236.031784 173.728448,237.480578 174.013133,238.703659 C174.162649,239.03474 174.272599,239.390215 174.336082,239.765179 C175.589017,247.165598 176.223526,254.698808 176.223526,262.31052 C176.223526,266.461215 176.034851,270.589554 175.659805,274.68698 C175.442004,277.066477 173.336479,278.818878 170.956983,278.601078 C168.577486,278.383277 166.825085,276.277752 167.042885,273.898256 C167.393938,270.06296 167.570585,266.197804 167.570585,262.31052 C167.570585,255.493742 167.02737,248.747531 165.95442,242.114963 Z M184.734018,241.371016 C184.215221,239.672494 183.783918,237.723864 183.421108,235.555851 C183.018833,233.152013 182.721285,230.603089 182.510055,228.057946 C182.436358,227.16995 182.378556,226.344389 182.334774,225.600965 C182.308099,225.14803 182.291837,224.81784 182.284184,224.630348 L182.280585,224.542163 L182.280585,224.453904 C182.280585,214.308454 185.879998,204.707068 192.32014,197.135959 C193.868315,195.315906 196.598804,195.095505 198.418858,196.64368 C200.238911,198.191855 200.459312,200.922344 198.911137,202.742397 C193.78985,208.763044 190.933526,216.38225 190.933526,224.453904 L190.929926,224.27746 C190.935523,224.414589 190.949239,224.693063 190.972748,225.092256 C191.012606,225.769046 191.065605,226.52601 191.133349,227.342272 C191.326239,229.666436 191.597108,231.986819 191.955373,234.127668 C192.329128,236.361084 192.776121,238.252208 193.277356,239.655666 C193.493642,240.261267 193.566782,240.883196 193.514297,241.484466 C194.673307,248.610003 195.259996,255.856559 195.259996,263.175814 C195.259996,285.669115 189.733691,308.156565 179.642512,327.880235 C178.554178,330.007432 175.947474,330.849598 173.820277,329.761264 C171.693079,328.67293 170.850913,326.066227 171.939247,323.939029 C181.412233,305.423647 186.607055,284.285055 186.607055,263.175814 C186.607055,255.924353 185.992352,248.752851 184.779241,241.713222 C184.759525,241.598812 184.744497,241.484677 184.734018,241.371016 Z M211.700334,231.933252 C211.694728,231.683305 211.667298,231.430395 211.616566,231.176737 C211.274446,229.466134 211.053268,227.770435 210.930707,226.177152 C210.888197,225.624518 210.86109,225.127561 210.84624,224.696891 C210.837857,224.453778 210.835289,224.297184 210.835289,224.237581 C210.835289,216.591361 217.033775,210.392875 224.679995,210.392875 C231.029604,210.392875 236.496753,214.702015 238.071853,220.707491 C238.082689,220.964254 238.116648,221.223649 238.17528,221.483224 C241.273124,235.198126 242.85117,249.299154 242.85117,263.608461 C242.85117,265.997905 244.788197,267.934932 247.177641,267.934932 C249.567084,267.934932 251.504111,265.997905 251.504111,263.608461 C251.504111,248.95852 249.920445,234.511518 246.809812,220.445736 C246.801564,220.20797 246.773533,219.967699 246.724457,219.726828 C244.604987,209.324053 235.422772,201.739935 224.679995,201.739935 C212.254888,201.739935 202.182349,211.812474 202.182349,224.237581 C202.182349,224.775947 202.213166,225.669663 202.303254,226.840803 C202.434906,228.552274 202.659892,230.354068 203.000635,232.193417 C203.009334,232.336643 203.025211,232.480781 203.048551,232.625438 C204.48419,241.523343 205.210878,250.572255 205.210878,259.714638 C205.210878,284.550069 199.8444,308.617683 189.621971,330.649217 C188.616276,332.816707 189.558097,335.389083 191.725588,336.394779 C193.893079,337.400475 196.465455,336.458654 197.47115,334.291163 C208.220376,311.124267 213.863819,285.814522 213.863819,259.714638 C213.863819,250.344925 213.136994,241.065297 211.700334,231.933252 Z M266.076858,217.507485 C262.72499,197.292154 245.173724,182.270818 224.463671,182.270818 C219.581364,182.270818 214.806629,183.102268 210.296714,184.709968 C208.046003,185.512304 206.871864,187.987287 207.674199,190.237997 C208.476535,192.488708 210.951518,193.662847 213.202229,192.860512 C216.782769,191.584117 220.574981,190.923759 224.463671,190.923759 C240.933854,190.923759 254.894845,202.880768 257.545236,218.95174 C257.556186,219.01814 257.568594,219.083935 257.582422,219.149099 C257.58941,219.188935 257.596969,219.228797 257.605105,219.268675 C260.444507,233.185709 261.88764,247.437566 261.88764,261.877873 C261.88764,286.035399 257.847772,309.635561 250.031427,331.9592 C249.241796,334.2144 250.429875,336.682722 252.685075,337.472352 C254.940274,338.261982 257.408596,337.073904 258.198227,334.818704 C266.335265,311.579159 270.540581,287.012481 270.540581,261.877873 C270.540581,246.855747 269.038768,232.024398 266.083388,217.538906 C266.081248,217.528416 266.079071,217.517942 266.076858,217.507485 Z M301.913099,206.930632 C297.11696,185.647804 283.687328,167.304551 265.023008,156.192104 C262.969908,154.96972 260.314604,155.643149 259.09222,157.696249 C257.869836,159.749348 258.543265,162.404652 260.596365,163.627036 C277.324836,173.586908 289.335386,190.064464 293.543244,209.153224 C293.574518,209.295098 293.612425,209.433798 293.656567,209.569068 C297.832953,228.006674 299.960579,246.965509 299.960579,266.204343 C299.960579,280.081374 298.85366,293.816889 296.666868,307.322554 C296.284951,309.681278 297.887471,311.903006 300.246195,312.284923 C302.604919,312.66684 304.826648,311.064321 305.208565,308.705596 C307.469329,294.743074 308.61352,280.545065 308.61352,266.204343 C308.61352,246.197123 306.386396,226.476598 302.014602,207.300546 C301.985897,207.174636 301.951969,207.051273 301.913099,206.930632 Z M312.325192,205.92817 C303.675975,164.690092 267.140884,134.679644 224.463671,134.679644 C212.709532,134.679644 201.276703,136.937302 190.6299,141.272444 C188.416877,142.173538 185.892386,141.11001 184.991293,138.896987 C184.090199,136.683964 185.153727,134.159473 187.36675,133.258379 C199.045358,128.503109 211.585931,126.026703 224.463671,126.026703 C271.273214,126.026703 311.338359,158.951187 320.804507,204.202754 C320.809478,204.226514 320.814243,204.25027 320.818804,204.274018 C323.393207,215.829624 325.250209,227.571751 326.372363,239.450829 C326.59708,241.829683 324.850808,243.940294 322.471955,244.165011 C320.093102,244.389729 317.98249,242.643457 317.757773,240.264604 C316.667317,228.721071 314.861473,217.312119 312.357301,206.085558 C312.345595,206.033078 312.334897,205.980609 312.325192,205.92817 Z M128.017496,244.095311 C123.950971,223.148888 126.613468,202.747519 134.947943,184.317153 C142.401133,167.83561 154.170727,153.625444 167.600609,144.104619 C169.549906,142.722707 172.250385,143.182663 173.632297,145.13196 C175.014209,147.081258 174.554253,149.781736 172.604956,151.163648 C160.422469,159.80016 149.649613,172.806902 142.8322,187.882526 C135.055961,205.078441 132.691979,224.104976 136.762154,243.691746 C136.8331,244.033158 136.861695,244.373529 136.851519,244.707404 C138.00069,251.188543 138.583234,257.794886 138.583234,264.473755 C138.583234,272.862433 137.664227,281.134765 135.859346,289.185225 C135.336619,291.51679 133.022757,292.983143 130.691192,292.460415 C128.359627,291.937688 126.893274,289.623826 127.416001,287.292261 C129.081809,279.862122 129.930293,272.22459 129.930293,264.473755 C129.930293,257.858392 129.312214,251.324453 128.094597,244.929688 C128.041229,244.649406 128.016199,244.370295 128.017496,244.095311 Z M341.927342,224.453904 C341.927342,167.200314 300.68405,118.559819 244.91692,108.765445 C242.563498,108.352114 240.320601,109.924869 239.907269,112.278291 C239.493938,114.631714 241.066693,116.874611 243.420115,117.287942 C295.06636,126.358566 333.274401,171.419422 333.274401,224.453904 C333.274401,226.843348 335.211428,228.780375 337.600872,228.780375 C339.990315,228.780375 341.927342,226.843348 341.927342,224.453904 Z M222.904719,107.000374 C178.43538,107.57922 138.656482,133.09706 119.200756,172.268488 C118.137849,174.408504 119.011019,177.004987 121.151036,178.067893 C123.291052,179.1308 125.887534,178.25763 126.950441,176.117614 C144.975689,139.826256 181.82333,116.188794 223.017342,115.652582 C225.406584,115.621482 227.318235,113.659408 227.287135,111.270166 C227.256034,108.880925 225.29396,106.969274 222.904719,107.000374 Z M111.522161,192.06899 C108.53274,202.513187 107,213.383643 107,224.453904 C107,237.85041 109.244895,250.9465 113.588483,263.333857 C114.379136,265.588698 116.847996,266.775657 119.102838,265.985004 C121.357679,265.194352 122.544638,262.725491 121.753985,260.47065 C117.731938,249.000285 115.652941,236.871999 115.652941,224.453904 C115.652941,214.191039 117.072692,204.121921 119.841041,194.450086 C120.498563,192.152891 119.169344,189.757619 116.872149,189.100098 C114.574954,188.442576 112.179682,189.771795 111.522161,192.06899 Z M327.378314,279.204444 C327.559267,275.027161 327.64999,270.837377 327.64999,266.63699 C327.64999,264.709504 327.630886,262.784217 327.592724,260.861312 C327.545312,258.472338 325.570232,256.574128 323.181259,256.62154 C320.792286,256.668951 318.894075,258.644032 318.941487,261.033005 C318.978513,262.898687 318.997049,264.766741 318.997049,266.63699 C318.997049,270.712494 318.90903,274.777422 318.73348,278.829963 C318.63007,281.217168 320.481452,283.236211 322.868656,283.339621 C325.255861,283.443031 327.274904,281.591649 327.378314,279.204444 Z M281.673595,324.654849 C287.186022,304.800269 290.009698,284.173449 290.009698,263.175814 C290.009698,244.155441 287.692858,225.435801 283.155896,207.312746 C282.575624,204.994832 280.226181,203.586194 277.908266,204.166466 C275.590352,204.746737 274.181715,207.096181 274.761986,209.414095 C279.127256,226.851316 281.356757,244.865279 281.356757,263.175814 C281.356757,283.38926 278.639669,303.237455 273.336036,322.340009 C272.69681,324.642362 274.045042,327.026983 276.347396,327.666209 C278.649749,328.305434 281.03437,326.957202 281.673595,324.654849 Z M236.982094,338.373988 C243.777962,321.620317 248.26567,303.962938 250.28142,285.790753 C250.544853,283.415875 248.83319,281.277102 246.458312,281.013668 C244.083435,280.750235 241.944661,282.461899 241.681227,284.836776 C239.753339,302.216878 235.462148,319.101041 228.963714,335.121456 C228.065552,337.335671 229.132424,339.85875 231.346638,340.756912 C233.560853,341.655074 236.083933,340.588203 236.982094,338.373988 Z M216.91625,338.265214 C216.961956,338.151196 217.046549,337.939455 217.164493,337.643094 C217.360464,337.150671 217.578682,336.599916 217.813622,336.003901 C218.485162,334.300284 219.156847,332.573582 219.784846,330.927324 C219.862901,330.72271 219.93989,330.520351 220.015761,330.320371 C220.848421,328.125657 221.523274,326.279615 221.997883,324.877981 C222.764232,322.614765 221.550782,320.158816 219.287566,319.392466 C217.024349,318.626116 214.568401,319.839567 213.802051,322.102783 C213.367691,323.385554 212.72431,325.145504 211.925506,327.250981 C211.851515,327.446003 211.776386,327.643473 211.700175,327.843256 C211.084761,329.456522 210.424216,331.154585 209.763527,332.830677 C209.532186,333.417561 209.31743,333.959579 209.124835,334.443518 C209.009639,334.732974 208.927703,334.938065 208.884593,335.045607 C207.995523,337.263488 209.072738,339.782169 211.290618,340.671239 C213.508499,341.560309 216.027181,340.483094 216.91625,338.265214 Z M227.510168,305.348416 C230.79458,290.91349 232.467641,276.070313 232.467641,261.012579 C232.467641,248.444165 231.302059,236.022515 229.004857,223.858808 C228.561432,221.510869 226.298585,219.966956 223.950646,220.410381 C221.602708,220.853806 220.058794,223.116653 220.502219,225.464591 C222.699562,237.099541 223.814701,248.98361 223.814701,261.012579 C223.814701,275.423243 222.214217,289.622524 219.072875,303.428659 C218.542749,305.758554 220.001749,308.077058 222.331643,308.607184 C224.661537,309.137311 226.980042,307.67831 227.510168,305.348416 Z M163.94084,318.455522 C167.239255,311.309269 169.903393,303.876108 171.896192,296.230096 C172.498827,293.917895 171.112949,291.554954 168.800749,290.95232 C166.488548,290.349685 164.125607,291.735562 163.522972,294.047763 C161.659689,301.196847 159.1687,308.146909 156.084382,314.829305 C155.08303,316.998806 156.030002,319.56929 158.199503,320.570642 C160.369004,321.571994 162.939488,320.625023 163.94084,318.455522 Z" id="Shape" sketch:type="MSShapeGroup"></path>
        </g>
    </g>
</svg>