<?xml version="1.0" encoding="UTF-8"?>
<svg width="72px" height="72px" viewBox="0 0 72 72" version="1.1" xmlns="http://www.w3.org/2000/svg" xmlns:xlink="http://www.w3.org/1999/xlink">
    <!-- Generator: Sketch 41.1 (35376) - http://www.bohemiancoding.com/sketch -->
    <title>Combined Shape</title>
    <desc>Created with Sketch.</desc>
    <defs></defs>
    <g id="Page-1" stroke="none" stroke-width="1" fill="none" fill-rule="evenodd">
        <path d="M25.9106068,42.2932122 C25.6704254,42.3134928 25.430821,42.3239228 25.1906395,42.3239228 C24.5335742,42.3239228 23.8945138,42.2281982 23.2687263,42.082757 L8.78870509,56.6225862 C8.07797114,57.33519 8.07797114,58.4926931 8.78870509,59.2054128 L12.5362743,62.969268 C13.2470083,63.6819877 14.3985173,63.6819877 15.1072892,62.969268 L32.5103452,45.4981329 L29.2851504,42.0040682 L25.9106068,42.2932122 Z M64.0167034,18.9997947 C63.3371318,18.3177857 62.2373293,18.3177857 61.5578732,18.9997947 L52.1741768,28.4217171 C51.2862787,29.312327 49.8480755,29.312327 48.9601774,28.4217171 C48.0762035,27.5318025 48.0762035,26.0888639 48.9601774,25.1991811 L58.2974764,15.8255846 C59.0029012,15.1165734 59.0029012,13.9671825 58.2974764,13.2565489 C57.5887045,12.5484648 56.4444667,12.5484648 55.7390419,13.2565489 L46.4055517,22.6292183 C45.5176536,23.5207553 44.0810662,23.5207553 43.1931681,22.6292183 C42.3071167,21.7396514 42.3071167,20.2956697 43.1931681,19.4067982 L52.5749024,9.98580293 C53.2563206,9.30275093 53.2563206,8.19635503 52.5749024,7.51237592 C51.8953309,6.82920803 50.7935663,6.82920803 50.1121481,7.51237592 L39.5563986,18.1119662 C37.0185082,20.6618802 36.2168262,24.2411236 37.0384752,27.4979628 L44.1146523,34.6036042 C47.3579675,35.4256076 50.924333,34.6202923 53.459338,32.0724643 L64.0165879,21.4734535 C64.6981215,20.7904015 64.6981215,19.6828467 64.0167034,18.9997947 Z M12.7427542,8.47031752 C12.3810393,8.10700432 11.8919048,7.90779048 11.3896128,7.90779048 C11.2827372,7.90779048 11.1752846,7.91694574 11.0703711,7.93456092 C10.4592415,8.03839781 9.93490497,8.4323058 9.66552318,8.99297862 C6.57351887,15.4101212 7.86572045,23.0887196 12.8849471,28.1287487 L21.8644554,37.1438994 C22.7503914,38.0345093 23.9482978,38.5275027 25.1906395,38.5275027 C25.3234838,38.5275027 25.4566743,38.52194 25.5895185,38.5109305 L30.8029909,38.0641769 L53.5366669,62.6893952 C53.8896102,63.0721778 54.3840539,63.2944536 54.9049279,63.3047678 L54.9381678,63.3047678 C55.4473848,63.3047678 55.9349035,63.1027726 56.2967338,62.7421248 L60.1901893,58.8319013 C60.5499421,58.4714853 60.7509974,57.9823163 60.7509974,57.4725189 C60.7509974,56.9628374 60.5499421,56.4733207 60.1916897,56.1129047 L12.7427542,8.47031752 Z" id="Combined-Shape" fill="#FFFFFF"></path>
    </g>
</svg>