<?xml version="1.0" encoding="UTF-8" standalone="no"?>
<svg width="203px" height="203px" viewBox="0 0 203 203" version="1.1" xmlns="http://www.w3.org/2000/svg" xmlns:xlink="http://www.w3.org/1999/xlink">
    <!-- Generator: Sketch 3.8.3 (29802) - http://www.bohemiancoding.com/sketch -->
    <title>Line Copy 4</title>
    <desc>Created with Sketch.</desc>
    <defs></defs>
    <g id="Page-1" stroke="none" stroke-width="1" fill="none" fill-rule="evenodd">
        <circle id="Oval-1-Copy-9" fill="#FFFFFF" transform="translate(66.183766, 67.183766) rotate(-45.000000) translate(-66.183766, -67.183766) " cx="66.1837662" cy="67.1837662" r="27"></circle>
        <circle id="Oval-1-Copy-8" fill="#FFFFFF" transform="translate(140.183766, 139.183766) rotate(-45.000000) translate(-140.183766, -139.183766) " cx="140.183766" cy="139.183766" r="27"></circle>
        <path d="M85.7493997,54.5196808 C85.524518,54.8042741 85.2091367,55.2354019 84.8172765,55.816523 C84.2305401,56.6866417 83.5952863,57.7137199 82.9255676,58.9010783 C81.0873451,62.1601022 79.2786565,66.1009419 77.6115537,70.7483467 C72.966213,83.6982252 70.2082008,99.7831994 70.2082008,119.188339 C70.2082008,138.593479 72.966213,154.678453 77.6115537,167.628331 C79.2786565,172.275736 81.0873451,176.216576 82.9255676,179.4756 C83.5952863,180.662958 84.2305401,181.690036 84.8172765,182.560155 C85.2091367,183.141276 85.524518,183.572404 85.7493997,183.856997 L90.3993126,189.74158 L102.168477,180.441754 L97.5185645,174.557172 C97.5258557,174.566399 97.4332552,174.439814 97.2539408,174.173894 C96.8887195,173.632278 96.4632205,172.944331 95.9905898,172.106394 C94.5649574,169.57886 93.109791,166.408288 91.7306292,162.56358 C87.6723566,151.250279 85.2082008,136.879102 85.2082008,119.188339 C85.2082008,101.497576 87.6723566,87.1263991 91.7306292,75.8130982 C93.109791,71.9683903 94.5649574,68.7978183 95.9905898,66.2702841 C96.4632205,65.4323472 96.8887195,64.7444006 97.2539408,64.2027845 C97.4332552,63.9368646 97.5258557,63.8102793 97.5185645,63.8195066 L102.168477,57.9349242 L90.3993126,48.6350984 L85.7493997,54.5196808 L85.7493997,54.5196808 Z" id="Line-Copy-4" fill="#FFFFFF" transform="translate(86.188339, 119.188339) rotate(-45.000000) translate(-86.188339, -119.188339) "></path>
    </g>
</svg>