<?xml version="1.0" encoding="UTF-8" standalone="no"?>
<svg width="480px" height="480px" viewBox="0 0 480 480" version="1.1" xmlns="http://www.w3.org/2000/svg" xmlns:xlink="http://www.w3.org/1999/xlink">
    <!-- Generator: Sketch 3.7.1 (28215) - http://www.bohemiancoding.com/sketch -->
    <title>Group</title>
    <desc>Created with Sketch.</desc>
    <defs></defs>
    <g id="Page-1" stroke="none" stroke-width="1" fill="none" fill-rule="evenodd">
        <g id="Artboard-1" transform="translate(-195.000000, -477.000000)" fill="#66B76F">
            <g id="Group" transform="translate(195.000000, 477.000000)">
                <path d="M201.841231,115.739077 C196.430769,112.171077 191.053538,110.355692 185.633231,110.315077 L185.507692,110.315077 C181.291077,110.315077 176.603077,112.348308 173.148308,115.644308 C169.611077,118.929231 167.618462,125.932308 167.660308,129.922462 C167.660308,132.310154 168.254769,137.181538 169.974154,139.948308 C171.741538,142.739692 174.753231,145.846154 179.650462,148.941538 C188.808615,154.724923 204.605538,160.113231 229.049846,162.641231 C227.630769,157.132308 225.522462,151.501538 222.768,146.108308 C217.490462,135.515077 209.889231,121.054769 201.841231,115.739077 L201.841231,115.739077 Z" id="Shape"></path>
                <path d="M310.798769,125.68 C310.798769,122.242462 309.217231,117.368615 306.241231,114.707692 C303.281231,112.084923 298.935385,110.313846 294.419692,110.313846 L294.366769,110.313846 C288.946462,110.355692 283.507692,112.169846 278.16,115.737846 C272.782769,119.328 267.590154,129.732923 263.188923,136.039385 C257.316923,144.355692 252.886154,154.423385 250.625231,163.937231 C274.601846,159.236923 290.193231,152.529231 299.181538,145.980308 C308.638769,139.063385 310.736,129.732923 310.798769,125.68 L310.798769,125.68 Z" id="Shape"></path>
                <path d="M240,0 C107.453538,0 0,107.453538 0,240 C0,372.545231 107.453538,480 240,480 C372.545231,480 480,372.545231 480,240 C480,107.453538 372.545231,0 240,0 L240,0 Z M234.468923,387.901538 L128.180923,387.901538 L128.180923,238.695385 L190.558769,238.695385 L158.564923,295.428923 L182.898462,291.064615 L194.413538,309.747692 L234.467692,238.695385 L234.467692,387.901538 L234.468923,387.901538 Z M351.971692,387.901538 L246.219077,387.901538 L246.219077,239.654154 L285.761231,309.965538 L297.236923,291.065846 L321.554462,295.192615 L289.593846,238.696615 L351.971692,238.696615 L351.971692,387.901538 L351.971692,387.901538 Z M247.496615,226.825846 L247.496615,167.492923 L232.625231,167.492923 L232.625231,226.825846 L110.608,226.825846 L110.465231,167.492923 L175.441231,167.492923 C165.858462,162.572308 158.918154,156.563692 154.539077,149.661538 C151.052308,144.157538 149.366154,138.107077 149.414154,132.318769 C149.456,122.414769 154.044308,108.547692 160.605538,102.386462 C167.197538,96.1624615 176.008615,92.1304615 185.633231,92.0984615 C195.291077,92.0984615 204.264615,95.4153846 211.938462,100.578462 C219.671385,105.746462 226.253538,112.654769 231.720615,120.465231 C234.848,124.976 237.613538,134.864 239.968,139.804308 C240.289231,139.179077 240.604308,138.558769 240.935385,137.917538 C247.390769,125.106462 256.443077,108.327385 268.018462,100.578462 C275.714462,95.4166154 284.697846,92.0984615 294.365538,92.0984615 C303.412923,92.0984615 311.886769,95.3833846 318.274462,100.982154 C324.662154,106.524308 329.051077,119.812923 329.051077,129.090462 C329.072,140.397538 322.407385,151.789538 309.852308,160.784 C306.594462,163.144615 302.903385,165.363692 298.775385,167.491692 L369.36,167.491692 L369.533538,226.824615 L247.496615,226.824615 L247.496615,226.825846 Z" id="Shape"></path>
            </g>
        </g>
    </g>
</svg>