<?xml version="1.0" encoding="UTF-8" standalone="no"?>
<svg width="516px" height="100px" viewBox="0 0 516 100" version="1.1" xmlns="http://www.w3.org/2000/svg" xmlns:xlink="http://www.w3.org/1999/xlink" xmlns:sketch="http://www.bohemiancoding.com/sketch/ns">
    <!-- Generator: Sketch 3.4.2 (15855) - http://www.bohemiancoding.com/sketch -->
    <title>nairabox_name</title>
    <desc>Created with Sketch.</desc>
    <defs></defs>
    <g id="Page-1" stroke="none" stroke-width="1" fill="none" fill-rule="evenodd" sketch:type="MSPage">
        <g id="nairabox_name" sketch:type="MSLayerGroup" transform="translate(3.000000, 2.000000)">
            <path d="M124.335869,47.6713761 L124.335869,76.8207525 L113,76.8207525 L113,22.9753766 L124.335869,22.9753766 L124.335869,32.7930485 C126.157714,29.486737 128.671148,26.8889597 131.876246,24.9996388 C135.081343,23.1103179 138.539424,22.1656717 142.25059,22.1656717 C148.323407,22.1656717 153.232194,24.0212268 156.977097,27.7323929 C160.722001,31.4435589 162.594425,36.8078002 162.594425,43.8252778 L162.594425,76.8207525 L151.258557,76.8207525 L151.258557,47.2665236 C151.258557,37.347589 147.142598,32.3881961 138.910557,32.3881961 C134.996964,32.3881961 131.58949,33.6870847 128.688032,36.2849009 C125.786575,38.8827171 124.335869,42.6781709 124.335869,47.6713761 L124.335869,47.6713761 L124.335869,47.6713761 Z M216.735006,76.8207525 L206.411269,76.8207525 L206.411269,69.6346215 C201.957869,74.9652054 195.986355,77.6304574 188.496548,77.6304574 C182.896061,77.6304574 178.257173,76.0448012 174.579745,72.8734411 C170.902316,69.7020811 169.06363,65.4680415 169.06363,60.1711955 C169.06363,54.8743494 171.020397,50.9102088 174.933991,48.2786547 C178.847584,45.6471007 184.14435,44.3313433 190.824449,44.3313433 L205.500351,44.3313433 L205.500351,42.3070811 C205.500351,35.154652 201.519341,31.5784912 193.557203,31.5784912 C188.563998,31.5784912 183.368444,33.400309 177.970384,37.0439992 L172.909728,29.9590813 C179.454876,24.7634489 186.877096,22.1656717 195.176613,22.1656717 C201.519333,22.1656717 206.698019,23.7681966 210.712826,26.9732945 C214.727633,30.1783925 216.735006,35.2221288 216.735006,42.1046549 L216.735006,76.8207525 L216.735006,76.8207525 Z M205.399137,56.7805562 L205.399137,52.2259661 L192.646285,52.2259661 C184.48172,52.2259661 180.399499,54.790006 180.399499,59.9181627 C180.399499,62.5497168 181.41162,64.5570901 183.435892,65.9403429 C185.460164,67.3235957 188.277234,68.0152117 191.887187,68.0152117 C195.497139,68.0152117 198.651583,67.0030907 201.350613,64.9788183 C204.049643,62.954546 205.399137,60.2218192 205.399137,56.7805562 L205.399137,56.7805562 L205.399137,56.7805562 Z M238.588604,76.8207525 L227.252735,76.8207525 L227.252735,22.9753766 L238.588604,22.9753766 L238.588604,76.8207525 L238.588604,76.8207525 Z M225.835752,7.186131 C225.835752,5.2293344 226.544236,3.54246603 227.961227,2.12547537 C229.378218,0.7084847 231.065086,0 233.021883,0 C234.978679,0 236.665548,0.7084847 238.082538,2.12547537 C239.499529,3.54246603 240.208014,5.2293344 240.208014,7.186131 C240.208014,9.1429276 239.499529,10.829796 238.082538,12.2467866 C236.665548,13.6637773 234.978679,14.372262 233.021883,14.372262 C231.065086,14.372262 229.378218,13.6637773 227.961227,12.2467866 C226.544236,10.829796 225.835752,9.1429276 225.835752,7.186131 L225.835752,7.186131 L225.835752,7.186131 Z M277.95207,33.6027534 C272.351583,33.6027534 268.134413,35.4245712 265.300431,39.0682615 C262.46645,42.7119518 261.049481,47.60387 261.049481,53.7441628 L261.049481,76.8207525 L249.713612,76.8207525 L249.713612,22.9753766 L261.049481,22.9753766 L261.049481,33.8051796 C262.871326,30.4313923 265.351022,27.6649283 268.488644,25.5057044 C271.626267,23.3464805 274.949397,22.2331474 278.458136,22.1656717 L278.559349,33.6027534 L277.95207,33.6027534 L277.95207,33.6027534 L277.95207,33.6027534 Z M327.740487,76.8207525 L317.41675,76.8207525 L317.41675,69.6346215 C312.963351,74.9652054 306.991837,77.6304574 299.502029,77.6304574 C293.901542,77.6304574 289.262654,76.0448012 285.585226,72.8734411 C281.907798,69.7020811 280.069111,65.4680415 280.069111,60.1711955 C280.069111,54.8743494 282.025879,50.9102088 285.939472,48.2786547 C289.853065,45.6471007 295.149832,44.3313433 301.829931,44.3313433 L316.505832,44.3313433 L316.505832,42.3070811 C316.505832,35.154652 312.524823,31.5784912 304.562685,31.5784912 C299.569479,31.5784912 294.373925,33.400309 288.975865,37.0439992 L283.91521,29.9590813 C290.460357,24.7634489 297.882578,22.1656717 306.182094,22.1656717 C312.524814,22.1656717 317.7035,23.7681966 321.718307,26.9732945 C325.733114,30.1783925 327.740487,35.2221288 327.740487,42.1046549 L327.740487,76.8207525 L327.740487,76.8207525 Z M316.404619,56.7805562 L316.404619,52.2259661 L303.651767,52.2259661 C295.487201,52.2259661 291.40498,54.790006 291.40498,59.9181627 C291.40498,62.5497168 292.417101,64.5570901 294.441373,65.9403429 C296.465646,67.3235957 299.282716,68.0152117 302.892668,68.0152117 C306.502621,68.0152117 309.657064,67.0030907 312.356094,64.9788183 C315.055124,62.954546 316.404619,60.2218192 316.404619,56.7805562 L316.404619,56.7805562 L316.404619,56.7805562 Z M385.625953,29.655442 C390.75411,34.6486472 393.31815,41.2949085 393.31815,49.5944252 C393.31815,57.8939419 390.770979,64.6414153 385.67656,69.8370477 C380.582141,75.0326802 374.644365,77.6304574 367.863052,77.6304574 C361.08174,77.6304574 354.992145,74.6615691 349.594085,68.7237035 L349.594085,76.8207525 L338.258217,76.8207525 L338.258217,1.72062292 L349.594085,1.72062292 L349.594085,32.3881961 C354.047485,25.5731457 359.884049,22.1656717 367.103954,22.1656717 C374.323859,22.1656717 380.497797,24.6622368 385.625953,29.655442 L385.625953,29.655442 L385.625953,29.655442 Z M354.047462,62.6003102 C357.151347,65.8728839 360.929932,67.5091461 365.383331,67.5091461 C369.83673,67.5091461 373.716527,65.8897525 377.022839,62.6509167 C380.32915,59.4120809 381.982281,55.2117788 381.982281,50.0498842 C381.982281,44.8879897 380.362888,40.6033441 377.124052,37.1958189 C373.885216,33.7882937 370.005419,32.0845567 365.484544,32.0845567 C360.963669,32.0845567 357.151347,33.7882937 354.047462,37.1958189 C350.943578,40.6033441 349.391659,44.871121 349.391659,49.9992777 C349.391659,55.1274343 350.943578,59.3277365 354.047462,62.6003102 L354.047462,62.6003102 L354.047462,62.6003102 Z M425.799125,67.5091461 C430.724854,67.5091461 434.790207,65.8728839 437.995305,62.6003102 C441.200403,59.3277365 442.802928,55.093697 442.802928,49.8980645 C442.802928,44.7024321 441.200403,40.4683926 437.995305,37.1958189 C434.790207,33.9232452 430.724854,32.2869829 425.799125,32.2869829 C420.873395,32.2869829 416.808043,33.9232452 413.602945,37.1958189 C410.397847,40.4683926 408.795322,44.7024321 408.795322,49.8980645 C408.795322,55.093697 410.397847,59.3277365 413.602945,62.6003102 C416.808043,65.8728839 420.873395,67.5091461 425.799125,67.5091461 L425.799125,67.5091461 L425.799125,67.5091461 Z M425.799125,77.6304574 C417.702035,77.6304574 410.954562,74.9483367 405.556502,69.584015 C400.158442,64.2196932 397.459453,57.6577753 397.459453,49.8980645 C397.459453,42.1383538 400.158442,35.5764359 405.556502,30.2121141 C410.954562,24.8477923 417.702035,22.1656717 425.799125,22.1656717 C433.896214,22.1656717 440.643688,24.8477923 446.041747,30.2121141 C451.439807,35.5764359 454.138796,42.1383538 454.138796,49.8980645 C454.138796,57.6577753 451.439807,64.2196932 446.041747,69.584015 C440.643688,74.9483367 433.896214,77.6304574 425.799125,77.6304574 L425.799125,77.6304574 L425.799125,77.6304574 Z M470.32446,22.9753766 L481.862755,40.6876713 L493.805902,22.9753766 L507.267246,22.9753766 L488.441607,49.2907859 L508.076951,76.8207525 L494.109541,76.8207525 L481.255476,58.9060316 L468.70505,76.8207525 L455.446132,76.8207525 L474.575411,49.391999 L456.458263,22.9753766 L470.32446,22.9753766 L470.32446,22.9753766 Z" id="nairabox" fill="#777777" sketch:type="MSShapeGroup"></path>
            <path d="M0,26.9218046 C0,12.0084772 7.00990931,5 21.9218046,5 L68.0781954,5 C82.9915228,5 90,12.0099093 90,26.9218046 L90,73.0781954 C90,87.9915228 82.9900907,95 68.0781954,95 L21.9218046,95 C7.00847718,95 0,87.9900907 0,73.0781954 L0,26.9218046 Z M21.7582418,71.2637363 L33.2140872,71.2637363 L33.2140872,51.7852287 C33.2140872,47.7511219 34.2920582,44.6793252 36.4480338,42.5697463 C38.5674666,40.423157 41.2715312,39.3498787 44.5603069,39.3498787 C47.8490825,39.3498787 50.5348763,40.423157 52.6177676,42.5697463 C54.7372016,44.6793252 55.7969018,47.7511219 55.7969018,51.7852287 L55.7969018,71.2637363 L67.2527473,71.2637363 L67.2527473,47.7881515 C67.0700382,41.2003441 65.0419895,36.2040476 61.168543,32.7991144 C57.2585538,29.4311894 52.9466675,27.7472527 48.2327557,27.7472527 C42.1302494,27.7472527 37.1971585,29.529019 33.4333378,34.0812683 L33.2140872,34.5755928 L33.2140872,30.9405695 L21.7582418,28.4689479 L21.7582418,71.2637363 L21.7582418,71.2637363 Z" id="logo" fill="#8AC186" sketch:type="MSShapeGroup"></path>
        </g>
    </g>
</svg>