<?xml version="1.0" encoding="UTF-8"?>
<svg width="534px" height="150px" viewBox="0 0 534 150" version="1.1" xmlns="http://www.w3.org/2000/svg" xmlns:xlink="http://www.w3.org/1999/xlink">
    <!-- Generator: Sketch 41.2 (35397) - http://www.bohemiancoding.com/sketch -->
    <title>nairabox_pay</title>
    <desc>Created with Sketch.</desc>
    <defs>
        <linearGradient x1="50%" y1="0%" x2="50%" y2="100%" id="linearGradient-1">
            <stop stop-color="#FFFFFF" offset="0%"></stop>
            <stop stop-color="#FFFFFF" stop-opacity="0.5" offset="100%"></stop>
        </linearGradient>
    </defs>
    <g id="Page-1" stroke="none" stroke-width="1" fill="none" fill-rule="evenodd">
        <g id="Group" transform="translate(7.000000, 7.000000)">
            <path d="M400.72,135.312 L386,135.312 L391.04487,90 L407.94087,90 C413.786232,90 418.334824,91.2159878 421.586783,93.648 C424.838741,96.0800122 426.603825,99.429312 426.882087,103.696 C427.071305,106.597348 426.755482,109.114656 425.934609,111.248 C425.113735,113.381344 423.830501,115.13066 422.08487,116.496 C420.339238,117.86134 418.186679,118.874663 415.62713,119.536 C413.067581,120.197337 410.123843,120.528 406.795826,120.528 L402.443826,120.528 L400.72,135.312 Z M406.005565,109.392 C408.053575,109.392 409.631299,109.05067 410.738783,108.368 C411.846266,107.68533 412.352696,106.618674 412.258087,105.168 C412.169043,103.80266 411.638498,102.864003 410.666435,102.352 C409.694372,101.839997 408.397689,101.584 406.776348,101.584 L404.536348,101.584 L403.637565,109.392 L406.005565,109.392 Z M455.982303,135.312 L454.50752,128.4 L439.78752,128.4 L436.462303,135.312 L419.950303,135.312 L444.835173,90 L460.451173,90 L471.342303,135.312 L455.982303,135.312 Z M450.449086,105.424 L444.744738,117.072 L452.552738,117.072 L450.449086,105.424 Z M496.997997,116.688 L494.948606,135.312 L480.164606,135.312 L482.213997,116.688 L468.505476,90 L485.017476,90 L490.795563,104.016 L499.545476,90 L517.593476,90 L496.997997,116.688 Z" id="PAY" fill="url(#linearGradient-1)" opacity="0.800000012"></path>
            <path d="M0,22.0029678 C0,7.08964038 7.0910725,0 22.0029678,0 L67.9970322,0 C82.9103596,0 90,7.0910725 90,22.0029678 L90,67.9970322 C90,82.9103596 82.9089275,90 67.9970322,90 L22.0029678,90 C7.08964038,90 0,82.9089275 0,67.9970322 L0,22.0029678 Z M22.1052634,66.315789 L33.6353839,66.315789 L33.6353839,46.8799976 C33.6353839,42.8547375 34.720344,39.7896772 36.890298,37.6847246 C39.0234724,35.5428427 41.745069,34.4719181 45.0551677,34.4719181 C48.3652665,34.4719181 51.0684739,35.5428427 53.1648697,37.6847246 C55.2980452,39.7896772 56.3646161,42.8547375 56.3646161,46.8799976 L56.3646161,66.315789 L67.8947366,66.315789 L67.8947366,42.8916859 C67.710843,36.3183255 65.6696452,31.3329859 61.7710849,27.9355196 C57.8357449,24.5749804 53.4959021,22.8947366 48.7514272,22.8947366 C42.6093547,22.8947366 37.6442797,24.6725955 33.856056,29.2148617 L33.6353839,29.7081022 L33.6353839,26.0810505 L22.1052634,23.6148491 L22.1052634,66.315789 L22.1052634,66.315789 Z" id="logo" fill="#FFFFFF"></path>
            <path d="M134.335869,42.6713761 L134.335869,71.8207525 L123,71.8207525 L123,17.9753766 L134.335869,17.9753766 L134.335869,27.7930485 C136.157714,24.486737 138.671148,21.8889597 141.876246,19.9996388 C145.081343,18.1103179 148.539424,17.1656717 152.25059,17.1656717 C158.323407,17.1656717 163.232194,19.0212268 166.977097,22.7323929 C170.722001,26.4435589 172.594425,31.8078002 172.594425,38.8252778 L172.594425,71.8207525 L161.258557,71.8207525 L161.258557,42.2665236 C161.258557,32.347589 157.142598,27.3881961 148.910557,27.3881961 C144.996964,27.3881961 141.58949,28.6870847 138.688032,31.2849009 C135.786575,33.8827171 134.335869,37.6781709 134.335869,42.6713761 L134.335869,42.6713761 Z M226.735006,71.8207525 L216.411269,71.8207525 L216.411269,64.6346215 C211.957869,69.9652054 205.986355,72.6304574 198.496548,72.6304574 C192.896061,72.6304574 188.257173,71.0448012 184.579745,67.8734411 C180.902316,64.7020811 179.06363,60.4680415 179.06363,55.1711955 C179.06363,49.8743494 181.020397,45.9102088 184.933991,43.2786547 C188.847584,40.6471007 194.14435,39.3313433 200.824449,39.3313433 L215.500351,39.3313433 L215.500351,37.3070811 C215.500351,30.154652 211.519341,26.5784912 203.557203,26.5784912 C198.563998,26.5784912 193.368444,28.400309 187.970384,32.0439992 L182.909728,24.9590813 C189.454876,19.7634489 196.877096,17.1656717 205.176613,17.1656717 C211.519333,17.1656717 216.698019,18.7681966 220.712826,21.9732945 C224.727633,25.1783925 226.735006,30.2221288 226.735006,37.1046549 L226.735006,71.8207525 Z M215.399137,51.7805562 L215.399137,47.2259661 L202.646285,47.2259661 C194.48172,47.2259661 190.399499,49.790006 190.399499,54.9181627 C190.399499,57.5497168 191.41162,59.5570901 193.435892,60.9403429 C195.460164,62.3235957 198.277234,63.0152117 201.887187,63.0152117 C205.497139,63.0152117 208.651583,62.0030907 211.350613,59.9788183 C214.049643,57.954546 215.399137,55.2218192 215.399137,51.7805562 L215.399137,51.7805562 Z M248.588604,71.8207525 L237.252735,71.8207525 L237.252735,17.9753766 L248.588604,17.9753766 L248.588604,71.8207525 Z M237,6 C237,4.36618901 237.591543,2.95775239 238.774648,1.77464789 C239.957752,0.59154338 241.366189,0 243,0 C244.633811,0 246.042248,0.59154338 247.225352,1.77464789 C248.408457,2.95775239 249,4.36618901 249,6 C249,7.63381099 248.408457,9.04224761 247.225352,10.2253521 C246.042248,11.4084566 244.633811,12 243,12 C241.366189,12 239.957752,11.4084566 238.774648,10.2253521 C237.591543,9.04224761 237,7.63381099 237,6 L237,6 Z M287.95207,28.6027534 C282.351583,28.6027534 278.134413,30.4245712 275.300431,34.0682615 C272.46645,37.7119518 271.049481,42.60387 271.049481,48.7441628 L271.049481,71.8207525 L259.713612,71.8207525 L259.713612,17.9753766 L271.049481,17.9753766 L271.049481,28.8051796 C272.871326,25.4313923 275.351022,22.6649283 278.488644,20.5057044 C281.626267,18.3464805 284.949397,17.2331474 288.458136,17.1656717 L288.559349,28.6027534 L287.95207,28.6027534 L287.95207,28.6027534 Z M337.740487,71.8207525 L327.41675,71.8207525 L327.41675,64.6346215 C322.963351,69.9652054 316.991837,72.6304574 309.502029,72.6304574 C303.901542,72.6304574 299.262654,71.0448012 295.585226,67.8734411 C291.907798,64.7020811 290.069111,60.4680415 290.069111,55.1711955 C290.069111,49.8743494 292.025879,45.9102088 295.939472,43.2786547 C299.853065,40.6471007 305.149832,39.3313433 311.829931,39.3313433 L326.505832,39.3313433 L326.505832,37.3070811 C326.505832,30.154652 322.524823,26.5784912 314.562685,26.5784912 C309.569479,26.5784912 304.373925,28.400309 298.975865,32.0439992 L293.91521,24.9590813 C300.460357,19.7634489 307.882578,17.1656717 316.182094,17.1656717 C322.524814,17.1656717 327.7035,18.7681966 331.718307,21.9732945 C335.733114,25.1783925 337.740487,30.2221288 337.740487,37.1046549 L337.740487,71.8207525 Z M326.404619,51.7805562 L326.404619,47.2259661 L313.651767,47.2259661 C305.487201,47.2259661 301.40498,49.790006 301.40498,54.9181627 C301.40498,57.5497168 302.417101,59.5570901 304.441373,60.9403429 C306.465646,62.3235957 309.282716,63.0152117 312.892668,63.0152117 C316.502621,63.0152117 319.657064,62.0030907 322.356094,59.9788183 C325.055124,57.954546 326.404619,55.2218192 326.404619,51.7805562 L326.404619,51.7805562 Z M403.31815,44.5944252 C403.31815,52.8939419 400.770979,59.6414153 395.67656,64.8370477 C390.582141,70.0326802 384.644365,72.6304574 377.863052,72.6304574 C371.08174,72.6304574 364.992145,69.6615691 359.594085,63.7237035 L359.594085,71.8207525 L348.258217,71.8207525 L348.258217,0 L359.594085,0 L359.594085,27.3881961 C364.047485,20.5731457 369.884049,17.1656717 377.103954,17.1656717 C384.323859,17.1656717 390.497797,19.6622368 395.625953,24.655442 C400.75411,29.6486472 403.31815,36.2949085 403.31815,44.5944252 Z M364.047462,57.6003102 C367.151347,60.8728839 370.929932,62.5091461 375.383331,62.5091461 C379.83673,62.5091461 383.716527,60.8897525 387.022839,57.6509167 C390.32915,54.4120809 391.982281,50.2117788 391.982281,45.0498842 C391.982281,39.8879897 390.362888,35.6033441 387.124052,32.1958189 C383.885216,28.7882937 380.005419,27.0845567 375.484544,27.0845567 C370.963669,27.0845567 367.151347,28.7882937 364.047462,32.1958189 C360.943578,35.6033441 359.391659,39.871121 359.391659,44.9992777 C359.391659,50.1274343 360.943578,54.3277365 364.047462,57.6003102 L364.047462,57.6003102 Z M435.799125,62.5091461 C440.724854,62.5091461 444.790207,60.8728839 447.995305,57.6003102 C451.200403,54.3277365 452.802928,50.093697 452.802928,44.8980645 C452.802928,39.7024321 451.200403,35.4683926 447.995305,32.1958189 C444.790207,28.9232452 440.724854,27.2869829 435.799125,27.2869829 C430.873395,27.2869829 426.808043,28.9232452 423.602945,32.1958189 C420.397847,35.4683926 418.795322,39.7024321 418.795322,44.8980645 C418.795322,50.093697 420.397847,54.3277365 423.602945,57.6003102 C426.808043,60.8728839 430.873395,62.5091461 435.799125,62.5091461 L435.799125,62.5091461 Z M435.799125,72.6304574 C427.702035,72.6304574 420.954562,69.9483367 415.556502,64.584015 C410.158442,59.2196932 407.459453,52.6577753 407.459453,44.8980645 C407.459453,37.1383538 410.158442,30.5764359 415.556502,25.2121141 C420.954562,19.8477923 427.702035,17.1656717 435.799125,17.1656717 C443.896214,17.1656717 450.643688,19.8477923 456.041747,25.2121141 C461.439807,30.5764359 464.138796,37.1383538 464.138796,44.8980645 C464.138796,52.6577753 461.439807,59.2196932 456.041747,64.584015 C450.643688,69.9483367 443.896214,72.6304574 435.799125,72.6304574 L435.799125,72.6304574 Z M480.32446,17.9753766 L491.862755,35.6876713 L503.805902,17.9753766 L517.267246,17.9753766 L498.441607,44.2907859 L518.076951,71.8207525 L504.109541,71.8207525 L491.255476,53.9060316 L478.70505,71.8207525 L465.446132,71.8207525 L484.575411,44.391999 L466.458263,17.9753766 L480.32446,17.9753766 Z" id="nairabox" fill="#FFFFFF"></path>
        </g>
    </g>
</svg>