<?xml version="1.0" encoding="UTF-8"?>
<svg width="338px" height="92px" viewBox="0 0 338 92" version="1.1" xmlns="http://www.w3.org/2000/svg" xmlns:xlink="http://www.w3.org/1999/xlink">
    <!-- Generator: Sketch 41.1 (35376) - http://www.bohemiancoding.com/sketch -->
    <title>Group</title>
    <desc>Created with Sketch.</desc>
    <defs>
        <linearGradient x1="0%" y1="0%" x2="100%" y2="100%" id="linearGradient-1">
            <stop stop-color="#FFFFFF" stop-opacity="0.5" offset="0%"></stop>
            <stop stop-color="#FFFFFF" offset="100%"></stop>
        </linearGradient>
    </defs>
    <g id="Page-1" stroke="none" stroke-width="1" fill="none" fill-rule="evenodd">
        <path d="M2,24.0029678 C2,9.08964038 9.0910725,2 24.0029678,2 L69.9970322,2 C84.9103596,2 92,9.0910725 92,24.0029678 L92,69.9970322 C92,84.9103596 84.9089275,92 69.9970322,92 L24.0029678,92 C9.08964038,92 2,84.9089275 2,69.9970322 L2,24.0029678 Z M24.1052634,68.315789 L35.6353839,68.315789 L35.6353839,48.8799976 C35.6353839,44.8547375 36.720344,41.7896772 38.890298,39.6847246 C41.0234724,37.5428427 43.745069,36.4719181 47.0551677,36.4719181 C50.3652665,36.4719181 53.0684739,37.5428427 55.1648697,39.6847246 C57.2980452,41.7896772 58.3646161,44.8547375 58.3646161,48.8799976 L58.3646161,68.315789 L69.8947366,68.315789 L69.8947366,44.8916859 C69.710843,38.3183255 67.6696452,33.3329859 63.7710849,29.9355196 C59.8357449,26.5749804 55.4959021,24.8947366 50.7514272,24.8947366 C44.6093547,24.8947366 39.6442797,26.6725955 35.856056,31.2148617 L35.6353839,31.7081022 L35.6353839,28.0810505 L24.1052634,25.6148491 L24.1052634,68.315789 L24.1052634,68.315789 Z" id="logo" fill="#FFFFFF"></path>
        <path d="M332.817706,49.8061028 C331.353539,61.1182343 321.248255,69.8753388 309,69.8753388 C295.745166,69.8753388 285,59.6197476 285,46.9688347 C285,34.3179218 295.745166,24.0623306 309,24.0623306 C321.490641,24.0623306 331.752656,33.1694611 332.894428,44.8061028 L321.418679,44.8061028 C321.012413,44.2511128 320.464214,43.7277809 319.77404,43.2584689 L312.415811,38.2549421 C305.910363,33.8312978 300.869506,36.5293313 300.946333,44.4030971 L300.998716,49.7716193 C301.075652,57.6566271 306.277163,60.4012219 312.830238,56.0148601 L319.74586,51.3858245 C320.457941,50.9091862 321.020636,50.3745498 321.433901,49.8061028 L332.817706,49.8061028 Z M156.03125,69.3766938 L156.03125,44.8807588 L148.34375,65.0447154 L138.625,65.0447154 L130.9375,44.8807588 L130.9375,69.3766938 L118,69.3766938 L118,24.6233062 L133.6875,24.6233062 L143.5,47.99729 L153.28125,24.6233062 L168.96875,24.6233062 L168.96875,69.3766938 L156.03125,69.3766938 Z M215.15625,60.7283198 C213.406241,63.6890392 210.921891,65.9744725 207.703125,67.5846883 C204.484359,69.1949042 200.718772,70 196.40625,70 C192.093728,70 188.296891,69.1949042 185.015625,67.5846883 C181.734359,65.9744725 179.197926,63.6890392 177.40625,60.7283198 C175.614574,57.7676004 174.71875,54.3342562 174.71875,50.4281843 L174.71875,24.6233062 L189.5625,24.6233062 L189.5625,50.4281843 C189.5625,52.5474361 190.234368,54.2874819 191.578125,55.648374 C192.921882,57.0092661 194.552074,57.6897019 196.46875,57.6897019 C198.343759,57.6897019 199.890619,57.0300427 201.109375,55.7107046 C202.328131,54.3913665 202.9375,52.630544 202.9375,50.4281843 L202.9375,24.6233062 L217.78125,24.6233062 L217.78125,50.4281843 C217.78125,54.3342562 216.906259,57.7676004 215.15625,60.7283198 Z M253.46875,25.4336043 C256.947934,26.3893453 259.968737,27.6774987 262.53125,29.298103 L257.15625,40.5176152 C254.635404,39.1463346 251.89064,37.9308996 248.921875,36.8712737 C245.95311,35.8116478 243.552093,35.2818428 241.71875,35.2818428 C239.885408,35.2818428 238.96875,35.9051428 238.96875,37.1517615 C238.96875,38.0867255 239.546869,38.819103 240.703125,39.348916 C241.859381,39.8787289 243.687487,40.4656698 246.1875,41.1097561 C249.437516,41.9616122 252.119781,42.8342322 254.234375,43.7276423 C256.348969,44.6210523 258.203117,46.013089 259.796875,47.903794 C261.390633,49.7944991 262.1875,52.3188641 262.1875,55.4769648 C262.1875,58.6766194 261.348967,61.3464211 259.671875,63.4864499 C257.994783,65.6264786 255.723973,67.2158936 252.859375,68.2547425 C249.994777,69.2935915 246.812518,69.8130081 243.3125,69.8130081 C239.354147,69.8130081 235.359395,69.1897081 231.328125,67.9430894 C227.296855,66.6964707 223.802098,64.9408424 220.84375,62.6761518 L226.375,51.5813008 C228.645845,53.4512289 231.484358,55.077003 234.890625,56.4586721 C238.296892,57.8403411 241.145822,58.5311653 243.4375,58.5311653 C245.833345,58.5311653 247.03125,57.7624286 247.03125,56.2249322 C247.03125,55.2484143 246.442714,54.4952601 245.265625,53.9654472 C244.088536,53.4356342 242.19793,52.8486934 239.59375,52.204607 C236.427068,51.4358588 233.781261,50.6255688 231.65625,49.7737127 C229.531239,48.9218566 227.692716,47.59215 226.140625,45.7845528 C224.588534,43.9769557 223.8125,41.5668624 223.8125,38.5542005 C223.8125,35.6246466 224.59895,33.0639224 226.171875,30.8719512 C227.7448,28.67998 229.98436,26.9866817 232.890625,25.7920054 C235.79689,24.5973292 239.166647,24 243,24 C246.500018,24 249.989566,24.4778633 253.46875,25.4336043 Z M266,69.3766938 L266,24.6233062 L280.875,24.6233062 L280.875,69.3766938 L266,69.3766938 Z" id="Combined-Shape" fill="url(#linearGradient-1)"></path>
    </g>
</svg>