<?xml version="1.0" encoding="UTF-8" standalone="no"?>
<svg width="562px" height="170px" viewBox="0 0 562 170" version="1.1" xmlns="http://www.w3.org/2000/svg" xmlns:xlink="http://www.w3.org/1999/xlink">
    <!-- Generator: Sketch 39.1 (31720) - http://www.bohemiancoding.com/sketch -->
    <title>logo + nairabox</title>
    <desc>Created with Sketch.</desc>
    <defs></defs>
    <g id="Page-1" stroke="none" stroke-width="1" fill="none" fill-rule="evenodd">
        <path d="M25,64.0029678 C25,49.0896404 32.0910725,42 47.0029678,42 L92.9970322,42 C107.91036,42 115,49.0910725 115,64.0029678 L115,109.997032 C115,124.91036 107.908927,132 92.9970322,132 L47.0029678,132 C32.0896404,132 25,124.908927 25,109.997032 L25,64.0029678 Z M47.1052634,108.315789 L58.6353839,108.315789 L58.6353839,88.8799976 C58.6353839,84.8547375 59.720344,81.7896772 61.890298,79.6847246 C64.0234724,77.5428427 66.745069,76.4719181 70.0551677,76.4719181 C73.3652665,76.4719181 76.0684739,77.5428427 78.1648697,79.6847246 C80.2980452,81.7896772 81.3646161,84.8547375 81.3646161,88.8799976 L81.3646161,108.315789 L92.8947366,108.315789 L92.8947366,84.8916859 C92.710843,78.3183255 90.6696452,73.3329859 86.7710849,69.9355196 C82.8357449,66.5749804 78.4959021,64.8947366 73.7514272,64.8947366 C67.6093547,64.8947366 62.6442797,66.6725955 58.856056,71.2148617 L58.6353839,71.7081022 L58.6353839,68.0810505 L47.1052634,65.6148491 L47.1052634,108.315789 L47.1052634,108.315789 Z" id="logo" fill="#FFFFFF"></path>
        <path d="M159.335869,84.6713761 L159.335869,113.820753 L148,113.820753 L148,59.9753766 L159.335869,59.9753766 L159.335869,69.7930485 C161.157714,66.486737 163.671148,63.8889597 166.876246,61.9996388 C170.081343,60.1103179 173.539424,59.1656717 177.25059,59.1656717 C183.323407,59.1656717 188.232194,61.0212268 191.977097,64.7323929 C195.722001,68.4435589 197.594425,73.8078002 197.594425,80.8252778 L197.594425,113.820753 L186.258557,113.820753 L186.258557,84.2665236 C186.258557,74.347589 182.142598,69.3881961 173.910557,69.3881961 C169.996964,69.3881961 166.58949,70.6870847 163.688032,73.2849009 C160.786575,75.8827171 159.335869,79.6781709 159.335869,84.6713761 L159.335869,84.6713761 Z M251.735006,113.820753 L241.411269,113.820753 L241.411269,106.634622 C236.957869,111.965205 230.986355,114.630457 223.496548,114.630457 C217.896061,114.630457 213.257173,113.044801 209.579745,109.873441 C205.902316,106.702081 204.06363,102.468042 204.06363,97.1711955 C204.06363,91.8743494 206.020397,87.9102088 209.933991,85.2786547 C213.847584,82.6471007 219.14435,81.3313433 225.824449,81.3313433 L240.500351,81.3313433 L240.500351,79.3070811 C240.500351,72.154652 236.519341,68.5784912 228.557203,68.5784912 C223.563998,68.5784912 218.368444,70.400309 212.970384,74.0439992 L207.909728,66.9590813 C214.454876,61.7634489 221.877096,59.1656717 230.176613,59.1656717 C236.519333,59.1656717 241.698019,60.7681966 245.712826,63.9732945 C249.727633,67.1783925 251.735006,72.2221288 251.735006,79.1046549 L251.735006,113.820753 Z M240.399137,93.7805562 L240.399137,89.2259661 L227.646285,89.2259661 C219.48172,89.2259661 215.399499,91.790006 215.399499,96.9181627 C215.399499,99.5497168 216.41162,101.55709 218.435892,102.940343 C220.460164,104.323596 223.277234,105.015212 226.887187,105.015212 C230.497139,105.015212 233.651583,104.003091 236.350613,101.978818 C239.049643,99.954546 240.399137,97.2218192 240.399137,93.7805562 L240.399137,93.7805562 Z M273.588604,113.820753 L262.252735,113.820753 L262.252735,59.9753766 L273.588604,59.9753766 L273.588604,113.820753 Z M262,48 C262,46.366189 262.591543,44.9577524 263.774648,43.7746479 C264.957752,42.5915434 266.366189,42 268,42 C269.633811,42 271.042248,42.5915434 272.225352,43.7746479 C273.408457,44.9577524 274,46.366189 274,48 C274,49.633811 273.408457,51.0422476 272.225352,52.2253521 C271.042248,53.4084566 269.633811,54 268,54 C266.366189,54 264.957752,53.4084566 263.774648,52.2253521 C262.591543,51.0422476 262,49.633811 262,48 L262,48 Z M312.95207,70.6027534 C307.351583,70.6027534 303.134413,72.4245712 300.300431,76.0682615 C297.46645,79.7119518 296.049481,84.60387 296.049481,90.7441628 L296.049481,113.820753 L284.713612,113.820753 L284.713612,59.9753766 L296.049481,59.9753766 L296.049481,70.8051796 C297.871326,67.4313923 300.351022,64.6649283 303.488644,62.5057044 C306.626267,60.3464805 309.949397,59.2331474 313.458136,59.1656717 L313.559349,70.6027534 L312.95207,70.6027534 L312.95207,70.6027534 Z M362.740487,113.820753 L352.41675,113.820753 L352.41675,106.634622 C347.963351,111.965205 341.991837,114.630457 334.502029,114.630457 C328.901542,114.630457 324.262654,113.044801 320.585226,109.873441 C316.907798,106.702081 315.069111,102.468042 315.069111,97.1711955 C315.069111,91.8743494 317.025879,87.9102088 320.939472,85.2786547 C324.853065,82.6471007 330.149832,81.3313433 336.829931,81.3313433 L351.505832,81.3313433 L351.505832,79.3070811 C351.505832,72.154652 347.524823,68.5784912 339.562685,68.5784912 C334.569479,68.5784912 329.373925,70.400309 323.975865,74.0439992 L318.91521,66.9590813 C325.460357,61.7634489 332.882578,59.1656717 341.182094,59.1656717 C347.524814,59.1656717 352.7035,60.7681966 356.718307,63.9732945 C360.733114,67.1783925 362.740487,72.2221288 362.740487,79.1046549 L362.740487,113.820753 Z M351.404619,93.7805562 L351.404619,89.2259661 L338.651767,89.2259661 C330.487201,89.2259661 326.40498,91.790006 326.40498,96.9181627 C326.40498,99.5497168 327.417101,101.55709 329.441373,102.940343 C331.465646,104.323596 334.282716,105.015212 337.892668,105.015212 C341.502621,105.015212 344.657064,104.003091 347.356094,101.978818 C350.055124,99.954546 351.404619,97.2218192 351.404619,93.7805562 L351.404619,93.7805562 Z M428.31815,86.5944252 C428.31815,94.8939419 425.770979,101.641415 420.67656,106.837048 C415.582141,112.03268 409.644365,114.630457 402.863052,114.630457 C396.08174,114.630457 389.992145,111.661569 384.594085,105.723703 L384.594085,113.820753 L373.258217,113.820753 L373.258217,42 L384.594085,42 L384.594085,69.3881961 C389.047485,62.5731457 394.884049,59.1656717 402.103954,59.1656717 C409.323859,59.1656717 415.497797,61.6622368 420.625953,66.655442 C425.75411,71.6486472 428.31815,78.2949085 428.31815,86.5944252 Z M389.047462,99.6003102 C392.151347,102.872884 395.929932,104.509146 400.383331,104.509146 C404.83673,104.509146 408.716527,102.889753 412.022839,99.6509167 C415.32915,96.4120809 416.982281,92.2117788 416.982281,87.0498842 C416.982281,81.8879897 415.362888,77.6033441 412.124052,74.1958189 C408.885216,70.7882937 405.005419,69.0845567 400.484544,69.0845567 C395.963669,69.0845567 392.151347,70.7882937 389.047462,74.1958189 C385.943578,77.6033441 384.391659,81.871121 384.391659,86.9992777 C384.391659,92.1274343 385.943578,96.3277365 389.047462,99.6003102 L389.047462,99.6003102 Z M460.799125,104.509146 C465.724854,104.509146 469.790207,102.872884 472.995305,99.6003102 C476.200403,96.3277365 477.802928,92.093697 477.802928,86.8980645 C477.802928,81.7024321 476.200403,77.4683926 472.995305,74.1958189 C469.790207,70.9232452 465.724854,69.2869829 460.799125,69.2869829 C455.873395,69.2869829 451.808043,70.9232452 448.602945,74.1958189 C445.397847,77.4683926 443.795322,81.7024321 443.795322,86.8980645 C443.795322,92.093697 445.397847,96.3277365 448.602945,99.6003102 C451.808043,102.872884 455.873395,104.509146 460.799125,104.509146 L460.799125,104.509146 Z M460.799125,114.630457 C452.702035,114.630457 445.954562,111.948337 440.556502,106.584015 C435.158442,101.219693 432.459453,94.6577753 432.459453,86.8980645 C432.459453,79.1383538 435.158442,72.5764359 440.556502,67.2121141 C445.954562,61.8477923 452.702035,59.1656717 460.799125,59.1656717 C468.896214,59.1656717 475.643688,61.8477923 481.041747,67.2121141 C486.439807,72.5764359 489.138796,79.1383538 489.138796,86.8980645 C489.138796,94.6577753 486.439807,101.219693 481.041747,106.584015 C475.643688,111.948337 468.896214,114.630457 460.799125,114.630457 L460.799125,114.630457 Z M505.32446,59.9753766 L516.862755,77.6876713 L528.805902,59.9753766 L542.267246,59.9753766 L523.441607,86.2907859 L543.076951,113.820753 L529.109541,113.820753 L516.255476,95.9060316 L503.70505,113.820753 L490.446132,113.820753 L509.575411,86.391999 L491.458263,59.9753766 L505.32446,59.9753766 Z" id="nairabox" fill="#FFFFFF"></path>
        <path d="M398.2875,133.375 C399.479173,134.475005 400.075,136.041657 400.075,138.075 C400.075,141.258349 399.258342,143.745824 397.625,145.5375 C395.991658,147.329176 393.641682,148.225 390.575,148.225 C388.674991,148.225 386.566678,148.150001 384.25,148 L385.075,143.25 L386.225,131.825 L393.3,131.725 C395.433344,131.725 397.095827,132.274995 398.2875,133.375 L398.2875,133.375 Z M394.8,138.8 C394.8,137.649994 394.629168,136.829169 394.2875,136.3375 C393.945832,135.845831 393.391671,135.6 392.625,135.6 C392.00833,135.6 391.375003,135.633333 390.725,135.7 L389.675,142.75 L389.55,144.325 C390.550005,144.458334 391.274998,144.525 391.725,144.525 C393.77501,144.525 394.8,142.616686 394.8,138.8 L394.8,138.8 Z M414.7125,133.2875 C415.904173,134.462506 416.5,136.249988 416.5,138.65 C416.5,140.516676 416.15417,142.179159 415.4625,143.6375 C414.77083,145.095841 413.75834,146.237496 412.425,147.0625 C411.09166,147.887504 409.491676,148.3 407.625,148.3 C405.441656,148.3 403.750006,147.704173 402.55,146.5125 C401.349994,145.320827 400.75,143.516679 400.75,141.1 C400.75,139.233324 401.09583,137.579174 401.7875,136.1375 C402.47917,134.695826 403.495827,133.566671 404.8375,132.75 C406.179173,131.933329 407.783324,131.525 409.65,131.525 C411.833344,131.525 413.520827,132.112494 414.7125,133.2875 L414.7125,133.2875 Z M407.4125,135.95 C406.970831,136.250002 406.620835,136.812496 406.3625,137.6375 C406.104165,138.462504 405.975,139.641659 405.975,141.175 C405.975,142.075004 406.033333,142.766664 406.15,143.25 C406.266667,143.733336 406.479165,144.083332 406.7875,144.3 C407.095835,144.516668 407.549997,144.625 408.15,144.625 C408.800003,144.625 409.349998,144.475001 409.8,144.175 C410.250002,143.874998 410.604165,143.312504 410.8625,142.4875 C411.120835,141.662496 411.25,140.483341 411.25,138.95 C411.25,138.066662 411.191667,137.379169 411.075,136.8875 C410.958333,136.395831 410.745835,136.041668 410.4375,135.825 C410.129165,135.608332 409.675003,135.5 409.075,135.5 C408.40833,135.5 407.854169,135.649999 407.4125,135.95 L407.4125,135.95 Z M425.55,148 L420.55,148 L421.4,143.25 L422.55,131.825 L427.625,131.825 L426,142.75 L425.55,148 Z M441.25,135.8 L437.975,135.65 L437.65,135.65 L436.65,142.75 L436.2,148 L431.225,148 L432.075,143.25 L432.875,135.65 L432.55,135.65 L429.2,135.8 L428.95,135.45 L429.675,131.825 L441.725,131.825 L441.95,132.175 L441.25,135.8 Z M458.9,153.125 L458.55,153.3 C455.899987,151.883326 453.566677,150.216676 451.55,148.3 L451.475,148.3 C449.291656,148.3 447.612506,147.704173 446.4375,146.5125 C445.262494,145.320827 444.675,143.516679 444.675,141.1 C444.675,139.233324 445.024997,137.579174 445.725,136.1375 C446.425004,134.695826 447.45416,133.566671 448.8125,132.75 C450.17084,131.933329 451.783324,131.525 453.65,131.525 C455.833344,131.525 457.508327,132.112494 458.675,133.2875 C459.841672,134.462506 460.425,136.249988 460.425,138.65 C460.425,140.550009 460.062504,142.237493 459.3375,143.7125 C458.612496,145.187507 457.575007,146.324996 456.225,147.125 C457.891675,148.075005 459.658324,148.874997 461.525,149.525 L461.675,149.975 C460.841662,151.25834 459.916672,152.308329 458.9,153.125 L458.9,153.125 Z M450.075,143.25 C450.191667,143.733336 450.404165,144.083332 450.7125,144.3 C451.020835,144.516668 451.474997,144.625 452.075,144.625 C452.725003,144.625 453.274998,144.475001 453.725,144.175 C454.175002,143.874998 454.529165,143.312504 454.7875,142.4875 C455.045835,141.662496 455.175,140.483341 455.175,138.95 C455.175,138.066662 455.116667,137.379169 455,136.8875 C454.883333,136.395831 454.670835,136.041668 454.3625,135.825 C454.054165,135.608332 453.600003,135.5 453,135.5 C452.33333,135.5 451.779169,135.649999 451.3375,135.95 C450.895831,136.250002 450.545835,136.812496 450.2875,137.6375 C450.029165,138.462504 449.9,139.641659 449.9,141.175 C449.9,142.075004 449.958333,142.766664 450.075,143.25 L450.075,143.25 Z M475.55,142.6 C475.316665,144.450009 474.566673,145.862495 473.3,146.8375 C472.033327,147.812505 470.283344,148.3 468.05,148.3 C466.066657,148.3 464.520839,147.900004 463.4125,147.1 C462.304161,146.299996 461.75,145.158341 461.75,143.675 C461.75,143.324998 461.775,142.966668 461.825,142.6 L462.2,140.025 L463.05,131.825 L468.05,131.825 L466.6,141.925 C466.566666,142.258335 466.55,142.483333 466.55,142.6 C466.55,143.21667 466.699998,143.666665 467,143.95 C467.300002,144.233335 467.791663,144.375 468.475,144.375 C469.258337,144.375 469.849998,144.183335 470.25,143.8 C470.650002,143.416665 470.891666,142.791671 470.975,141.925 L471.975,131.825 L477.05,131.825 L475.875,140.025 L475.55,142.6 Z M482.725,148 L477.725,148 L478.575,143.25 L479.725,131.825 L484.8,131.825 L483.175,142.75 L482.725,148 Z M499.225,132.225 L497.9,136.2 L497.55,136.375 C497.149998,136.141666 496.675003,135.954167 496.125,135.8125 C495.574997,135.670833 495.058336,135.6 494.575,135.6 C493.308327,135.6 492.412503,135.999996 491.8875,136.8 C491.362497,137.600004 491.1,138.874991 491.1,140.625 C491.1,141.841673 491.320831,142.73333 491.7625,143.3 C492.204169,143.866669 492.891662,144.15 493.825,144.15 C494.925005,144.15 495.983328,143.975002 497,143.625 L497.35,143.85 L496.475,147.8 C495.441662,148.116668 494.341672,148.275 493.175,148.275 C490.774988,148.275 488.937506,147.683339 487.6625,146.5 C486.387494,145.316661 485.75,143.625011 485.75,141.425 C485.75,138.324985 486.554159,135.904175 488.1625,134.1625 C489.770841,132.420825 492.058319,131.55 495.025,131.55 C496.608341,131.55 498.008327,131.774998 499.225,132.225 L499.225,132.225 Z M513.575,146.95 L513.45,147.5 C511.633324,147.900002 509.941675,148.166666 508.375,148.3 L507.85,148 C506.51666,145.083319 505.425004,142.60001 504.575,140.55 L504.25,142.75 L503.8,148 L498.8,148 L499.65,143.25 L500.8,131.825 L505.875,131.825 L504.875,138.6 L508.6,133.575 L509.675,131.825 L514.95,131.825 L509.225,139.75 C510.375006,141.883344 511.824991,144.28332 513.575,146.95 L513.575,146.95 Z M520.7,137.95 L523.15,137.95 L525.775,137.875 L526,138.225 L525.25,141.875 L522.375,141.8 L520.125,141.8 L519.975,142.75 L519.85,144.175 L522.25,144.175 L526.425,144.025 L526.65,144.375 L525.9,148 L514.525,148 L515.35,143.25 L516.525,131.825 L528.1,131.825 L528.325,132.175 L527.55,135.8 L523.6,135.65 L521.025,135.65 L520.7,137.95 Z M541.9375,139.2875 C541.362497,140.262505 540.550005,141.08333 539.5,141.75 C540.516672,143.666676 541.483329,145.358326 542.4,146.825 L542.275,147.375 C540.508325,147.891669 538.800008,148.199999 537.15,148.3 L536.725,147.9 C535.874996,145.399987 535.350001,143.825003 535.15,143.175 L533.45,143.175 L533.025,148 L528.025,148 L528.875,143.25 L530.025,131.825 L537.425,131.8 C539.091675,131.8 540.404162,132.179163 541.3625,132.9375 C542.320838,133.695837 542.8,134.758326 542.8,136.125 C542.8,137.258339 542.512503,138.312495 541.9375,139.2875 L541.9375,139.2875 Z M536.9875,135.7 C536.679165,135.433332 536.183337,135.283334 535.5,135.25 L534.575,135.325 L533.95,139.525 L535.775,139.625 C536.375003,139.374999 536.804165,139.033336 537.0625,138.6 C537.320835,138.166665 537.45,137.61667 537.45,136.95 C537.45,136.383331 537.295835,135.966668 536.9875,135.7 L536.9875,135.7 Z" id="DO-IT-QUICKER" fill="#B0B0B0"></path>
    </g>
</svg>