<?xml version="1.0" encoding="UTF-8" standalone="no"?>
<svg width="80px" height="80px" viewBox="0 0 80 80" version="1.1" xmlns="http://www.w3.org/2000/svg" xmlns:xlink="http://www.w3.org/1999/xlink" xmlns:sketch="http://www.bohemiancoding.com/sketch/ns">
    <!-- Generator: Sketch 3.4.2 (15855) - http://www.bohemiancoding.com/sketch -->
    <title>nairabox</title>
    <desc>Created with Sketch.</desc>
    <defs></defs>
    <g id="Page-1" stroke="none" stroke-width="1" fill="none" fill-rule="evenodd" sketch:type="MSPage">
        <g id="nairabox" sketch:type="MSLayerGroup" fill="#8AC186">
            <path d="M0,19.4860485 C0,6.22975749 6.23103049,0 19.4860485,0 L60.5139515,0 C73.7702425,0 80,6.23103049 80,19.4860485 L80,60.5139515 C80,73.7702425 73.7689695,80 60.5139515,80 L19.4860485,80 C6.22975749,80 0,73.7689695 0,60.5139515 L0,19.4860485 Z M19.649123,58.947368 L29.898119,58.947368 L29.898119,41.671109 C29.898119,38.0931 30.862528,35.368602 32.791376,33.497533 C34.687531,31.593638 37.106728,30.641705 40.049038,30.641705 C42.991348,30.641705 45.394199,31.593638 47.257662,33.497533 C49.153818,35.368602 50.101881,38.0931 50.101881,41.671109 L50.101881,58.947368 L60.350877,58.947368 L60.350877,38.125943 C60.187416,32.282956 58.373018,27.851543 54.907631,24.831573 C51.409551,21.844427 47.551913,20.350877 43.334602,20.350877 C37.874982,20.350877 33.461582,21.931196 30.094272,25.968766 L29.898119,26.407202 L29.898119,23.183156 L19.649123,20.990977 L19.649123,58.947368 L19.649123,58.947368 Z" id="logo" sketch:type="MSShapeGroup"></path>
        </g>
    </g>
</svg>