<?xml version="1.0" encoding="UTF-8" standalone="no"?>
<svg width="100px" height="22px" viewBox="0 0 100 22" version="1.1" xmlns="http://www.w3.org/2000/svg" xmlns:xlink="http://www.w3.org/1999/xlink">
    <!-- Generator: Sketch 39.1 (31720) - http://www.bohemiancoding.com/sketch -->
    <title>Group</title>
    <desc>Created with Sketch.</desc>
    <defs></defs>
    <g id="Page-1" stroke="none" stroke-width="1" fill="none" fill-rule="evenodd">
        <g id="PUSH-Notifications" transform="translate(-28.000000, -221.000000)">
            <g id="Group" transform="translate(28.000000, 221.000000)">
                <path d="M0,4.23394546 C0,1.36423191 1.36629528,0 4.23949282,0 L13.1015476,0 C15.9750211,0 17.3410405,1.36450749 17.3410405,4.23394546 L17.3410405,13.0844043 C17.3410405,15.9541178 15.9747452,17.3183498 13.1015476,17.3183498 L4.23949282,17.3183498 C1.36601934,17.3183498 0,15.9538423 0,13.0844043 L0,4.23394546 Z M4.25920296,12.7608892 L6.48080614,12.7608892 L6.48080614,9.0209355 C6.48080614,8.24637036 6.68985434,7.65657275 7.10795723,7.2515249 C7.51897348,6.83937091 8.0433659,6.63329705 8.68114986,6.63329705 C9.31893382,6.63329705 9.83978302,6.83937091 10.2437129,7.2515249 C10.6547293,7.65657275 10.8602343,8.24637036 10.8602343,9.0209355 L10.8602343,12.7608892 L13.0818375,12.7608892 L13.0818375,8.25348019 C13.0464052,6.98859404 12.6531108,6.02928454 11.9019431,5.37552333 C11.1436888,4.72886784 10.3074956,4.40554507 9.39333858,4.40554507 C8.20989494,4.40554507 7.25323309,4.74765154 6.52332486,5.62170215 L6.48080614,5.7166145 L6.48080614,5.01867505 L4.25920296,4.54411352 L4.25920296,12.7608892 L4.25920296,12.7608892 Z" id="logo" fill="#67A761"></path>
                <path d="M25.883597,8.21108684 L25.883597,13.8201879 L23.699422,13.8201879 L23.699422,3.45893176 L25.883597,3.45893176 L25.883597,5.34810816 C26.2346269,4.7118875 26.7189109,4.21200733 27.3364635,3.84845267 C27.9540161,3.484898 28.6203128,3.3031234 29.3353737,3.3031234 C30.5054733,3.3031234 31.4512897,3.66018066 32.1728511,4.37430589 C32.8944126,5.08843113 33.2551879,6.12065121 33.2551879,7.47099711 L33.2551879,13.8201879 L31.0710128,13.8201879 L31.0710128,8.13318265 C31.0710128,6.22452066 30.2779572,5.27020398 28.6918221,5.27020398 C27.9377579,5.27020398 27.2812119,5.52014406 26.7221643,6.02003173 C26.1631166,6.51991939 25.883597,7.25026379 25.883597,8.21108684 L25.883597,8.21108684 Z M43.686899,13.8201879 L41.6977396,13.8201879 L41.6977396,12.4373887 C40.8396665,13.4631322 39.6890858,13.9759963 38.2459629,13.9759963 C37.166871,13.9759963 36.2730583,13.6708746 35.564498,13.0606221 C34.8559377,12.4503697 34.5016628,11.6356299 34.5016628,10.6163784 C34.5016628,9.59712697 34.8786893,8.83432282 35.6327535,8.32794311 C36.3868177,7.8215634 37.4073893,7.56837734 38.6944989,7.56837734 L41.5222255,7.56837734 L41.5222255,7.17885643 C41.5222255,5.80254234 40.7551717,5.11439562 39.2210411,5.11439562 C38.2589592,5.11439562 37.2578889,5.46496093 36.2178004,6.16610207 L35.2427222,4.80277889 C36.5038296,3.80300356 37.9339299,3.3031234 39.5330661,3.3031234 C40.7551702,3.3031234 41.7529902,3.61149103 42.526556,4.22823555 C43.3001219,4.84498007 43.686899,5.81552663 43.686899,7.13990434 L43.686899,13.8201879 Z M41.502724,9.96393092 L41.502724,9.08750888 L39.045527,9.08750888 C37.4723931,9.08750888 36.6858379,9.58089709 36.6858379,10.5676883 C36.6858379,11.074068 36.8808516,11.4603391 37.2708848,11.726513 C37.660918,11.992687 38.2037061,12.125772 38.8992653,12.125772 C39.5948245,12.125772 40.2026172,11.9310135 40.7226615,11.5414906 C41.2427057,11.1519677 41.502724,10.6261198 41.502724,9.96393092 L41.502724,9.96393092 Z M47.8976116,13.8201879 L45.7134365,13.8201879 L45.7134365,3.45893176 L47.8976116,3.45893176 L47.8976116,13.8201879 Z M45.6647399,1.15455665 C45.6647399,0.84016876 45.7787174,0.569148783 46.0066759,0.341488587 C46.2346344,0.113828391 46.5060094,0 46.8208092,0 C47.1356091,0 47.4069841,0.113828391 47.6349426,0.341488587 C47.8629011,0.569148783 47.9768786,0.84016876 47.9768786,1.15455665 C47.9768786,1.46894454 47.8629011,1.73996452 47.6349426,1.96762471 C47.4069841,2.19528491 47.1356091,2.3091133 46.8208092,2.3091133 C46.5060094,2.3091133 46.2346344,2.19528491 46.0066759,1.96762471 C45.7787174,1.73996452 45.6647399,1.46894454 45.6647399,1.15455665 L45.6647399,1.15455665 Z M55.4820945,5.50391653 C54.4030026,5.50391653 53.5904456,5.85448184 53.0443991,6.55562298 C52.4983526,7.25676412 52.2253334,8.1980969 52.2253334,9.37964956 L52.2253334,13.8201879 L50.0411584,13.8201879 L50.0411584,3.45893176 L52.2253334,3.45893176 L52.2253334,5.54286862 C52.5763633,4.89366386 53.0541468,4.36132394 53.6586983,3.9458329 C54.2632498,3.53034185 54.9035447,3.31610749 55.5796023,3.3031234 L55.5991039,5.50391653 L55.4820945,5.50391653 L55.4820945,5.50391653 Z M65.0752384,13.8201879 L63.086079,13.8201879 L63.086079,12.4373887 C62.2280059,13.4631322 61.0774252,13.9759963 59.6343023,13.9759963 C58.5552104,13.9759963 57.6613977,13.6708746 56.9528374,13.0606221 C56.244277,12.4503697 55.8900022,11.6356299 55.8900022,10.6163784 C55.8900022,9.59712697 56.2670286,8.83432282 57.0210928,8.32794311 C57.7751571,7.8215634 58.7957286,7.56837734 60.0828383,7.56837734 L62.9105649,7.56837734 L62.9105649,7.17885643 C62.9105649,5.80254234 62.1435111,5.11439562 60.6093805,5.11439562 C59.6472985,5.11439562 58.6462283,5.46496093 57.6061397,6.16610207 L56.6310616,4.80277889 C57.892169,3.80300356 59.3222693,3.3031234 60.9214055,3.3031234 C62.1435095,3.3031234 63.1413295,3.61149103 63.9148954,4.22823555 C64.6884613,4.84498007 65.0752384,5.81552663 65.0752384,7.13990434 L65.0752384,13.8201879 Z M62.8910633,9.96393092 L62.8910633,9.08750888 L60.4338664,9.08750888 C58.8607324,9.08750888 58.0741772,9.58089709 58.0741772,10.5676883 C58.0741772,11.074068 58.2691909,11.4603391 58.6592241,11.726513 C59.0492574,11.992687 59.5920454,12.125772 60.2876047,12.125772 C60.9831639,12.125772 61.5909565,11.9310135 62.1110008,11.5414906 C62.6310451,11.1519677 62.8910633,10.6261198 62.8910633,9.96393092 L62.8910633,9.96393092 Z M77.7106262,8.5811317 C77.7106262,10.1781754 77.2198418,11.4765654 76.2382582,12.4763408 C75.2566746,13.4761161 74.1125943,13.9759963 72.8059831,13.9759963 C71.4993718,13.9759963 70.3260395,13.4047047 69.2859509,12.2621043 L69.2859509,13.8201879 L67.1017758,13.8201879 L67.1017758,0 L69.2859509,0 L69.2859509,5.27020398 C70.144024,3.95881037 71.2686029,3.3031234 72.6597213,3.3031234 C74.0508398,3.3031234 75.2404233,3.78352771 76.2285074,4.74435076 C77.2165915,5.7051738 77.7106262,6.98408799 77.7106262,8.5811317 Z M70.1440197,11.0838035 C70.7420706,11.7135321 71.4701217,12.0283917 72.3281948,12.0283917 C73.1862678,12.0283917 73.9338203,11.7167781 74.5708745,11.0935416 C75.2079288,10.470305 75.5264511,9.66205718 75.5264511,8.6687739 C75.5264511,7.67549062 75.2144292,6.85101294 74.5903761,6.19531614 C73.966323,5.53961933 73.2187705,5.21177585 72.3476963,5.21177585 C71.4766222,5.21177585 70.7420706,5.53961933 70.1440197,6.19531614 C69.5459688,6.85101294 69.2469478,7.67224465 69.2469478,8.65903588 C69.2469478,9.64582711 69.5459688,10.4540749 70.1440197,11.0838035 L70.1440197,11.0838035 Z M83.9690028,12.0283917 C84.9180836,12.0283917 85.7013886,11.7135321 86.3189412,11.0838035 C86.9364938,10.4540749 87.2452654,9.63933516 87.2452654,8.63955983 C87.2452654,7.6397845 86.9364938,6.82504475 86.3189412,6.19531614 C85.7013886,5.56558752 84.9180836,5.25072794 83.9690028,5.25072794 C83.019922,5.25072794 82.2366171,5.56558752 81.6190645,6.19531614 C81.0015119,6.82504475 80.6927402,7.6397845 80.6927402,8.63955983 C80.6927402,9.63933516 81.0015119,10.4540749 81.6190645,11.0838035 C82.2366171,11.7135321 83.019922,12.0283917 83.9690028,12.0283917 L83.9690028,12.0283917 Z M83.9690028,13.9759963 C82.40887,13.9759963 81.1087788,13.4598862 80.0686902,12.4276507 C79.0286016,11.3954151 78.5085652,10.1327308 78.5085652,8.63955983 C78.5085652,7.14638889 79.0286016,5.88370457 80.0686902,4.85146901 C81.1087788,3.81923344 82.40887,3.3031234 83.9690028,3.3031234 C85.5291357,3.3031234 86.8292269,3.81923344 87.8693155,4.85146901 C88.909404,5.88370457 89.4294405,7.14638889 89.4294405,8.63955983 C89.4294405,10.1327308 88.909404,11.3954151 87.8693155,12.4276507 C86.8292269,13.4598862 85.5291357,13.9759963 83.9690028,13.9759963 L83.9690028,13.9759963 Z M92.5480655,3.45893176 L94.7712437,6.8672397 L97.0724281,3.45893176 L99.666136,3.45893176 L96.0388453,8.52270356 L99.8221485,13.8201879 L97.1309328,13.8201879 L94.6542343,10.3729279 L92.2360405,13.8201879 L89.6813357,13.8201879 L93.3671311,8.54217961 L89.8763513,3.45893176 L92.5480655,3.45893176 Z" id="nairabox" fill="#4A4A4A"></path>
                <path d="M71.9243738,17.5829357 C72.1539832,17.7946054 72.2687861,18.09607 72.2687861,18.4873384 C72.2687861,19.0998979 72.1114338,19.578553 71.7967245,19.9233182 C71.4820151,20.2680834 71.0292258,20.4404634 70.438343,20.4404634 C70.0722525,20.4404634 69.6660266,20.4260315 69.2196532,20.3971675 L69.3786127,19.4831435 L69.6001927,17.2846752 L70.9633911,17.2654326 C71.3744401,17.2654326 71.6947644,17.3712659 71.9243738,17.5829357 L71.9243738,17.5829357 Z M71.2524085,18.6268473 C71.2524085,18.4055562 71.2194929,18.247608 71.1536609,18.152998 C71.0878288,18.058388 70.981054,18.0110837 70.8333333,18.0110837 C70.7145145,18.0110837 70.5924862,18.0174979 70.4672447,18.0303264 L70.2649326,19.3869304 L70.2408478,19.6900015 C70.433527,19.7156585 70.5732173,19.7284868 70.6599229,19.7284868 C71.0549153,19.7284868 71.2524085,19.3612773 71.2524085,18.6268473 L71.2524085,18.6268473 Z M75.0891137,17.5660984 C75.318723,17.7922002 75.433526,18.1361584 75.433526,18.5979834 C75.433526,18.9571806 75.3668921,19.2770858 75.2336224,19.5577086 C75.1003526,19.8383314 74.9052678,20.0580157 74.6483622,20.216768 C74.3914566,20.3755203 74.0831746,20.4548953 73.7235067,20.4548953 C73.3028238,20.4548953 72.9768798,20.3402426 72.7456647,20.1109337 C72.5144497,19.8816247 72.3988439,19.5344594 72.3988439,19.0694273 C72.3988439,18.7102301 72.4654778,18.3919285 72.5987476,18.1145128 C72.7320174,17.8370971 72.9279049,17.6198181 73.1864162,17.4626693 C73.4449274,17.3055206 73.7540123,17.2269474 74.1136802,17.2269474 C74.5343631,17.2269474 74.8595043,17.3399966 75.0891137,17.5660984 L75.0891137,17.5660984 Z M73.6825626,18.0784329 C73.5974626,18.136161 73.5300259,18.2443996 73.4802505,18.4031519 C73.430475,18.5619043 73.4055877,18.7888045 73.4055877,19.0838593 C73.4055877,19.2570437 73.4168271,19.3901371 73.4393064,19.4831435 C73.4617856,19.5761499 73.5027293,19.6434984 73.5621387,19.6851909 C73.6215481,19.7268834 73.7090553,19.7477294 73.8246628,19.7477294 C73.9499043,19.7477294 74.0558763,19.7188657 74.1425819,19.6611376 C74.2292875,19.6034095 74.297527,19.4951709 74.3473025,19.3364186 C74.397078,19.1776662 74.4219653,18.950766 74.4219653,18.6557112 C74.4219653,18.485734 74.4107259,18.3534423 74.3882466,18.2588324 C74.3657674,18.1642224 74.3248237,18.0960722 74.2654143,18.0543796 C74.2060048,18.0126871 74.1184977,17.9918411 74.0028902,17.9918411 C73.8744374,17.9918411 73.7676626,18.0207048 73.6825626,18.0784329 L73.6825626,18.0784329 Z M77.177264,20.3971675 L76.2138728,20.3971675 L76.3776493,19.4831435 L76.5992293,17.2846752 L77.5770713,17.2846752 L77.2639692,19.3869304 L77.177264,20.3971675 Z M80.2023121,18.049569 L79.5712909,18.020705 L79.5086705,18.020705 L79.3159923,19.3869304 L79.2292871,20.3971675 L78.2707129,20.3971675 L78.4344894,19.4831435 L78.588632,18.020705 L78.5260116,18.020705 L77.8805395,18.049569 L77.8323699,17.9822198 L77.9720617,17.2846752 L80.2938343,17.2846752 L80.3371869,17.3520243 L80.2023121,18.049569 Z M83.6030829,21.3833513 L83.5356455,21.4170259 C83.0250456,21.1444208 82.5754676,20.8237139 82.1868979,20.4548953 L82.172447,20.4548953 C81.7517641,20.4548953 81.4282285,20.3402426 81.2018304,20.1109337 C80.9754324,19.8816247 80.8622351,19.5344594 80.8622351,19.0694273 C80.8622351,18.7102301 80.9296718,18.3919285 81.0645472,18.1145128 C81.1994226,17.8370971 81.3977187,17.6198181 81.6594412,17.4626693 C81.9211638,17.3055206 82.2318543,17.2269474 82.5915222,17.2269474 C83.0122051,17.2269474 83.3349379,17.3399966 83.5597303,17.5660984 C83.7845226,17.7922002 83.8969171,18.1361584 83.8969171,18.5979834 C83.8969171,18.9635948 83.827072,19.2883106 83.6873796,19.5721405 C83.5476872,19.8559705 83.3477855,20.074853 83.0876686,20.2287946 C83.4088006,20.4116004 83.7491954,20.5655397 84.1088632,20.6906173 L84.1377649,20.7772091 C83.9771989,21.0241571 83.7989734,21.2262025 83.6030829,21.3833513 L83.6030829,21.3833513 Z M81.9026975,19.4831435 C81.9251767,19.5761499 81.9661204,19.6434984 82.0255299,19.6851909 C82.0849393,19.7268834 82.1724464,19.7477294 82.2880539,19.7477294 C82.4132954,19.7477294 82.5192674,19.7188657 82.605973,19.6611376 C82.6926787,19.6034095 82.7609182,19.4951709 82.8106936,19.3364186 C82.8604691,19.1776662 82.8853565,18.950766 82.8853565,18.6557112 C82.8853565,18.485734 82.874117,18.3534423 82.8516378,18.2588324 C82.8291585,18.1642224 82.7882148,18.0960722 82.7288054,18.0543796 C82.669396,18.0126871 82.5818888,17.9918411 82.4662813,17.9918411 C82.3378285,17.9918411 82.2310537,18.0207048 82.1459538,18.0784329 C82.0608538,18.136161 81.9934171,18.2443996 81.9436416,18.4031519 C81.8938662,18.5619043 81.8689788,18.7888045 81.8689788,19.0838593 C81.8689788,19.2570437 81.8802183,19.3901371 81.9026975,19.4831435 L81.9026975,19.4831435 Z M86.8111753,19.3580665 C86.7662169,19.7140566 86.6217096,19.9858557 86.3776493,20.1734721 C86.133589,20.3610885 85.7964055,20.4548953 85.3660886,20.4548953 C84.9839416,20.4548953 84.6860961,20.3779256 84.4725434,20.223984 C84.2589906,20.0700423 84.1522158,19.8503581 84.1522158,19.5649246 C84.1522158,19.4975751 84.1570327,19.4286231 84.1666667,19.3580665 L84.238921,18.8625693 L84.4026975,17.2846752 L85.3660886,17.2846752 L85.0867052,19.2281789 C85.0802826,19.2923212 85.0770713,19.3356167 85.0770713,19.3580665 C85.0770713,19.4767299 85.1059727,19.5633207 85.1637765,19.6178417 C85.2215803,19.6723628 85.3163128,19.6996228 85.4479769,19.6996228 C85.5989089,19.6996228 85.7129091,19.6627415 85.7899807,19.5889778 C85.8670524,19.5152141 85.9136158,19.394949 85.9296724,19.2281789 L86.1223507,17.2846752 L87.1001927,17.2846752 L86.8737958,18.8625693 L86.8111753,19.3580665 Z M88.1936416,20.3971675 L87.2302505,20.3971675 L87.394027,19.4831435 L87.6156069,17.2846752 L88.5934489,17.2846752 L88.2803468,19.3869304 L88.1936416,20.3971675 Z M91.3728324,17.3616456 L91.1175337,18.1265394 L91.0500963,18.160214 C90.9730247,18.1153143 90.8815034,18.0792348 90.7755299,18.0519743 C90.6695563,18.0247138 90.5700069,18.0110837 90.4768786,18.0110837 C90.2328183,18.0110837 90.0602125,18.0880534 89.9590559,18.2419951 C89.8578993,18.3959367 89.8073218,18.6412776 89.8073218,18.9780249 C89.8073218,19.2121445 89.8498711,19.3837228 89.9349711,19.4927648 C90.0200711,19.6018068 90.152536,19.656327 90.3323699,19.656327 C90.5443171,19.656327 90.7482328,19.6226527 90.9441233,19.5553033 L91.0115607,19.5985991 L90.8429672,20.3586823 C90.6438654,20.4196175 90.4319215,20.4500847 90.2071291,20.4500847 C89.744699,20.4500847 89.3906563,20.3362337 89.1449904,20.1085283 C88.8993244,19.880823 88.7764933,19.5553054 88.7764933,19.1319658 C88.7764933,18.5354419 88.9314371,18.069615 89.2413295,17.7344712 C89.5512218,17.3993274 89.9919689,17.231758 90.5635838,17.231758 C90.8686592,17.231758 91.138406,17.2750534 91.3728324,17.3616456 L91.3728324,17.3616456 Z M94.1377649,20.1951201 L94.1136802,20.3009544 C93.7636463,20.3779253 93.4377022,20.4292384 93.1358382,20.4548953 L93.0346821,20.3971675 C92.7777765,19.8359219 92.5674382,19.3580685 92.4036609,18.963593 L92.3410405,19.3869304 L92.2543353,20.3971675 L91.2909441,20.3971675 L91.4547206,19.4831435 L91.6763006,17.2846752 L92.6541426,17.2846752 L92.4614644,18.5883621 L93.1791908,17.6214209 L93.3863198,17.2846752 L94.4026975,17.2846752 L93.2996146,18.8096521 C93.5211957,19.2201632 93.8005763,19.6819812 94.1377649,20.1951201 L94.1377649,20.1951201 Z M95.5105973,18.4632851 L95.982659,18.4632851 L96.4884393,18.4488531 L96.5317919,18.5162023 L96.3872832,19.2185576 L95.8333333,19.2041256 L95.3998073,19.2041256 L95.3709056,19.3869304 L95.3468208,19.6611376 L95.8092486,19.6611376 L96.6136802,19.6322737 L96.6570328,19.6996228 L96.5125241,20.3971675 L94.3208092,20.3971675 L94.4797688,19.4831435 L94.7061657,17.2846752 L96.9364162,17.2846752 L96.9797688,17.3520243 L96.8304432,18.049569 L96.0693642,18.020705 L95.5732177,18.020705 L95.5105973,18.4632851 Z M99.6026012,18.720655 C99.4918106,18.9082714 99.3352611,19.0662196 99.132948,19.1945043 C99.3288385,19.5633229 99.5150922,19.8888404 99.6917148,20.1710668 L99.6676301,20.2769012 C99.3272302,20.3763218 98.9980748,20.4356526 98.6801541,20.4548953 L98.5982659,20.3779249 C98.4344886,19.8968572 98.3333335,19.5937891 98.2947977,19.4687115 L97.9672447,19.4687115 L97.8853565,20.3971675 L96.9219653,20.3971675 L97.0857418,19.4831435 L97.3073218,17.2846752 L98.7331407,17.2798645 C99.0542726,17.2798645 99.3071603,17.3528254 99.4918112,17.4987492 C99.6764621,17.6446731 99.7687861,17.8491238 99.7687861,18.1121075 C99.7687861,18.3301915 99.7133917,18.5330386 99.6026012,18.720655 L99.6026012,18.720655 Z M98.6488439,18.0303264 C98.5894345,17.9790125 98.4938992,17.9501488 98.3622351,17.9437346 L98.1840077,17.9581666 L98.0635838,18.7663562 L98.4152216,18.7855988 C98.5308291,18.7374921 98.6135193,18.6717471 98.6632948,18.5883621 C98.7130703,18.504977 98.7379576,18.3991437 98.7379576,18.270859 C98.7379576,18.161817 98.7082533,18.0816402 98.6488439,18.0303264 L98.6488439,18.0303264 Z" id="DO-IT-QUICKER" fill="#B0B0B0"></path>
            </g>
        </g>
    </g>
</svg>