<?xml version="1.0" encoding="UTF-8" standalone="no"?>
<svg width="200px" height="100px" viewBox="0 0 200 100" version="1.1" xmlns="http://www.w3.org/2000/svg" xmlns:xlink="http://www.w3.org/1999/xlink" xmlns:sketch="http://www.bohemiancoding.com/sketch/ns">
    <!-- Generator: Sketch 3.3.3 (12072) - http://www.bohemiancoding.com/sketch -->
    <title>switch_off</title>
    <desc>Created with Sketch.</desc>
    <defs></defs>
    <g id="Page-1" stroke="none" stroke-width="1" fill="none" fill-rule="evenodd" sketch:type="MSPage">
        <path d="M142.380717,12.6715441 C145.224673,7.93161742 149.834907,7.93040171 152.679592,12.6715441 L194.839098,82.9373862 C197.683054,87.6773129 195.513956,91.5197826 189.988068,91.5197826 L105.072241,91.5197826 C99.5491353,91.5197826 97.376526,87.6785286 100.221211,82.9373862 L142.380717,12.6715441 Z" id="switch_triangle" stroke="#D0D0D0" stroke-width="5" fill="#F8F8F8" sketch:type="MSShapeGroup"></path>
        <path d="M49.7124348,63.2222609 L49.7124348,34.2222609 L44.6254783,34.2222609 L44.6254783,54.3526957 L29.7993913,34.2222609 L24.582,34.2222609 L24.582,63.2222609 L29.6689565,63.2222609 L29.6689565,42.5266087 L44.7993913,63.2222609 L49.7124348,63.2222609 Z M69.408087,63.744 C78.1037391,63.744 84.2341739,57.3961739 84.2341739,48.744 C84.2341739,40.0918261 78.1037391,33.744 69.408087,33.744 C60.7124348,33.744 54.582,40.0918261 54.582,48.744 C54.582,57.3961739 60.7124348,63.744 69.408087,63.744 L69.408087,63.744 Z M69.408087,59.2222609 C63.5385217,59.2222609 59.7993913,54.7005217 59.7993913,48.744 C59.7993913,42.744 63.5385217,38.2657391 69.408087,38.2657391 C75.2341739,38.2657391 79.0167826,42.744 79.0167826,48.744 C79.0167826,54.7005217 75.2341739,59.2222609 69.408087,59.2222609 L69.408087,59.2222609 Z" id="NO" fill="#C5C5C5" sketch:type="MSShapeGroup"></path>
    </g>
</svg>