<?xml version="1.0" encoding="UTF-8" standalone="no"?>
<svg width="200px" height="100px" viewBox="0 0 200 100" version="1.1" xmlns="http://www.w3.org/2000/svg" xmlns:xlink="http://www.w3.org/1999/xlink" xmlns:sketch="http://www.bohemiancoding.com/sketch/ns">
    <!-- Generator: Sketch 3.3.3 (12072) - http://www.bohemiancoding.com/sketch -->
    <title>switch_off</title>
    <desc>Created with Sketch.</desc>
    <defs></defs>
    <g id="Page-1" stroke="none" stroke-width="1" fill="none" fill-rule="evenodd" sketch:type="MSPage">
        <path d="M142.380717,12.6715441 C145.224673,7.93161742 149.834907,7.93040171 152.679592,12.6715441 L194.839098,82.9373862 C197.683054,87.6773129 195.513956,91.5197826 189.988068,91.5197826 L105.072241,91.5197826 C99.5491353,91.5197826 97.376526,87.6785286 100.221211,82.9373862 L142.380717,12.6715441 Z" id="switch_triangle_on" fill="#35A356" sketch:type="MSShapeGroup"></path>
        <path d="M22.915553,64.2174939 L22.915553,52.156536 L34.149225,35.1754039 L28.3146821,35.1754039 L20.3901538,47.6282341 L12.3785428,35.1754039 L6.544,35.1754039 L17.8212134,52.156536 L17.8212134,64.2174939 L22.915553,64.2174939 Z M57.226148,64.2174939 L57.226148,59.7327333 L42.4220842,59.7327333 L42.4220842,51.6775809 L56.9213585,51.6775809 L56.9213585,47.1928204 L42.4220842,47.1928204 L42.4220842,39.6601644 L57.226148,39.6601644 L57.226148,35.1754039 L37.3277446,35.1754039 L37.3277446,64.2174939 L57.226148,64.2174939 Z M72.3785428,64.7399902 C80.2159884,64.7399902 83.6122148,60.6035606 83.6122148,55.7704692 C83.6122148,44.9286695 66.7181655,48.2813545 66.7181655,42.8822254 C66.7181655,40.7051571 68.6339855,39.2682921 71.6383396,39.2682921 C74.6862351,39.2682921 77.777672,40.3132849 80.0418229,42.5774358 L82.9590943,38.7893371 C80.2595298,36.1768553 76.6020552,34.7399902 72.0737533,34.7399902 C65.7167141,34.7399902 61.4932017,38.4410062 61.4932017,43.2305563 C61.4932017,53.9417319 78.4307925,50.1536332 78.4307925,56.2494242 C78.4307925,58.1652442 76.7762206,60.2116883 72.5962496,60.2116883 C68.5469028,60.2116883 65.4119245,58.3394097 63.4090218,56.2058828 L60.5788331,60.1246056 C63.1477736,62.8677116 67.022955,64.7399902 72.3785428,64.7399902 L72.3785428,64.7399902 Z" id="YES" fill="#35A356" sketch:type="MSShapeGroup"></path>
    </g>
</svg>