<?xml version="1.0" encoding="UTF-8"?>
<svg width="55px" height="48px" viewBox="0 0 55 48" version="1.1" xmlns="http://www.w3.org/2000/svg" xmlns:xlink="http://www.w3.org/1999/xlink">
    <!-- Generator: Sketch 41.2 (35397) - http://www.bohemiancoding.com/sketch -->
    <title>ticket_cinema</title>
    <desc>Created with Sketch.</desc>
    <defs></defs>
    <g id="Page-1" stroke="none" stroke-width="1" fill="none" fill-rule="evenodd">
        <g id="iPhone-7" transform="translate(-160.000000, -178.000000)" fill="#4990E2">
            <path d="M190.862034,197.385205 L176.083474,197.385205 C179.935055,196.626697 182.931263,193.485218 183.472754,189.560111 C184.014245,193.485218 187.010452,196.626697 190.862034,197.385205 L190.862034,197.385205 Z M194.255547,197.424587 C196.030524,197.685926 197.392981,199.216234 197.392981,201.062524 L197.392981,205.69985 L208.05785,197.707629 C209.682755,196.489931 211,197.147638 211,199.179708 L211,223.242245 C211,225.27295 209.682836,225.932083 208.05785,224.714324 L197.392981,216.722103 L197.392981,221.373243 C197.392981,223.40417 195.745237,225.050562 193.715662,225.050562 L173.404943,225.050562 C171.374016,225.050562 169.727624,223.402818 169.727624,221.373243 L169.727624,201.062524 C169.727624,199.246342 171.045334,197.737674 172.775441,197.438935 C168.365735,196.71996 165,192.89311 165,188.280151 C165,183.154865 169.154865,179 174.280151,179 C178.971171,179 182.849251,182.48061 183.472754,187.000191 C184.096256,182.48061 187.974336,179 192.665356,179 C197.790642,179 201.945508,183.154865 201.945508,188.280151 C201.945508,192.863258 198.623194,196.670396 194.255547,197.424587 L194.255547,197.424587 Z M174.280151,190.20622 C175.34389,190.20622 176.20622,189.34389 176.20622,188.280151 C176.20622,187.216413 175.34389,186.354082 174.280151,186.354082 C173.216413,186.354082 172.354082,187.216413 172.354082,188.280151 C172.354082,189.34389 173.216413,190.20622 174.280151,190.20622 Z M192.665356,190.20622 C193.729095,190.20622 194.591425,189.34389 194.591425,188.280151 C194.591425,187.216413 193.729095,186.354082 192.665356,186.354082 C191.601618,186.354082 190.739287,187.216413 190.739287,188.280151 C190.739287,189.34389 191.601618,190.20622 192.665356,190.20622 Z" id="Combined-Shape"></path>
        </g>
    </g>
</svg>