<?xml version="1.0" encoding="UTF-8"?>
<svg width="75px" height="48px" viewBox="0 0 75 48" version="1.1" xmlns="http://www.w3.org/2000/svg" xmlns:xlink="http://www.w3.org/1999/xlink">
    <!-- Generator: Sketch 41.2 (35397) - http://www.bohemiancoding.com/sketch -->
    <title>ticket_event</title>
    <desc>Created with Sketch.</desc>
    <defs></defs>
    <g id="Page-1" stroke="none" stroke-width="1" fill="none" fill-rule="evenodd">
        <g id="iPhone-7" transform="translate(-150.000000, -306.000000)">
            <g id="Group-2" transform="translate(151.000000, 307.000000)">
                <path d="M24.0500091,46 L5.99757128,46 C2.68520413,46 0,43.3111444 0,40.0099006 L0,5.99009943 C0,2.68185887 2.68452859,0 5.99757128,0 L24.0500091,0 C24.0172151,0.16155497 24,0.328767081 24,0.5 C24,1.70947896 24.8588798,2.71835578 26,2.94999094 L26,43.0500091 C24.8588798,43.2816442 24,44.290521 24,45.5 C24,45.6712329 24.0172151,45.838445 24.0500091,46 Z M25,8 L26,8 L26,9 L25,9 L25,8 Z M25,15 L26,15 L26,16 L25,16 L25,15 Z M25,22 L26,22 L26,23 L25,23 L25,22 Z M25,29 L26,29 L26,30 L25,30 L25,29 Z M25,36 L26,36 L26,37 L25,37 L25,36 Z" id="Combined-Shape" fill="#FF4F1B"></path>
                <path d="M28.9499909,46 L67.0099006,46 C70.3111444,46 73,43.3181411 73,40.0099006 L73,5.99009943 C73,2.68885565 70.3181411,0 67.0099006,0 L28.9499909,0 C28.9827849,0.16155497 29,0.328767081 29,0.5 C29,1.70947896 28.1411202,2.71835578 27,2.94999094 L27,43.0500091 C28.1411202,43.2816442 29,44.290521 29,45.5 C29,45.6712329 28.9827849,45.838445 28.9499909,46 Z M27,8 L28,8 L28,9 L27,9 L27,8 Z M27,15 L28,15 L28,16 L27,16 L27,15 Z M27,22 L28,22 L28,23 L27,23 L27,22 Z M27,29 L28,29 L28,30 L27,30 L27,29 Z M27,36 L28,36 L28,37 L27,37 L27,36 Z" id="Combined-Shape" fill="#FF671B"></path>
                <path d="M48.3779297,23.3237305 C48.8818385,23.9360382 49.1337891,24.6962845 49.1337891,25.6044922 C49.1337891,26.4189494 48.9257833,27.1455046 48.5097656,27.7841797 C48.0937479,28.4228548 47.5048866,28.917967 46.7431641,29.2695312 C45.9814415,29.6210955 45.0966847,29.796875 44.0888672,29.796875 C43.1513625,29.796875 42.221196,29.6445328 41.2983398,29.3398438 C40.3754837,29.0351547 39.609378,28.6308619 39,28.1269531 L40.6523438,24.9628906 C41.6132861,26.1406309 42.6445257,26.7265625 43.7460938,26.7207031 C44.6074262,26.7207031 45.0410156,26.3544958 45.046875,25.6220703 C45.046875,24.8896448 44.6132856,24.5234375 43.7460938,24.5234375 L41.4609375,24.5234375 L41.4609375,22.3525391 L43.8603516,20.0673828 L39.6591797,20.0673828 L39.6591797,17.0351562 L48.5537109,17.0351562 L48.5537109,19.3818359 L45.8378906,21.9921875 L46.3740234,22.1152344 C47.2060588,22.3085947 47.8740209,22.7114227 48.3779297,23.3237305 Z M52.7001953,29.6210938 L52.7001953,20.2958984 L50.5029297,20.2958984 L50.5029297,17 L56.875,17 L56.875,29.6210938 L52.7001953,29.6210938 Z" id="31" fill="#FFFFFF"></path>
                <path d="M7.18310547,23.0498047 L7.18310547,25.6513672 C6.82861151,25.8857434 6.39209244,26.0791008 5.87353516,26.2314453 C5.35497788,26.3837898 4.87011944,26.4599609 4.41894531,26.4599609 C3.76562173,26.4599609 3.17895768,26.3208022 2.65893555,26.0424805 C2.13891342,25.7641588 1.73242334,25.3789087 1.43945312,24.8867188 C1.14648291,24.3945288 1,23.8393586 1,23.2211914 C1,22.6088837 1.15307464,22.0566431 1.45922852,21.5644531 C1.76538239,21.0722632 2.18798559,20.6884779 2.72705078,20.4130859 C3.26611598,20.1376939 3.87548488,20 4.55517578,20 C5.04736574,20 5.54101315,20.0886222 6.03613281,20.2658691 C6.53125248,20.4431161 6.94579911,20.6782212 7.27978516,20.9711914 L6.10205078,22.4038086 C5.89111223,22.1987294 5.64502094,22.0361334 5.36376953,21.9160156 C5.08251813,21.7958978 4.81005991,21.7358398 4.54638672,21.7358398 C4.28271353,21.7358398 4.04248155,21.8002923 3.82568359,21.9291992 C3.60888563,22.0581061 3.44043029,22.2353504 3.3203125,22.4609375 C3.20019471,22.6865246 3.14013672,22.93994 3.14013672,23.2211914 C3.14013672,23.5083022 3.20165954,23.7661121 3.32470703,23.9946289 C3.44775452,24.2231457 3.6176747,24.4018548 3.83447266,24.5307617 C4.05127062,24.6596686 4.29443225,24.7241211 4.56396484,24.7241211 C4.7807628,24.7241211 5.05615067,24.6552741 5.39013672,24.5175781 L5.39013672,23.0498047 L7.18310547,23.0498047 Z M10.3813476,25.4799805 L10.0561523,26.3720703 L7.9160156,26.3720703 L10.5791015,20.0615234 L12.7192383,20.0615234 L15.2856445,26.3720703 L13.0620117,26.3720703 L12.7456054,25.4799805 L10.3813476,25.4799805 Z M11.5854492,22.1401367 L10.921875,23.9858398 L12.2358398,23.9858398 L11.5854492,22.1401367 Z M18.8969726,21.7094727 L18.8969726,26.3720703 L16.8095703,26.3720703 L16.8095703,21.7094727 L15.0166015,21.7094727 L15.0166015,20.0615234 L20.6987304,20.0615234 L20.6987304,21.7094727 L18.8969726,21.7094727 Z M23.7783202,21.6479492 L23.7783202,22.4213867 L26.7270507,22.4213867 L26.7270507,24.003418 L23.7783202,24.003418 L23.7783202,24.7900391 L27.1049804,24.7900391 L27.1049804,26.3720703 L21.6865233,26.3720703 L21.6865233,20.0615234 L27.0258788,20.0615234 L27.0258788,21.6479492 L23.7783202,21.6479492 Z" id="GATE" fill="#FFFFFF" transform="translate(14.052490, 23.229980) rotate(-90.000000) translate(-14.052490, -23.229980) "></path>
            </g>
        </g>
    </g>
</svg>