<?xml version="1.0" encoding="UTF-8" standalone="no"?>
<svg width="200px" height="42px" viewBox="0 0 200 42" version="1.1" xmlns="http://www.w3.org/2000/svg" xmlns:xlink="http://www.w3.org/1999/xlink" xmlns:sketch="http://www.bohemiancoding.com/sketch/ns">
    <!-- Generator: Sketch 3.5.1 (25234) - http://www.bohemiancoding.com/sketch -->
    <title>Shape</title>
    <desc>Created with Sketch.</desc>
    <defs></defs>
    <g id="Page-1" stroke="none" stroke-width="1" fill="none" fill-rule="evenodd" sketch:type="MSPage">
        <g id="iPhone-6" sketch:type="MSArtboardGroup" transform="translate(-275.000000, -183.000000)" fill="#FFFFFF">
            <path d="M306.446908,223.753492 L306.446908,200.720757 C306.446908,193.029014 303.047242,189.841827 295.058028,189.841827 C287.111309,189.841827 283.711643,193.029014 283.711643,200.720757 L283.711643,224.730896 L276.0199,224.730896 C275.339967,224.730896 275,224.433426 275,223.753492 L275,200.338295 C275,187.504557 283.201693,183 295.058028,183 C306.956857,183 315.158551,187.504557 315.158551,200.338295 L315.158551,224.730896 L307.466807,224.730896 C306.786874,224.730896 306.446908,224.433426 306.446908,223.753492 L306.446908,223.753492 Z M417.87095,218.059052 C418.508388,218.059052 418.805858,218.271531 419.018338,218.738986 L421.22812,224.263442 C421.355608,224.560913 421.22812,224.730896 420.888154,224.730896 L389.951196,224.730896 C387.06148,224.730896 385.956589,223.88098 385.956589,221.883676 L385.956589,186.144691 C385.956589,184.487354 386.806505,183.722429 389.016288,183.722429 L417.87095,183.722429 C418.508388,183.722429 418.805858,183.934908 419.018338,184.402362 L421.22812,189.884323 C421.355608,190.22429 421.22812,190.394273 420.888154,190.394273 L394.540745,190.394273 L394.540745,197.661058 C394.540745,200.168312 395.900611,201.315699 399.640243,201.315699 L411.071619,201.315699 C411.709056,201.315699 412.006527,201.528178 412.219006,201.995632 L414.343797,207.265114 C414.471285,207.60508 414.343797,207.775064 414.003831,207.775064 L394.540745,207.775064 L394.540745,218.059052 L417.87095,218.059052 L417.87095,218.059052 Z M363.391308,205.352802 C366.748478,207.095131 368.15084,210.409805 368.15084,214.31942 C368.15084,223.413526 360.756567,224.730896 353.107319,224.730896 L335.641537,224.730896 C332.709325,224.730896 331.646929,223.88098 331.646929,221.883676 L331.646929,186.144691 C331.646929,184.487354 332.45435,183.722429 334.706629,183.722429 L356.209514,183.722429 C364.326216,183.722429 370.105648,186.86712 370.105648,195.068813 C370.105648,199.955833 368.023352,204.120423 363.391308,205.352802 L363.391308,205.352802 Z M340.103598,218.229036 L353.744756,218.229036 C358.249313,218.229036 359.524188,216.529203 359.524188,212.959554 C359.524188,209.389905 358.249313,207.647576 353.744756,207.647576 L340.103598,207.647576 L340.103598,218.229036 L340.103598,218.229036 Z M355.317102,190.22429 L340.103598,190.22429 L340.103598,197.831042 C340.103598,200.338295 341.50596,201.485682 345.245592,201.485682 L355.317102,201.485682 C360.161625,201.485682 361.478996,199.615866 361.478996,195.833738 C361.478996,192.094106 360.161625,190.22429 355.317102,190.22429 L355.317102,190.22429 Z M474.900342,184.444858 L465.678749,200.210808 C470.268298,201.400691 473.965434,204.417894 473.965434,212.109637 C473.965434,222.05366 467.80354,224.730896 457.562047,224.730896 L440.011273,224.730896 C437.121557,224.730896 436.016666,223.88098 436.016666,221.883676 L436.016666,184.699833 C436.016666,184.062396 436.356633,183.722429 437.036566,183.722429 L444.51583,183.722429 L444.51583,195.70625 C444.51583,198.213504 445.918192,199.360891 449.657825,199.360891 L457.264576,199.360891 L465.551262,184.402362 C465.806237,183.977404 466.061211,183.722429 466.698649,183.722429 L474.51788,183.722429 C475.070326,183.722429 475.070326,184.189883 474.900342,184.444858 L474.900342,184.444858 Z M458.836922,205.735264 L444.51583,205.735264 L444.51583,218.144044 L458.836922,218.144044 C464.191395,218.144044 465.338782,216.104245 465.338782,211.939654 C465.338782,207.732568 464.191395,205.735264 458.836922,205.735264 L458.836922,205.735264 Z" id="Shape" sketch:type="MSShapeGroup" transform="translate(375.000000, 203.865448) scale(1, -1) translate(-375.000000, -203.865448) "></path>
        </g>
    </g>
</svg>